<?xml version="1.0" standalone="no"?><!DOCTYPE svg PUBLIC "-//W3C//DTD SVG 1.1//EN" "http://www.w3.org/Graphics/SVG/1.1/DTD/svg11.dtd">
<svg class="icon" style="" viewBox="0 0 1024 1024" version="1.1" xmlns="http://www.w3.org/2000/svg" p-id="5554"
     width="200" height="200"><defs><style type="text/css"></style></defs><path d="M255.286756 922.208663c-39.151695 0-78.675874-11.506055-113.198132-35.480073l-7.27673-5.054109C44.707736 819.108516 22.305517 694.883237 84.870458 604.77908l189.772134-253.215072c29.733185-42.863227 75.230402-72.090898 127.525442-81.522712 52.29504-9.458419 105.123222 2.075265 148.771325 32.380478l7.27673 5.04183c37.048801 25.714661 64.507176 63.696718 77.305667 106.932428 4.269233 14.420431-3.965312 29.586852-18.399045 33.857109-14.407128 4.230348-29.572526-3.950985-33.857109-18.398022-9.417487-31.835056-28.828582-58.680471-56.112995-77.624938l-7.27673-5.04183c-31.715329-22.029736-70.108754-30.398334-108.036575-23.51967-37.96773 6.851035-70.999031 28.070312-93.016487 59.771315l-189.772134 253.216095c-44.858674 64.62588-28.589129 154.823158 36.836977 200.267163l7.27673 5.055133c65.399499 45.417399 155.609057 29.17446 201.053062-36.238342l57.975413-83.451644c8.593725-12.332886 25.542746-15.378246 37.927821-6.824429 12.345166 8.593725 15.405875 25.568329 6.824429 37.926798l-57.976436 83.438341C380.377752 892.397706 318.317301 922.208663 255.286756 922.208663zM554.651914 676.630525c-39.191604 0-78.795601-11.493775-113.384373-35.506678l-7.329942-5.108345c-37.023218-25.714661-64.454988-63.669088-77.225849-106.86489-4.270257-14.433734 3.977591-29.586852 18.398022-33.857109 14.473643-4.270257 29.600155 3.964288 33.857109 18.398022 9.405207 31.807427 28.801976 58.640562 56.086389 77.598332l7.329942 5.108345c65.372893 45.390793 155.582451 29.121248 201.026456-36.291554l189.758832-253.241678c44.871977-64.627926 28.602432-154.824181-36.82265-200.268186l-7.224542-4.975315c-31.768541-22.083971-70.121034-30.411637-108.10309-23.586185-37.96773 6.851035-71.000054 28.070312-93.016487 59.771315l-57.963133 83.438341c-8.581446 12.371772-25.556049 15.418154-37.914518 6.838755-12.358469-8.580422-15.418154-25.556049-6.838755-37.914518l57.963133-83.438341c30.305213-43.661406 75.80243-72.889077 128.110773-82.32089 52.28276-9.419534 105.136525 2.088568 148.784628 32.406061l7.209192 4.975315c90.183975 62.632479 112.573915 186.858782 49.993624 276.948613L717.58989 591.980589C679.382707 647.003763 617.548406 676.630525 554.651914 676.630525zM724.428645 432.28854c-2.846838 0-5.708002-0.8913-8.154727-2.727111-6.027274-4.50971-7.251148-13.050224-2.728134-19.063171l7.462972-9.950629c4.510734-6.02625 13.06455-7.223518 19.064194-2.727111 6.027274 4.50971 7.250124 13.050224 2.727111 19.063171l-7.462972 9.950629C732.66319 430.41282 728.578152 432.28854 724.428645 432.28854zM755.584226 390.729006c-2.846838 0-5.706979-0.8913-8.154727-2.727111-6.027274-4.50971-7.250124-13.050224-2.727111-19.063171l60.291155-80.431867c14.446014-20.820188 20.034289-46.508243 15.44476-71.931263-4.589528-25.435299-18.798135-47.559179-40.015366-62.286602l-4.670369-3.232624c-6.185886-4.296863-7.729032-12.785188-3.444449-18.957771 4.270257-6.185886 12.744255-7.742335 18.956747-3.445472l4.682649 3.245927c27.204595 18.890232 45.417399 47.239907 51.297316 79.833233 5.880941 32.593326-1.276063 65.518203-20.167319 92.710518l-60.582797 80.830957C763.819794 388.853285 759.734756 390.729006 755.584226 390.729006z" fill="#000000"></path></svg>
