<?xml version="1.0" standalone="no"?><!DOCTYPE svg PUBLIC "-//W3C//DTD SVG 1.1//EN" "http://www.w3.org/Graphics/SVG/1.1/DTD/svg11.dtd">
<svg class="icon" style="" viewBox="0 0 1024 1024" version="1.1" xmlns="http://www.w3.org/2000/svg" p-id="5554"
     width="200" height="200"><defs><style type="text/css"></style></defs><path d="M512.343319 139.774417M512.343319 139.774417c-171.003676 0-314.459948 117.828592-353.663832 276.758278 0 0-98.103342 15.520485-93.761454 114.191762 4.341888 98.650811 107.816564 104.679108 107.816564 104.679108 1.233084 3.162016 22.984481-3.084245 30.792307-4.411473-16.122189-39.135322-25.081235-82.010829-25.081235-126.986159 0-184.4008 149.497872-333.89151 333.897649-333.89151 184.414103 0 333.85774 149.490709 333.85774 333.89151 0 147.136082-95.131661 271.989671-227.260957 316.441069-8.520047 2.902096-17.477047-0.959861-17.477047-0.959861s-22.382776-4.191462-50.463322 3.753487c-13.806447 3.943822-19.751856 18.696828-18.916838 31.612998 1.028423 15.370059 6.863315 26.423813 22.944572 28.876678 20.698414 3.245927 50.120514 6.930853 61.242829-15.205307 3.013637-6.02625 6.288217-17.178241 13.356193-19.558451 102.103446-34.710546 183.825702-113.473401 222.561935-213.604936 0 0 102.898555-12.040221 105.938797-106.925265 3.027963-94.843088-92.049462-111.657033-92.049462-111.657033C826.969043 257.725806 683.429883 139.774417 512.343319 139.774417L512.343319 139.774417zM511.713986 784.997628c-158.552086 0-287.545972-128.994909-287.545972-287.546995 0-158.551062 128.993886-287.543925 287.545972-287.543925 158.552086 0 287.545972 128.992863 287.545972 287.543925C799.259958 656.002718 670.266072 784.997628 511.713986 784.997628zM511.713986 266.013563c-127.609353 0-231.439116 103.8226-231.439116 231.43707 0 127.609353 103.829763 231.439116 231.439116 231.439116s231.438093-103.829763 231.438093-231.439116C743.152079 369.836163 639.323339 266.013563 511.713986 266.013563zM514.974239 692.276876c-30.16195 0-59.844993-7.916297-85.857437-22.890336-25.203008-14.519692-46.490847-35.33988-61.585637-60.243059-3.999081-6.630001-1.890047-15.259542 4.738931-19.272949 6.615675-4.027733 15.246239-1.889023 19.259646 4.726651 12.642948 20.875446 30.490431 38.325887 51.584865 50.461275 43.532469 25.066909 100.186793 25.066909 143.705959 0 21.107737-12.161994 38.941917-29.600155 51.570539-50.461275 4.027733-6.615675 12.629645-8.754385 19.272949-4.726651 6.615675 4.013407 8.753361 12.642948 4.725628 19.272949-15.06716 24.87555-36.352953 45.723368-61.571311 60.243059C574.80593 684.359556 545.12391 692.276876 514.974239 692.276876zM668.444587 565.133128c-3.479241 0-6.986111-1.287319-9.697873-3.889587-5.590322-5.355985-5.79396-14.232143-0.440022-19.820418 2.028193-2.26867 5.946432-12.363585 5.946432-21.383006 0-7.746428 6.272867-14.026458 14.025435-14.026458s14.027481 6.28003 14.027481 14.026458c0 15.053857-5.89015 32.573883-13.724583 40.750099C675.827741 563.680033 672.142815 565.133128 668.444587 565.133128z" fill="#000000"></path></svg>
