<?xml version="1.0" standalone="no"?><!DOCTYPE svg PUBLIC "-//W3C//DTD SVG 1.1//EN" "http://www.w3.org/Graphics/SVG/1.1/DTD/svg11.dtd">
<svg class="icon" style="" viewBox="0 0 1024 1024" version="1.1" xmlns="http://www.w3.org/2000/svg" p-id="5554"
     width="200" height="200"><defs><style type="text/css"></style></defs><path d="M873.235786 853.411787c0 53.446259-43.324738 96.769974-96.764857 96.769974L216.175993 950.181761c-53.44012 0-96.763834-43.323715-96.763834-96.769974L119.412159 153.520489c0-53.439096 43.323715-96.763834 96.763834-96.763834l560.294936 0c53.44012 0 96.764857 43.323715 96.764857 96.763834L873.235786 853.411787zM817.396014 153.520489c0-22.602787-18.322297-40.925085-40.925085-40.925085L216.175993 112.595404c-22.602787 0-40.925085 18.322297-40.925085 40.925085l0 699.891298c0 22.610974 18.322297 40.932248 40.925085 40.932248l560.294936 0c22.602787 0 40.925085-18.321274 40.925085-40.932248L817.396014 153.520489zM491.156788 821.674968c-126.045741 0-228.589209-102.542444-228.589209-228.589209 0-126.045741 102.543468-228.589209 228.589209-228.589209S719.745996 467.040019 719.745996 593.08576C719.745996 719.132524 617.202529 821.674968 491.156788 821.674968zM491.156788 392.416438c-110.655216 0-200.670346 90.01513-200.670346 200.670346s90.01513 200.670346 200.670346 200.670346c110.654192 0 200.670346-90.01513 200.670346-200.670346S601.81098 392.416438 491.156788 392.416438zM428.1068 729.683834c-2.153036 0-4.334725-0.490164-6.379291-1.554402-50.808176-26.160823-82.381266-77.910441-82.381266-135.043672 0-7.715729 6.244214-13.959943 13.959943-13.959943s13.959943 6.244214 13.959943 13.959943c0 46.623877 25.765827 88.87005 67.249637 110.23259 6.857175 3.530406 9.54233 11.943007 6.011924 18.799158C438.058452 726.929094 433.163979 729.683834 428.1068 729.683834zM491.156788 744.897328c-7.715729 0-13.959943-6.244214-13.959943-13.95892 0-7.716752 6.244214-13.960966 13.959943-13.960966 8.451486 0 16.864086-0.845251 24.974811-2.508123 7.634888-1.526773 14.942317 3.325745 16.48137 10.864442 1.554402 7.553023-3.312442 14.927991-10.865465 16.482393C511.782547 743.861742 501.490134 744.897328 491.156788 744.897328zM840.149227 294.071595 142.165372 294.071595c-7.716752 0-13.959943-6.244214-13.959943-13.959943 0-7.715729 6.244214-13.959943 13.959943-13.959943l697.982832 0c7.715729 0 13.959943 6.244214 13.959943 13.959943C854.108147 287.827381 847.864956 294.071595 840.149227 294.071595zM337.600483 210.31296l-27.918863 0c-7.716752 0-13.959943-6.244214-13.959943-13.959943 0-7.716752 6.243191-13.959943 13.959943-13.959943l27.918863 0c7.716752 0 13.959943 6.244214 13.959943 13.959943C351.560426 204.069769 345.317235 210.31296 337.600483 210.31296zM253.842871 210.31296l-27.919886 0c-7.715729 0-13.959943-6.244214-13.959943-13.959943 0-7.716752 6.244214-13.959943 13.959943-13.959943l27.919886 0c7.715729 0 13.959943 6.244214 13.959943 13.959943C267.802814 204.069769 261.558599 210.31296 253.842871 210.31296z" fill="#000000"></path></svg>
