<?xml version="1.0" standalone="no"?><!DOCTYPE svg PUBLIC "-//W3C//DTD SVG 1.1//EN" "http://www.w3.org/Graphics/SVG/1.1/DTD/svg11.dtd">
<svg class="icon" style="" viewBox="0 0 1024 1024" version="1.1" xmlns="http://www.w3.org/2000/svg" p-id="5554"
     width="200" height="200"><defs><style type="text/css"></style></defs><path d="M322.812685 208.079082c-5.846148 0-11.260461-3.726881-13.163811-9.572006-2.349511-7.264451 1.647523-15.053857 8.91095-17.403369 5.009084-1.619894 10.099009-3.051499 15.269775-4.306072 7.440459-1.728364 14.893198 2.794649 16.674775 10.207479 1.795902 7.42511-2.781346 14.892175-10.207479 16.688077-4.483104 1.066285-8.897647 2.308579-13.231349 3.712555C325.647243 207.862141 324.216661 208.079082 322.812685 208.079082zM187.069071 394.682038c-7.628748 0-13.824867-6.183839-13.824867-13.82589 0-72.812329 36.899398-139.375328 98.695836-178.056302 6.467295-4.063549 14.999622-2.092661 19.050891 4.387937 4.050246 6.467295 2.092661 15.000646-4.374634 19.050891-53.68162 33.592073-85.721337 91.40478-85.721337 154.618497C200.893938 388.498198 194.710099 394.682038 187.069071 394.682038zM819.206242 957.482027c-11.570523 0-22.223141-7.291057-26.123984-18.657942l-17.254989-50.063209-35.710316-2.134617c-6.764054-0.3776-13.137205-3.239787-17.917068-8.046257l-52.615335-52.601009c-8.019651-8.018627-10.329253-20.116153-5.846148-30.512944l8.262174-19.117406-3.685949-3.15997-10.828626 7.830339c-11.002588 7.938809-26.13831 6.751774-35.737946-2.862187L510.253728 666.655336c-40.410362 18.11866-84.559884 27.624151-128.85881 27.624151-173.749206 0-315.096445-141.347239-315.096445-315.097468 0-173.763532 141.347239-315.124074 315.096445-315.124074 173.764556 0 315.1384 141.360542 315.1384 315.124074 0 42.205241-8.344039 83.155908-24.816199 122.026194l266.531356 266.551822c4.508687 4.483104 7.316639 10.395768 7.965415 16.741289l11.949146 117.16549c1.417279 13.878079-7.749498 26.65201-21.373797 29.756721l-111.425765 25.355481C823.29742 957.26611 821.244668 957.482027 819.206242 957.482027zM753.859955 832.054363l43.716664 2.592035c11.180644 0.649799 20.860097 7.993045 24.51944 18.579147l15.189957 44.12087 63.374376-14.419408-8.464789-83.034135L618.993315 526.69877c-8.4126-8.411577-10.505261-21.252023-5.198395-31.890314 18.199501-36.495192 27.435862-75.392084 27.435862-115.626437 0-143.263891-116.571972-259.821537-259.835863-259.821537-143.249565 0-259.794931 116.557646-259.794931 259.821537 0 143.250588 116.545366 259.794931 259.794931 259.794931 42.799782 0 83.681888-10.17985 121.513518-30.243815 10.706853-5.710049 23.910573-3.725858 32.511461 4.875031l108.781542 108.788705 9.357112-6.751774c10.341532-7.473205 24.450878-6.865361 34.131355 1.37737l35.737946 30.512944c9.222035 7.884574 12.245905 20.845771 7.440459 31.998785l-8.91095 20.60427L753.859955 832.054363z" fill="#000000"></path></svg>
