<?xml version="1.0" standalone="no"?><!DOCTYPE svg PUBLIC "-//W3C//DTD SVG 1.1//EN" "http://www.w3.org/Graphics/SVG/1.1/DTD/svg11.dtd">
<svg class="icon" style="" viewBox="0 0 1024 1024" version="1.1" xmlns="http://www.w3.org/2000/svg" p-id="5554"
     width="200" height="200"><defs><style type="text/css"></style></defs><path d="M456.378703 958.180945c-28.77844 0-53.205782-18.523889-81.042781-46.360887L112.595916 649.068795c-62.107523-62.09729-62.107523-99.977016 0-162.073282L526.648117 72.932056c5.758144-5.759167 13.719466-8.637728 21.893636-7.828292l351.250876 34.736129c1.049912 0.093121 2.085498 0.23843 3.105734 0.451278 12.181437 2.453888 21.125133 12.923334 21.748327 25.222451l34.656311 350.33604c0.795109 8.106632-2.071172 16.134469-7.828292 21.893636L537.395902 911.820058C509.572206 939.643754 485.157143 958.180945 456.378703 958.180945zM555.983235 120.444163 151.021064 525.420661c-40.614 40.615023-40.614 44.607964 0 85.222987L413.762093 873.39491c13.068643 13.069667 31.710212 30.438243 42.61661 30.438243 10.894118 0 29.523407-17.368576 42.592051-30.438243l404.988778-404.988778-31.340799-316.634474L555.983235 120.444163zM232.329904 611.546204c-3.476171 0-6.953366-1.328251-9.605775-3.982708-35.7052-35.71748-27.14729-56.853869 4.03285-88.047312l123.501802-123.488499c5.307889-5.307889 13.904685-5.307889 19.212574 0 5.306866 5.306866 5.306866 13.905708 0 19.212574l-123.502825 123.489522c-25.063839 25.076118-25.328875 28.313859-4.03285 49.621141 5.306866 5.308913 5.306866 13.905708 0 19.212574C239.282247 610.218976 235.806075 611.546204 232.329904 611.546204zM387.490753 391.596769c-3.476171 0-6.940063-1.327228-9.593496-3.967358-5.321192-5.294586-5.321192-13.905708-0.026606-19.212574l11.039427-11.066033c5.306866-5.333472 13.904685-5.307889 19.211551-0.025583 5.322216 5.293563 5.322216 13.903661 0.026606 19.210527l-11.039427 11.066033C394.455375 390.269541 390.965901 391.596769 387.490753 391.596769zM711.157387 422.524153c-62.135152 0-112.674199-50.538023-112.674199-112.660896 0-62.122873 50.54007-112.660896 112.674199-112.660896 62.10957 0 112.647593 50.539047 112.647593 112.660896C823.80498 371.986129 773.266957 422.524153 711.157387 422.524153zM711.157387 251.550153c-32.162514 0-58.328453 26.163893-58.328453 58.313104 0 32.149211 26.165939 58.314127 58.328453 58.314127 32.150234 0 58.300824-26.164916 58.300824-58.314127C769.458211 277.713023 743.307621 251.550153 711.157387 251.550153z" fill="#000000"></path></svg>
