<?xml version="1.0" standalone="no"?><!DOCTYPE svg PUBLIC "-//W3C//DTD SVG 1.1//EN" "http://www.w3.org/Graphics/SVG/1.1/DTD/svg11.dtd">
<svg class="icon" style="" viewBox="0 0 1024 1024" version="1.1" xmlns="http://www.w3.org/2000/svg" p-id="5554"
     width="200" height="200"><defs><style type="text/css"></style></defs><path d="M748.914316 989.711056 273.281595 989.711056c-51.740408 0-93.831039-42.090631-93.831039-93.830015 0-0.502443 0.013303-0.979304 0.039909-1.455141l27.033703-502.045277c0.435928-51.369971 42.354644-93.037976 93.831039-93.037976l421.487543 0c51.475372 0 93.39511 41.668005 93.830015 93.037976l27.033703 502.045277c0.025583 0.475837 0.039909 0.952698 0.039909 1.455141C842.746378 947.620425 800.654724 989.711056 748.914316 989.711056zM233.596757 896.514467c0.343831 21.574365 18.018376 39.050388 39.684838 39.050388l475.633744 0c21.666462 0 39.339983-17.476023 39.683814-39.050388l-27.033703-501.886665c-0.025583-0.502443-0.038886-0.978281-0.038886-1.454118 0-21.89159-17.806551-39.684838-39.683814-39.684838L300.355207 353.488847c-21.878287 0-39.684838 17.793248-39.684838 39.684838 0 0.475837-0.013303 0.951675-0.039909 1.454118L233.596757 896.514467zM314.300824 637.758192c-0.237407 0-0.475837 0-0.726547 0-7.455809 0-13.193487-8.433066-12.809747-15.915481l0.529049-10.946306c0.397043-7.454786 6.385431-13.5629 14.237259-13.219069 7.455809 0.397043 13.193487 6.557346 12.809747 14.039761l-0.529049 11.659551C327.427796 630.594025 321.452711 637.758192 314.300824 637.758192zM301.293579 881.418654c-0.237407 0-0.48914 0-0.726547-0.026606-7.469112-0.397043-13.193487-6.768147-12.809747-14.222933l10.721179-203.578582c0.396019-7.455809 6.728238-13.32447 14.237259-12.796444 7.469112 0.396019 13.192464 6.768147 12.809747 14.223956L314.803267 868.595604C314.419528 875.812983 308.444443 881.418654 301.293579 881.418654zM631.314944 353.488847c-14.951527 0-27.073612-12.135388-27.073612-27.073612L604.241332 178.550559c0-18.652825-17.754363-28.117384-42.593074-28.117384l-96.607268 0c-9.834996 0-36.776601 2.023076-36.776601 28.117384l0 147.865699c0 14.938224-12.122085 27.073612-27.073612 27.073612-14.950504 0-27.073612-12.135388-27.073612-27.073612L374.117165 178.550559c0-48.436152 34.357506-82.264609 90.922802-82.264609l96.607268 0c54.780651 0 96.740298 33.062 96.740298 82.264609l0 147.865699C658.38958 341.353458 646.266471 353.488847 631.314944 353.488847z" fill="#000000"></path></svg>
