<?xml version="1.0" standalone="no"?><!DOCTYPE svg PUBLIC "-//W3C//DTD SVG 1.1//EN" "http://www.w3.org/Graphics/SVG/1.1/DTD/svg11.dtd">
<svg class="icon" style="" viewBox="0 0 1024 1024" version="1.1" xmlns="http://www.w3.org/2000/svg" p-id="5554"
     width="200" height="200"><defs><style type="text/css"></style></defs><path d="M513.022795 958.500217c-246.327198 0-446.722274-200.381773-446.722274-446.702831 0-246.314918 200.395076-446.709995 446.722274-446.709995 246.328221 0 446.723298 200.395076 446.723298 446.709995C959.746092 758.118444 759.351016 958.500217 513.022795 958.500217zM513.022795 119.559003c-216.285998 0-392.251685 175.952384-392.251685 392.238382 0 216.293161 175.965687 392.232243 392.251685 392.232243 216.287021 0 392.251685-175.939081 392.251685-392.232243C905.27448 295.511387 729.309816 119.559003 513.022795 119.559003zM503.115144 155.784042c-15.040555 0-27.235294-12.19474-27.235294-27.235294L475.879849 101.313453c0-15.040555 12.19474-27.235294 27.235294-27.235294 15.040555 0 27.235294 12.19474 27.235294 27.235294l0 27.235294C530.350438 143.589302 518.155698 155.784042 503.115144 155.784042zM503.115144 945.601442c-15.040555 0-27.235294-12.181437-27.235294-27.235294l0-27.235294c0-15.028275 12.19474-27.235294 27.235294-27.235294 15.040555 0 27.235294 12.208043 27.235294 27.235294l0 27.235294C530.350438 933.418982 518.155698 945.601442 503.115144 945.601442zM921.551188 545.627888l-40.85243 0c-15.040555 0-27.235294-12.193717-27.235294-27.235294 0-15.040555 12.19474-27.235294 27.235294-27.235294l40.85243 0c15.041578 0 27.235294 12.19474 27.235294 27.235294C948.787506 533.434172 936.593789 545.627888 921.551188 545.627888zM131.728672 545.627888l-27.221991 0c-15.040555 0-27.235294-12.193717-27.235294-27.235294 0-15.040555 12.19474-27.235294 27.235294-27.235294l27.221991 0c15.040555 0 27.235294 12.19474 27.235294 27.235294C158.963966 533.434172 146.769226 545.627888 131.728672 545.627888zM381.46041 659.211806c-3.53757 0-6.994298-1.38351-9.588379-3.948939-3.737114-3.697205-4.999874-9.215896-3.27151-14.164604l69.378114-198.225667c1.369184-3.883447 4.402263-6.942109 8.271384-8.324596l193.745632-69.378114c4.906753-1.75497 10.453073-0.545422 14.176884 3.151783 3.737114 3.697205 5.000897 9.215896 3.258207 14.162558l-19.295462 55.122435c-2.473331 7.100722-10.225899 10.892071-17.340947 8.351202-7.100722-2.473331-10.838859-10.253528-8.351202-17.340947l9.854439-28.179806-160.752194 57.555857L403.749042 623.145379l160.752194-57.56916 7.752568-22.116717c2.473331-7.073092 10.239202-10.864442 17.35425-8.335852 7.088442 2.486634 10.824533 10.253528 8.337899 17.35425l-9.894348 28.233018c-1.355881 3.869121-4.387937 6.927783-8.258081 8.31027l-193.745632 69.391417C384.558981 658.945747 383.003556 659.211806 381.46041 659.211806zM600.819396 516.65195c-1.488911 0-3.00545-0.239454-4.495384-0.771573-7.100722-2.473331-10.837836-10.253528-8.350179-17.340947l10.94426-31.251771c2.472308-7.101745 10.225899-10.877745 17.339924-8.352225 7.100722 2.473331 10.838859 10.253528 8.352225 17.340947l-10.94426 31.251771C611.710444 513.139963 606.445534 516.65195 600.819396 516.65195z" fill="#000000"></path></svg>
