<?xml version="1.0" standalone="no"?><!DOCTYPE svg PUBLIC "-//W3C//DTD SVG 1.1//EN" "http://www.w3.org/Graphics/SVG/1.1/DTD/svg11.dtd">
<svg class="icon" style="" viewBox="0 0 1024 1024" version="1.1" xmlns="http://www.w3.org/2000/svg" p-id="5554"
     width="200" height="200"><defs><style type="text/css"></style></defs><path d="M511.097956 755.560178c-93.264127 0-169.139212-75.874061-169.139212-169.139212L341.958744 234.611365c0-93.264127 75.875085-169.139212 169.139212-169.139212 93.26515 0 169.139212 75.875085 169.139212 169.139212l0 351.809601C680.237167 679.685094 604.363106 755.560178 511.097956 755.560178zM511.097956 119.596865c-63.427588 0-115.015523 51.600215-115.015523 115.0145l0 351.809601c0 63.415308 51.587935 115.015523 115.015523 115.015523 63.413262 0 115.015523-51.601238 115.015523-115.015523L626.113479 234.611365C626.113479 171.19708 574.511217 119.596865 511.097956 119.596865zM436.675966 349.625866c-7.479345 0-13.532201-6.051833-13.532201-13.531178L423.143765 220.842781c0-36.273135 23.336498-60.652382 65.63486-60.652382l10.478655 0c7.478322 0 13.532201 6.052856 13.532201 13.531178 0 7.479345-6.053879 13.531178-13.532201 13.531178l-10.478655 0c-10.240225 0-38.571481 2.418073-38.571481 33.590026l0 115.252931C450.207144 343.574033 444.142008 349.625866 436.675966 349.625866zM436.675966 403.750577c-7.479345 0-13.532201-6.051833-13.532201-13.531178l0-13.531178c0-7.479345 6.052856-13.531178 13.532201-13.531178 7.466042 0 13.531178 6.051833 13.531178 13.531178l0 13.531178C450.207144 397.698744 444.142008 403.750577 436.675966 403.750577zM512.325923 863.810624l-2.867304 0c-159.572322 0-289.281499-135.338385-289.281499-295.545156l0-15.668865c0-14.947434 12.116969-27.064402 27.062356-27.064402 14.944364 0 27.062356 12.115945 27.062356 27.064402l0 15.668865c0 128.613216 107.179045 241.420445 235.156788 241.420445l2.867304 0c124.939547 0 235.56611-110.561072 235.56611-241.420445l0-15.668865c0-14.947434 12.119015-27.064402 27.061332-27.064402 14.945387 0 27.064402 12.115945 27.064402 27.064402l0 15.668865C802.018791 731.232097 669.269371 863.810624 512.325923 863.810624zM621.03788 958.528869 390.995577 958.528869c-14.945387 0-27.062356-12.117992-27.062356-27.061332 0-14.945387 12.116969-27.063379 27.062356-27.063379L621.03788 904.404158c14.945387 0 27.062356 12.117992 27.062356 27.063379C648.100236 946.410877 635.983267 958.528869 621.03788 958.528869zM504.331855 931.466514c-14.944364 0-27.061332-12.117992-27.061332-27.063379l0-67.655889c0-14.944364 12.116969-27.061332 27.061332-27.061332 14.945387 0 27.063379 12.117992 27.063379 27.061332l0 67.655889C531.395234 919.348522 519.277242 931.466514 504.331855 931.466514z" fill="#000000"></path></svg>
