<?xml version="1.0" standalone="no"?><!DOCTYPE svg PUBLIC "-//W3C//DTD SVG 1.1//EN" "http://www.w3.org/Graphics/SVG/1.1/DTD/svg11.dtd">
<svg class="icon" style="" viewBox="0 0 1024 1024" version="1.1" xmlns="http://www.w3.org/2000/svg" p-id="5554"
     width="200" height="200"><defs><style type="text/css"></style></defs><path d="M505.578242 675.115008c-34.127262 0-63.492056-17.715477-74.638931-46.214555-2.752694-7.077186 0.113587-15.054881 7.191796-17.821901 7.118118-2.780323 14.753005 0.73985 17.506722 7.803733 7.023974 17.996886 27.202549 28.727275 50.088792 28.727275 27.303856 0 53.585429-25.759687 53.585429-55.118342l0-49.422619c0-7.602142 1.181919-15.847943 8.769734-15.847943l46.87254 0c5.210675 0 14.450107 0 17.847483-6.984065 3.007497-6.1777 0.671289-14.839986-6.083555-23.462365L522.338974 360.175129c-14.142092-18.023492-37.376259-19.286252-51.169403-1.692548l-104.09787 139.486868c-6.848988 8.743128-9.212826 16.626679-6.379291 22.482037 2.417049 4.942569 8.958022 6.769171 17.97028 6.769171l65.647139 0c7.601118 0 13.752212 6.15007 13.752212 13.753235 0 7.601118-6.151094 13.751189-13.752212 13.751189l-65.647139 0c-19.944238 0-35.509748-7.427156-42.695405-22.213931-7.601118-15.618723-4.136204-34.622542 9.267061-51.719942l104.083543-139.1502c12.07399-15.418154 28.337395-23.624047 45.972031-23.624047 18.332531 0 36.114522 9.346879 48.805566 25.517163l104.379279 136.894833c13.403265 17.083074 16.82827 35.858696 9.06547 51.826366-7.266497 14.935154-22.791076 22.468734-42.586934 22.468734l-28.136827 0 0 37.765115C586.817498 637.280308 548.25932 675.115008 505.578242 675.115008zM437.715645 588.717266c-3.719718 0-7.158027-1.50426-9.764388-3.975545-2.618641-2.618641-3.988848-6.192026-3.988848-9.777691 0-3.706415 1.370207-7.278777 3.988848-9.763364 5.076622-5.076622 14.289448-5.076622 19.379373 0 2.619664 2.618641 4.136204 6.192026 4.136204 9.763364 0 3.585665-1.517563 7.15905-4.136204 9.629311C444.726316 587.213006 441.288007 588.717266 437.715645 588.717266zM496.794182 918.415266c-246.309802 0-446.716134-200.392006-446.716134-446.702831 0-246.323105 200.406333-446.716134 446.716134-446.716134 246.310825 0 446.702831 200.39303 446.702831 446.716134C943.498036 718.02326 743.10603 918.415266 496.794182 918.415266zM496.794182 80.007195c-215.984123 0-391.706263 175.721117-391.706263 391.706263 0 215.985146 175.721117 391.691937 391.706263 391.691937 215.985146 0 391.691937-175.706791 391.691937-391.691937C888.487142 255.728312 712.780351 80.007195 496.794182 80.007195zM828.897975 485.46567c-7.588839 0-13.752212-6.151094-13.752212-13.752212 0-143.125745-96.308463-269.409916-234.195903-307.108516-7.319709-2.001587-11.644201-9.562796-9.642614-16.894785 2.01489-7.333012 9.54847-11.617595 16.894785-9.642614 149.814074 40.961924 254.449179 178.151469 254.449179 333.646939C842.650187 479.314577 836.49807 485.46567 828.897975 485.46567zM515.341606 153.860227c-0.255827 0-0.51063 0-0.765433-0.026606-5.89629-0.322341-11.818163-0.483001-17.781992-0.483001-7.587815 0-13.752212-6.151094-13.752212-13.752212s6.164397-13.752212 13.752212-13.752212c6.459109 0 12.893658 0.188288 19.286252 0.537236 7.587815 0.403183 13.404288 6.889921 12.986779 14.477736C528.665053 148.178831 522.593777 153.860227 515.341606 153.860227z" fill="#000000"></path></svg>
