<?xml version="1.0" standalone="no"?><!DOCTYPE svg PUBLIC "-//W3C//DTD SVG 1.1//EN" "http://www.w3.org/Graphics/SVG/1.1/DTD/svg11.dtd">
<svg class="icon" style="" viewBox="0 0 1024 1024" version="1.1" xmlns="http://www.w3.org/2000/svg" p-id="5554"
     width="200" height="200"><defs><style type="text/css"></style></defs><path d="M929.80006 373.759519c0 52.616358-42.658565 95.2739-95.2739 95.2739l-689.125093 0c-52.616358 0-95.2739-42.657542-95.2739-95.2739L50.127166 138.216945c0-52.617381 42.657542-95.274924 95.2739-95.274924l689.125093 0c52.616358 0 95.2739 42.657542 95.2739 95.274924L929.80006 373.759519zM874.819864 138.216945c0-22.254863-18.039865-40.294728-40.294728-40.294728l-689.125093 0c-22.254863 0-40.294728 18.039865-40.294728 40.294728l0 235.542574c0 22.254863 18.039865 40.294728 40.294728 40.294728l689.125093 0c22.254863 0 40.294728-18.039865 40.294728-40.294728L874.819864 138.216945zM160.08551 262.860756c-7.597025 0-13.745049-6.148024-13.745049-13.745049l0-24.765033c0-35.128055 17.127076-71.449285 54.428633-71.449285l91.597161 0c7.597025 0 13.745049 6.148024 13.745049 13.745049 0 7.597025-6.148024 13.745049-13.745049 13.745049l-91.597161 0c-20.093641 0-26.939559 22.349007-26.939559 43.959188l0 24.765033C173.830559 256.712733 167.669232 262.860756 160.08551 262.860756zM149.012314 310.001403c-3.570315 0-7.154957-1.51654-9.758248-3.986801-2.617617-2.603291-3.986801-6.187933-3.986801-9.758248 0-3.570315 1.369184-7.141654 3.986801-9.758248 5.221932-5.221932 14.295588-5.087878 19.382443 0 2.603291 2.617617 4.120854 6.187933 4.120854 9.758248 0 3.570315-1.51654 7.153934-3.986801 9.624195C156.017868 308.484863 152.581606 310.001403 149.012314 310.001403zM641.157103 841.086064c0 52.618405-42.657542 95.274924-95.2739 95.274924l-400.481114 0c-52.616358 0-95.2739-42.657542-95.2739-95.274924L50.128189 605.54349c0-52.616358 42.657542-95.2739 95.2739-95.2739l400.481114 0c52.617381 0 95.2739 42.658565 95.2739 95.2739L641.157103 841.086064zM586.177931 605.54349c0-22.254863-18.040888-40.294728-40.295751-40.294728l-400.481114 0c-22.254863 0-40.294728 18.039865-40.294728 40.294728l0 235.542574c0 22.254863 18.039865 40.295751 40.294728 40.295751l400.481114 0c22.254863 0 40.295751-18.040888 40.295751-40.295751L586.177931 605.54349zM943.546132 841.086064c0 52.618405-42.658565 95.274924-95.274924 95.274924l-70.604034 0c-52.616358 0-95.2739-42.657542-95.2739-95.274924L682.393273 605.54349c0-52.616358 42.658565-95.2739 95.2739-95.2739l70.604034 0c52.617381 0 95.274924 42.658565 95.274924 95.2739L943.546132 841.086064zM888.564913 605.54349c0-22.254863-18.039865-40.294728-40.294728-40.294728l-70.604034 0c-22.254863 0-40.294728 18.039865-40.294728 40.294728l0 235.542574c0 22.254863 18.039865 40.295751 40.294728 40.295751l70.604034 0c22.254863 0 40.294728-18.040888 40.294728-40.295751L888.564913 605.54349z" fill="#000000"></path></svg>
