<?xml version="1.0" standalone="no"?><!DOCTYPE svg PUBLIC "-//W3C//DTD SVG 1.1//EN" "http://www.w3.org/Graphics/SVG/1.1/DTD/svg11.dtd">
<svg class="icon" style="" viewBox="0 0 1024 1024" version="1.1" xmlns="http://www.w3.org/2000/svg" p-id="5554"
     width="200" height="200"><defs><style type="text/css"></style></defs><path d="M331.731822 958.712041c-30.450523 0-55.56962-19.365046-91.297332-55.106062L135.090233 798.261723c-35.542494-35.530215-56.666604-62.275345-59.484789-93.836155-3.399423-38.116109 22.685675-69.928652 51.389414-98.632391l371.854123-385.399627c5.053086-5.225001 11.983939-8.214079 19.258623-8.280594 7.897877-0.106424 14.260795 2.803859 19.392676 7.936763l258.598686 258.599709c10.451026 10.450003 10.595312 27.328415 0.343831 37.963637L424.245865 902.363685C393.267317 933.342234 365.184725 958.712041 331.731822 958.712041zM518.690888 277.854239 165.646156 643.756813c-26.177196 26.177196-37.196157 43.306318-36.071543 55.860239 1.415232 15.919575 21.904892 38.405705 43.823088 60.337203L278.741957 865.298512c19.391652 19.392676 40.860617 39.23356 52.989865 39.23356 12.103666 0 34.021861-20.290115 53.862745-40.133046l353.376283-366.252545L518.690888 277.854239zM751.813343 480.607012c-6.930853 0-13.862729-2.645247-19.153222-7.936763-10.583033-10.582009-10.583033-27.725458 0-38.307468l123.33398-123.320677c14.140045-14.154371 37.817304-37.83163 38.451754-47.924499 0.621147-9.959839-25.409716-35.991726-33.955346-44.550659l-65.212234-64.286142c-16.653285-16.653285-37.116339-34.814923-47.686069-34.814923-0.025583 0-0.065492 0-0.092098 0-11.918447 0-37.448914 24.735357-48.361451 35.647895L575.806723 277.960663c-10.580986 10.582009-27.725458 10.357905-38.306444-0.225127-10.583033-10.582009-10.583033-27.830859 0-38.412868L660.835282 116.861568c28.478612-28.491914 54.615898-51.574632 86.071308-51.574632 0.25071 0 0.50142 0 0.753153 0 28.810163 0 52.487422 17.262152 85.927021 50.688449l65.212234 64.736397c71.495334 71.507614 62.738903 101.627608-4.497431 168.863942L770.967588 472.789976C765.676072 478.080469 758.745219 480.607012 751.813343 480.607012zM653.599484 289.812595c-3.532453 0-7.05058-1.348718-9.616008-3.928472-2.447748-2.433422-3.929496-5.952572-3.929496-9.616008 0-3.518127 1.481747-7.037277 4.061502-9.616008 4.868891-4.881171 13.95585-5.013177 19.101033 0 2.566452 2.579755 3.928472 6.097882 3.928472 9.616008 0 3.664459-1.362021 7.05058-3.928472 9.616008C660.635737 288.462854 657.249617 289.812595 653.599484 289.812595zM690.742429 252.748445c-3.465938 0-6.930853-1.322112-9.576099-3.968381-5.291516-5.290493-5.291516-13.861706 0-19.153222l67.050092-67.037812c5.290493-5.290493 13.862729-5.290493 19.153222 0 5.291516 5.291516 5.291516 13.862729 0 19.154245l-67.050092 67.036789C697.673282 251.42531 694.207343 252.748445 690.742429 252.748445zM690.742429 329.375659c-3.465938 0-6.930853-1.322112-9.576099-3.968381-5.291516-5.290493-5.291516-13.861706 0-19.153222l105.35756-105.35756c5.291516-5.291516 13.862729-5.291516 19.154245 0 5.290493 5.290493 5.290493 13.862729 0 19.153222L700.318528 325.407278C697.673282 328.053548 694.207343 329.375659 690.742429 329.375659zM729.063199 367.683127c-3.465938 0-6.930853-1.323135-9.577123-3.968381-5.290493-5.291516-5.290493-13.862729 0-19.153222l105.344257-105.35756c5.291516-5.290493 13.862729-5.290493 19.154245 0s5.291516 13.862729 0 19.153222L738.639299 363.714745C735.994052 366.359992 732.529137 367.683127 729.063199 367.683127z" fill="#000000"></path></svg>
