<?xml version="1.0" standalone="no"?><!DOCTYPE svg PUBLIC "-//W3C//DTD SVG 1.1//EN" "http://www.w3.org/Graphics/SVG/1.1/DTD/svg11.dtd">
<svg class="icon" style="" viewBox="0 0 1024 1024" version="1.1" xmlns="http://www.w3.org/2000/svg" p-id="5554"
     width="200" height="200"><defs><style type="text/css"></style></defs><path d="M674.632519 600.429005 674.618193 600.429005c-7.303336 0-14.300704 1.342578-19.455097-3.839445L428.228573 371.187951c-10.715039-10.741645-10.701736-27.069519 0.026606-37.797861L666.18615 95.984075c20.168342-20.167319 48.607044-31.473829 78.012771-31.473829 27.981285 0 53.707203 10.460236 72.424496 29.17753L930.634054 207.764927c19.228947 19.21462 30.667463 47.142693 31.380708 76.561723 0.737804 30.144554-9.937326 58.542324-29.286 77.890998L694.075337 596.616166C688.918897 601.772606 681.923576 600.429005 674.632519 600.429005zM486.570329 353.920682 674.658102 542.519084l219.185025-219.159442c8.756431-8.754385 13.5629-22.490224 13.187347-37.662785-0.363274-15.213493-6.083555-29.782304-15.282055-38.97978L777.739828 132.707464c-8.337899-8.337899-20.24816-12.930497-33.540907-12.930497-14.932084 0-29.191856 5.706979-39.127136 15.628956L486.570329 353.920682zM590.940398 332.275709c-3.53143 0-7.062859-1.342578-9.749038-4.042059-5.355985-5.384637-5.342682-14.084787 0.039909-19.442818l5.318122-5.28947c5.355985-5.384637 14.072507-5.357008 19.442818 0.026606 5.355985 5.384637 5.344728 14.08581-0.039909 19.442818l-5.318122 5.290493C597.962326 330.946434 594.444199 332.275709 590.940398 332.275709zM623.31269 299.903417c-3.518127 0-7.03523-1.342578-9.721409-4.028757-5.370311-5.371334-5.370311-14.071484 0-19.442818l89.692788-89.693812c21.161972-21.161972 56.273654-21.806655 76.68452-1.38351l58.488089 58.489112c5.370311 5.371334 5.370311 14.071484 0 19.442818s-14.072507 5.371334-19.442818 0l-58.488089-58.489112c-9.519818-9.506515-27.539216-8.848529-37.798884 1.38351l-89.692788 89.693812C630.34792 298.559816 626.830817 299.903417 623.31269 299.903417zM585.783958 957.923072 585.783958 957.923072c-7.305383 0-14.286378-2.902096-19.457144-8.05649-27.605731-27.607778-66.532299-66.840314-111.646799-112.331391C339.018785 720.931496 180.631452 561.249681 70.259692 453.778994c-5.27719-5.129834-8.271384-12.151761-8.311293-19.509333-0.054235-7.357572 2.846838-14.433734 8.05649-19.631106 105.72595-105.752556 264.180821-139.374304 403.715785-85.651752 14.165628 5.451152 21.227464 21.36254 15.776312 35.541471-5.451152 14.152325-21.36254 21.228487-35.541471 15.776312-110.505813-42.564421-234.96236-20.973684-324.535421 54.380538 109.136629 106.866936 255.57277 254.498298 364.30724 364.097462 34.938744 35.234479 66.156746 66.707284 91.266633 91.923596 72.922846-86.177731 95.748714-203.160049 59.293431-311.666322-4.835122-14.393825 2.914376-29.981848 17.308201-34.815947 14.380522-4.859681 29.981848 2.90005 34.830273 17.308201 46.094828 137.198755 11.156084 285.992593-91.198072 388.334469C600.070336 955.020976 593.075015 957.923072 585.783958 957.923072zM99.893616 941.164387c-7.102768 0-14.193257-2.738367-19.576871-8.190543-10.660804-10.822486-10.540054-28.222785 0.26913-38.883589l236.224096-232.902444c10.809183-10.67513 28.210505-10.541077 38.898939 0.268106 10.660804 10.822486 10.540054 28.224832-0.281409 38.885636L119.201357 933.243997C113.84435 938.533466 106.875634 941.164387 99.893616 941.164387z" fill="#000000"></path></svg>
