<?xml version="1.0" standalone="no"?><!DOCTYPE svg PUBLIC "-//W3C//DTD SVG 1.1//EN" "http://www.w3.org/Graphics/SVG/1.1/DTD/svg11.dtd">
<svg class="icon" style="" viewBox="0 0 1024 1024" version="1.1" xmlns="http://www.w3.org/2000/svg" p-id="5554"
     width="200" height="200"><defs><style type="text/css"></style></defs><path d="M506.838955 950.072267c-224.547149 0-407.230841-182.681646-407.230841-407.212422 0-224.532823 182.683692-407.216515 407.230841-407.216515 224.534869 0 407.218562 182.683692 407.218562 407.216515C914.057517 767.389598 731.373825 950.072267 506.838955 950.072267zM506.838955 190.254112c-194.428178 0-352.62006 158.177556-352.62006 352.605733 0 194.424084 158.191882 352.602663 352.62006 352.602663 194.430224 0 352.60778-158.178579 352.60778-352.602663C859.446735 348.431667 701.269179 190.254112 506.838955 190.254112zM362.313328 811.974026c-2.279926 0-4.599761-0.559748-6.719028-1.76111C259.452635 755.683998 199.735555 653.229558 199.735555 542.859845c0-7.544837 6.106068-13.650905 13.652951-13.650905 7.54586 0 13.651928 6.106068 13.651928 13.650905 0 100.556207 54.42454 193.890942 142.019551 243.594971 6.559393 3.705392 8.865925 12.051477 5.146207 18.611893C371.686812 809.493531 367.073748 811.974026 362.313328 811.974026zM480.094848 848.771093c-0.413416 0-0.813528-0.025583-1.240247-0.052189-5.906523-0.533143-11.746532-1.226944-17.532305-2.106987-7.466042-1.121544-12.598946-8.054443-11.492752-15.519462 1.119497-7.440459 8.052396-12.505825 15.519462-11.491729 5.28026 0.799202 10.586103 1.438769 15.959483 1.918699 7.505951 0.667196 13.038968 7.30743 12.372795 14.82566C493.040694 843.438645 487.080959 848.771093 480.094848 848.771093zM172.683433 359.111914c-5.039783 0-10.146081-1.38658-14.705933-4.306072-45.358047-29.064966-72.436776-78.541821-72.436776-132.380006 0-86.648452 70.502727-157.137877 157.152203-157.137877 63.302745 0 120.126938 37.664831 144.778384 95.941096 5.879917 13.892405-0.613984 29.918403-14.506389 35.785018-13.932314 5.866614-29.918403-0.626263-35.785018-14.505365-16.092513-38.038338-53.184293-62.609966-94.488001-62.609966-56.543807 0-102.541421 45.997614-102.541421 102.527095 0 35.132148 17.678638 67.423599 47.291073 86.382393 12.692067 8.133238 16.398482 25.024953 8.266267 37.731346C190.496124 354.671789 181.683411 359.111914 172.683433 359.111914zM851.314521 359.111914c-8.999978 0-17.811668-4.440126-23.025413-12.573363-8.133238-12.706393-4.425799-29.598108 8.266267-37.731346 29.612435-18.958794 47.291073-51.250244 47.291073-86.382393 0-56.530504-45.997614-102.527095-102.541421-102.527095-41.304731 0-78.395488 24.571628-94.488001 62.609966-5.866614 13.879102-21.87931 20.385283-35.785018 14.505365-13.892405-5.866614-20.386306-21.892613-14.506389-35.785018 24.65247-58.277288 81.47564-95.941096 144.778384-95.941096 86.648452 0 157.15118 70.489424 157.15118 157.137877 0 53.837162-27.078729 103.314017-72.435753 132.380006C861.460602 357.725334 856.355327 359.111914 851.314521 359.111914zM219.04125 958.712041c-5.773494 0-11.599176-1.840928-16.545838-5.626137-11.985986-9.146311-14.279215-26.291806-5.119601-38.264489l59.810201-78.262458c9.146311-12.000312 26.2652-14.320147 38.264489-5.120624 11.985986 9.146311 14.279215 26.291806 5.119601 38.264489l-59.810201 78.262458C235.387543 955.004603 227.267609 958.712041 219.04125 958.712041zM785.517979 958.712041c-8.225335 0-16.346293-3.707438-21.718651-10.746762l-59.810201-78.262458c-9.159614-11.971659-6.866385-29.118178 5.119601-38.264489 11.985986-9.199523 29.104875-6.879688 38.264489 5.120624l59.811224 78.262458c9.15859 11.971659 6.865361 29.118178-5.120624 38.264489C797.117155 956.871113 791.291472 958.712041 785.517979 958.712041zM584.328817 655.387711c-7.040347 0-14.066367-2.706645-19.413142-8.106632l-73.649394-78.634942c-5.066389-5.106298-3.77293-12.013615-3.77293-19.199271L487.493352 333.539492c0-15.07944 12.226462-27.304879 27.305903-27.304879s27.305903 12.225439 27.305903 27.304879l0 204.681706 65.768913 70.662363c10.586103 10.721179 8.439206 28.013007-2.279926 38.611389C600.260671 652.761907 591.261717 655.387711 584.328817 655.387711z" fill="#000000"></path></svg>
