<?xml version="1.0" standalone="no"?><!DOCTYPE svg PUBLIC "-//W3C//DTD SVG 1.1//EN" "http://www.w3.org/Graphics/SVG/1.1/DTD/svg11.dtd">
<svg class="icon" style="" viewBox="0 0 1024 1024" version="1.1" xmlns="http://www.w3.org/2000/svg" p-id="5554"
     width="200" height="200"><defs><style type="text/css"></style></defs><path d="M493.95246 918.415266c-109.963461 0-199.431122-89.467661-199.431122-199.444425 0-109.963461 89.467661-199.431122 199.431122-199.431122 109.963461 0 199.431122 89.467661 199.431122 199.431122C693.383582 828.948629 603.915921 918.415266 493.95246 918.415266zM493.95246 575.36005c-79.19162 0-143.610792 64.418148-143.610792 143.610792s64.419172 143.625118 143.610792 143.625118 143.610792-64.432475 143.610792-143.625118S573.14408 575.36005 493.95246 575.36005zM413.64339 686.250626c-2.385327 0-4.797259-0.613984-7.004531-1.895163-6.66377-3.88447-8.912997-12.429077-5.042853-19.079544 19.079544-32.775474 54.470589-53.121871 92.356454-53.121871 7.713682 0 13.954827 6.242168 13.954827 13.954827 0 7.713682-6.242168 13.95585-13.954827 13.95585-27.991518 0-54.129828 15.044648-68.235081 39.247886C423.128415 683.771155 418.452929 686.250626 413.64339 686.250626zM404.184971 756.856707c-6.173606 0-11.82942-4.129041-13.477966-10.384511-2.371-8.968256-3.570315-18.22099-3.570315-27.501354 0-7.712659 6.242168-13.954827 13.954827-13.954827s13.954827 6.242168 13.954827 13.954827c0 6.868431 0.886183 13.722536 2.6432 20.3597 1.976004 7.454786-2.480494 15.099906-9.920954 17.062608C406.570297 756.707304 405.370982 756.856707 404.184971 756.856707zM664.791383 472.578152c-5.042853 0-10.152221-1.363044-14.759145-4.238534-46.715975-29.17753-100.68412-44.590568-156.080801-44.590568-54.729485 0-108.151185 15.072277-154.499793 43.581588-13.110599 8.081049-30.321586 3.979638-38.389332-9.144264-8.081049-13.123902-3.992941-30.321586 9.144264-38.390355 55.152111-33.933857 118.6851-51.868321 183.744861-51.868321 65.849754 0 130.050961 18.342764 185.652304 53.066613 13.068643 8.163937 17.048281 25.374924 8.886391 38.457894C683.202709 467.931319 674.099377 472.578152 664.791383 472.578152zM757.761821 328.449567c-5.096065 0-10.249435-1.38965-14.881942-4.320399-74.395384-47.003524-160.483064-71.846328-248.940722-71.846328-84.955904 0-168.100556 23.044856-240.464677 66.64077-13.219069 7.91732-30.362518 3.693112-38.308491-9.498328-7.959276-13.205766-3.707438-30.349215 9.498328-38.308491 81.058131-48.842405 174.164668-74.653257 269.273816-74.653257 99.033527 0 195.423855 27.827789 278.758842 80.486102 13.027711 8.231475 16.926508 25.471115 8.680706 38.498826C776.076956 323.856969 767.015579 328.449567 757.761821 328.449567zM839.938426 177.629583c-4.946662 0-9.961886-1.308809-14.485923-4.074805-99.593276-60.671825-214.231199-92.738148-331.526649-92.738148-115.306142 0-228.26789 31.071669-326.688457 89.862657-13.232372 7.91732-30.376844 3.570315-38.267559-9.648754-7.904017-13.233396-3.584642-30.363542 9.648754-38.267559C245.678934 58.807361 368.548332 24.996301 493.924831 24.996301c127.542838 0 252.211209 34.887578 360.552729 100.887758 13.164834 8.013511 17.334807 25.197892 9.321296 38.349423C858.539063 172.873256 849.354889 177.629583 839.938426 177.629583z" fill="#000000"></path></svg>
