<?xml version="1.0" standalone="no"?><!DOCTYPE svg PUBLIC "-//W3C//DTD SVG 1.1//EN" "http://www.w3.org/Graphics/SVG/1.1/DTD/svg11.dtd">
<svg class="icon" style="" viewBox="0 0 1024 1024" version="1.1" xmlns="http://www.w3.org/2000/svg" p-id="5554"
     width="200" height="200"><defs><style type="text/css"></style></defs><path d="M173.019077 814.470893c-67.786873 0-122.938983-55.152111-122.938983-122.940007 0-67.799152 55.152111-122.964566 122.938983-122.964566 67.812455 0 122.964566 55.165414 122.964566 122.964566C295.983643 759.318782 240.830509 814.470893 173.019077 814.470893zM173.019077 620.368126c-39.23049 0-71.1382 31.91999-71.1382 71.16276 0 39.231513 31.907711 71.139224 71.1382 71.139224 39.242769 0 71.16276-31.907711 71.16276-71.139224C244.181837 652.28914 212.261846 620.368126 173.019077 620.368126zM367.273293 477.763245c-67.786873 0-122.938983-55.152111-122.938983-122.938983 0-67.799152 55.152111-122.964566 122.938983-122.964566 67.812455 0 122.964566 55.165414 122.964566 122.964566C490.237859 422.611134 435.084725 477.763245 367.273293 477.763245zM367.273293 283.660478c-39.229466 0-71.1382 31.921014-71.1382 71.163783 0 39.23049 31.907711 71.1382 71.1382 71.1382 39.242769 0 71.163783-31.907711 71.163783-71.1382C438.437076 315.581492 406.516062 283.660478 367.273293 283.660478zM678.080038 788.571013c-67.785849 0-122.938983-55.152111-122.938983-122.940007 0-67.799152 55.152111-122.964566 122.938983-122.964566 67.812455 0 122.964566 55.165414 122.964566 122.964566C801.044604 733.417879 745.89147 788.571013 678.080038 788.571013zM678.080038 594.467223c-39.229466 0-71.1382 31.91999-71.1382 71.163783 0 39.23049 31.908734 71.1382 71.1382 71.1382 39.243793 0 71.163783-31.907711 71.163783-71.1382C749.243821 626.387213 717.322807 594.467223 678.080038 594.467223zM820.53347 374.160655c-67.785849 0-122.938983-55.152111-122.938983-122.940007 0-67.799152 55.152111-122.964566 122.938983-122.964566 67.812455 0 122.964566 55.165414 122.964566 122.964566C943.498036 319.008544 888.344902 374.160655 820.53347 374.160655zM820.53347 180.057889c-39.229466 0-71.1382 31.91999-71.1382 71.16276 0 39.23049 31.908734 71.1382 71.1382 71.1382 39.243793 0 71.163783-31.907711 71.163783-71.1382C891.697253 211.978902 859.77624 180.057889 820.53347 180.057889zM790.839171 248.566192c-2.479471 0-4.982478-0.708128-7.195889-2.187829-5.944386-3.983731-7.525394-12.026918-3.540639-17.971303 11.962449-17.844413 31.91999-28.505217 53.381791-28.505217 7.157004 0 12.948917 5.791913 12.948917 12.94994s-5.791913 12.94994-12.948917 12.94994c-12.811794 0-24.725124 6.360871-31.870872 17.022699C799.109532 246.555395 795.012214 248.566192 790.839171 248.566192zM261.242398 630.358665 214.322785 608.404654 298.120306 429.439656 345.039919 451.39469ZM466.635545 390.603959l172.902743 178.67114-37.218895 36.017283-172.902743-178.67114 37.218895-36.017283ZM740.391199 584.718185 691.46079 567.719023 766.392386 351.978447 815.322795 368.975563Z" fill="#000000"></path></svg>
