<?xml version="1.0" standalone="no"?><!DOCTYPE svg PUBLIC "-//W3C//DTD SVG 1.1//EN" "http://www.w3.org/Graphics/SVG/1.1/DTD/svg11.dtd">
<svg class="icon" style="" viewBox="0 0 1024 1024" version="1.1" xmlns="http://www.w3.org/2000/svg" p-id="5554"
     width="200" height="200"><defs><style type="text/css"></style></defs><path d="M284.67611 957.221084c-43.566238 0-84.501556-16.946974-115.27442-47.745421l-56.359612-56.33403c-30.798447-30.79947-47.745421-71.733765-47.745421-115.273397 0-43.566238 16.946974-84.502579 47.745421-115.273397L624.075053 111.553679c30.79947-30.785144 71.733765-47.745421 115.273397-47.745421s84.476997 16.959254 115.273397 47.745421l56.336076 56.360635c30.797423 30.785144 47.743374 71.714322 47.743374 115.253954s-16.946974 84.475973-47.743374 115.27442L399.924947 909.475664C369.152083 940.275133 328.216765 957.221084 284.67611 957.221084zM739.349473 116.635417c-29.430286 0-57.107649 11.465123-77.92272 32.267914l-511.033999 511.039115c-20.816095 20.816095-32.268938 48.466851-32.268938 77.924767 0 29.430286 11.452843 57.107649 32.268938 77.92272l56.360635 56.336076c20.816095 20.816095 48.466851 32.267914 77.923744 32.267914 29.43131 0 57.082066-11.45182 77.898161-32.267914l511.033999-511.033999c20.816095-20.816095 32.267914-48.493457 32.267914-77.923744s-11.45182-57.082066-32.267914-77.904301l-56.33403-56.360635C796.458145 128.10054 768.780783 116.635417 739.349473 116.635417zM696.506712 493.081115c-3.405563 0-6.810103-1.315972-9.389858-3.920286L545.144376 345.538781c-5.132904-5.184069-5.080715-13.568017 0.104377-18.675338 5.210675-5.15951 13.568017-5.107321 18.675338 0.103354l141.970432 143.622048c5.133927 5.184069 5.081739 13.541411-0.103354 18.675338C703.211415 491.817332 699.859064 493.081115 696.506712 493.081115zM471.993333 717.593472c-3.40454 0-6.810103-1.314948-9.388834-3.921309l-141.970432-143.621025c-5.132904-5.184069-5.081739-13.56904 0.103354-18.675338 5.210675-5.158487 13.568017-5.108345 18.675338 0.102331l141.971455 143.623072c5.132904 5.184069 5.081739 13.542434-0.103354 18.675338C478.700081 716.330712 475.346707 717.593472 471.993333 717.593472zM526.470061 611.116415c0 9.56996-7.763824 17.33276-17.333784 17.33276-9.56996 0-17.33276-7.762801-17.33276-17.33276s7.762801-17.333784 17.33276-17.333784C518.70726 593.781608 526.470061 601.546456 526.470061 611.116415zM618.916567 505.461073c0 9.572006-7.764847 17.333784-17.333784 17.333784s-17.33276-7.762801-17.33276-17.333784c0-9.568936 7.763824-17.33276 17.33276-17.33276S618.916567 495.892137 618.916567 505.461073zM434.024579 518.668886c0 9.56996-7.763824 17.333784-17.33276 17.333784-9.56996 0-17.333784-7.764847-17.333784-17.333784s7.763824-17.33276 17.333784-17.33276C426.260755 501.336126 434.024579 509.098927 434.024579 518.668886zM526.470061 413.016615c0 9.56996-7.763824 17.333784-17.333784 17.333784-9.56996 0-17.33276-7.763824-17.33276-17.333784 0-9.56996 7.762801-17.333784 17.33276-17.333784C518.70726 395.682831 526.470061 403.446655 526.470061 413.016615z" fill="#000000"></path></svg>
