<?xml version="1.0" standalone="no"?><!DOCTYPE svg PUBLIC "-//W3C//DTD SVG 1.1//EN" "http://www.w3.org/Graphics/SVG/1.1/DTD/svg11.dtd">
<svg t="1531797974657" class="icon" style="" viewBox="0 0 1024 1024" version="1.1" xmlns="http://www.w3.org/2000/svg"
     p-id="5946"
     width="200" height="200"><defs><style type="text/css"></style></defs><path d="M736.885863 828.435441L736.885863 165.140643c0-63.453171 51.621704-115.061572 115.061572-115.061572 63.439868 0 115.061572 51.60840201 115.061572 115.061572l0 663.294798c0 63.440891-51.621704 115.061572-115.061572 115.061572C788.507568 943.498036 736.885863 891.876332 736.885863 828.435441zM912.862807 165.140643c0-33.59002599-27.324322-60.914348-60.915371-60.914348-33.59002599 0-60.914348 27.324322-60.914348 60.914348l0 663.294798c0 33.59104901 27.324322 60.915371 60.914348 60.915371 33.59104901 0 60.915371-27.324322 60.915371-60.91537101L912.862807 165.140643z" p-id="5947"></path><path d="M100.663654 828.43544099L100.663654 165.140643c0-63.453171 51.620681-115.061572 115.061572-115.061572 63.438844 0 115.060549 51.60840201 115.060549 115.061572l0 663.29479799c0 63.440891-51.621704 115.061572-115.060549 115.061572C152.284335 943.49803599 100.663654 891.87633199 100.663654 828.43544099zM276.640598 165.140643c0-33.59002599-27.325345-60.914348-60.914348-60.914348-33.59104901 0-60.915371 27.324322-60.915371 60.914348l0 663.29479799c0 33.59104901 27.324322 60.915371 60.915371 60.91537101 33.58900299 0 60.914348-27.324322 60.914348-60.915371L276.640598 165.140643z" p-id="5948"></path><path d="M412.006612 828.435441L412.006612 165.140643c0-63.453171 51.620681-115.061572 115.061572-115.061572 63.439868 0 115.061572 51.60840201 115.061572 115.061572l0 663.294798c0 63.440891-51.621704 115.061572-115.061572 115.061572C463.627293 943.498036 412.006612 891.876332 412.006612 828.435441zM587.982532 165.140643c0-33.59002599-27.324322-60.914348-60.914348-60.914348-33.59104901 0-60.915371 27.324322-60.915371 60.914348l0 663.29479799c0 33.59104901 27.324322 60.915371 60.915371 60.91537101 33.59002599 0 60.914348-27.324322 60.914348-60.915371L587.982532 165.140643z" p-id="5949"></path></svg>
