<?xml version="1.0" standalone="no"?><!DOCTYPE svg PUBLIC "-//W3C//DTD SVG 1.1//EN" "http://www.w3.org/Graphics/SVG/1.1/DTD/svg11.dtd">
<svg class="icon" style="" viewBox="0 0 1024 1024" version="1.1" xmlns="http://www.w3.org/2000/svg" p-id="5554"
     width="200" height="200"><defs><style type="text/css"></style></defs><path d="M943.09383 451.009927c0 51.913347-42.086537 94.000907-93.999884 94.000907L725.189985 545.010835c-51.91437 0-94.001931-42.087561-94.001931-94.000907L631.188054 150.810774c0-51.913347 42.087561-94.000907 94.001931-94.000907l123.903961 0c51.913347 0 93.999884 42.087561 93.999884 94.000907L943.09383 451.009927zM888.849392 150.810774c0-21.958104-17.799388-39.756469-39.756469-39.756469L725.189985 111.054305c-21.958104 0-39.757492 17.799388-39.757492 39.756469l0 300.199153c0 21.958104 17.799388 39.756469 39.757492 39.756469l123.903961 0c21.957081 0 39.756469-17.799388 39.756469-39.756469L888.850415 150.810774zM821.045123 182.249811c0 13.110599-10.621918 23.731494-23.731494 23.731494l-6.78145 0c-13.110599 0-23.731494-10.620895-23.731494-23.731494l0-6.780427c0-13.110599 10.620895-23.731494 23.731494-23.731494l6.78145 0c13.110599 0 23.731494 10.620895 23.731494 23.731494L821.045123 182.249811zM396.490731 885.788172c-16.977673 0-32.644491-4.702092-46.563502-13.95892-37.71702-25.083282-79.94989-64.270792-71.64576-145.319713 2.596128-25.559119 13.295817-49.542346 23.626094-72.731488 6.807033-15.243169 13.217023-29.652344 16.819061-43.265386 0.727571-2.768043 0.807389-10.277064 0.847298-16.567327-29.572526-2.555196-59.343573-4.807493-86.12145-4.807493-16.885576 0-30.618345 0.13303-41.717124 0.251733-14.34266 0.146333-24.327058 0.23843-31.320333-0.025583-5.389754-0.025583-9.866718-0.277316-14.329357-0.861624-29.399587-3.919263-55.529711-19.070334-73.553203-42.62889-18.024515-23.573905-25.78527-52.748365-21.864984-82.162278 3.800559-28.618804 18.698874-54.615898 41.23924-72.427566-9.93221-18.262946-13.879102-39.292911-11.111059-60.018955 3.243881-24.116257 14.832823-45.569872 32.936133-61.289901-0.013303-0.358157-0.026606-0.688685-0.053212-0.99363-6.158257-14.316054-8.316409-29.969569-6.263657-45.437865 3.006474-22.566972 14.394848-42.444694 31.850405-56.243979-4.979408-11.759835-6.767124-24.738427-5.058203-37.465287 3.628644-27.122731 22.248723-49.821709 47.821145-58.614979 15.878642-8.064676 35.504632-9.746992 61.528332-9.746992 8.753361 0 18.526959 0.185218 29.466102 0.397043 13.482059 0.251733 28.79072 0.543376 46.153156 0.543376 21.61325 0 41.756009-0.662079 61.249993-1.310855 17.256012-0.555655 33.4396-1.085728 48.53746-1.085728 65.686025 0 137.01456 8.568143 161.594375 110.858854 0.503467 2.066055-0.052189 4.198625-0.052189 6.330172l0 342.803483c0 0.794086 0.76748 1.589195 0.701988 2.371l-0.781806 13.560854c-0.158612 1.827625-0.303922 3.615341-0.821715 5.376451-7.429203 24.951275-34.789341 69.595055-63.845097 116.847242-23.030529 37.464263-46.789653 76.214822-54.602595 95.933933-13.230326 33.466206-13.242606 78.56024-12.143575 93.099375 0.780783 10.224876-4.264117 20.010753-13.045107 25.295106C443.703009 873.855398 423.109995 885.788172 396.490731 885.788172zM233.452471 534.892383c34.472116 0 72.057129 3.337002 108.409059 6.5553l8.250918 0.728594c7.270591 0.635473 13.9712 4.185322 18.606777 9.826809 4.622274 5.65479 6.767124 12.926404 5.959735 20.183691-0.754177 6.845918-0.807389 14.236236-0.847298 21.3871-0.079818 10.952446-0.145309 21.281699-2.661619 30.791284-4.714372 17.851577-12.343119 34.96228-19.720134 51.503001-8.991792 20.169365-17.48114 39.239699-19.215644 56.164161-5.562692 54.338582 20.527522 76.547397 47.729048 94.637404 7.124258 4.740978 16.435321 5.641487 24.446785 4.065596 0.171915-23.267936 2.807952-62.323441 16.368806-96.596012 9.54847-24.142863 33.505092-63.117526 58.880015-104.383372 22.566972-36.71111 49.63649-82.056877 56.588833-101.629655l0.013303-9.31004L536.261055 180.515307c-13.560854-56.960293-43.636846-66.25703-108.105137-66.25703-14.541181 0-29.731138 0.51677-46.364981 1.060145-19.917632 0.662079-40.298821 1.337461-62.812581 1.337461-17.758456 0-33.30657-0.291642-47.093575-0.556679-10.55438-0.198521-19.930935-0.38374-28.380374-0.38374-8.277524 0-30.234605 0-37.359886 4.092201-1.827625 1.045819-3.76065 1.879813-5.774517 2.476401-6.700609 1.986237-11.44261 7.628748-12.395308 14.739702-0.675382 5.072529 0.927115 9.005095 2.409886 11.416004 5.866614 9.54847 7.482415 22.539342 4.330632 34.710546-2.75474 10.55438-8.899694 18.977213-17.349133 23.719214-8.939603 5.019317-14.832823 13.707187-16.183588 23.837918-0.780783 5.919826 0.093121 11.932774 2.542916 17.349133 6.184863 13.58746 7.774057 46.390563-11.336186 60.415998-9.878998 7.230682-16.196891 17.86488-17.824971 29.982872-1.403976 10.475586 1.045819 21.176298 6.900154 30.088272 11.906168 18.23634 5.363148 50.575886-12.713556 62.945611-13.349029 9.098215-22.195511 23.440875-24.314779 39.385009-2.012843 15.057951 1.960655 29.982872 11.190877 42.047652 9.216919 12.051477 22.592554 17.958 37.650505 19.970844 2.436492 0.331551 4.847401-1.442862 7.230682-1.442862 0.330528 0 1.589195 0 1.919722 0 6.343475 0 15.758915 1.986237 28.764114 1.854231C202.422757 533.197788 216.341768 534.892383 233.452471 534.892383zM318.990636 177.588651c-4.423753 0-17.86488 0-18.129916-13.323447-0.039909-1.919722 0.397043-3.76065 1.217734-5.429663 1.973958-5.204535 7.178493-8.357342 12.925381-8.741082 1.549286 0.026606 2.939959 0.158612 4.210905 0.370437 7.390317 0.118704 13.335726 6.144954 13.335726 13.560854C332.55149 171.522492 326.486354 177.588651 318.990636 177.588651zM490.941893 205.200522c-3.787256 0-7.562233-1.575892-10.237155-4.674463-26.777877-30.830169-53.939493-28.936029-103.245456-25.480324-6.250354 0.436952-12.752442 0.887206-19.560498 1.284249-7.323802 0.51677-13.892405-5.27105-14.329357-12.740162-0.450255-7.469112 5.257747-13.892405 12.740162-14.329357 6.687306-0.397043 13.097296-0.847298 19.255553-1.27197 50.285267-3.52222 89.961918-6.303566 125.612882 34.763758 4.913916 5.65479 4.304026 14.20963-1.349741 19.123546C497.272066 204.114794 494.093676 205.200522 490.941893 205.200522z" fill="#000000"></path></svg>
