<?xml version="1.0" standalone="no"?><!DOCTYPE svg PUBLIC "-//W3C//DTD SVG 1.1//EN" "http://www.w3.org/Graphics/SVG/1.1/DTD/svg11.dtd">
<svg class="icon" style="" viewBox="0 0 1024 1024" version="1.1" xmlns="http://www.w3.org/2000/svg" p-id="5554"
     width="200" height="200"><defs><style type="text/css"></style></defs><path d="M512.523421 920.297127c-218.264049 0-395.836327-177.571255-395.836327-395.828141 0-218.250746 177.571255-395.809721 395.836327-395.809721 218.250746 0 395.808698 177.558975 395.808698 395.809721C908.332119 742.725872 730.774167 920.297127 512.523421 920.297127zM512.523421 182.218088c-188.738595 0-342.276481 153.537885-342.276481 342.250898 0 188.732455 153.537885 342.270341 342.276481 342.270341 188.711989 0 342.249875-153.537885 342.249875-342.270341C854.773296 335.755973 701.23541 182.218088 512.523421 182.218088zM512.510118 697.03832c-95.154173 0-172.564217-77.415161-172.564217-172.570357 0-95.14087 77.410044-172.550914 172.564217-172.550914 95.15315 0 172.549891 77.410044 172.549891 172.550914C685.060009 619.623159 607.663268 697.03832 512.510118 697.03832zM512.510118 378.697995c-80.378655 0-145.784294 65.392336-145.784294 145.770991 0 80.391958 65.406662 145.791457 145.784294 145.791457s145.770991-65.399499 145.770991-145.791457C658.281109 444.090331 592.888773 378.697995 512.510118 378.697995zM752.062006 957.042006c-49.38885 0-97.181343-17.678638-134.591371-49.793056-11.218506-9.650801-12.500709-26.543539-2.863211-37.764092 9.623171-11.244089 26.53126-12.525268 37.763069-2.877537 27.695782 23.772426 63.104223 36.874839 99.691513 36.874839 84.417645 0 153.09377-68.675102 153.09377-153.092747 0-39.803541-15.207353-77.538981-42.824341-106.209974-10.265808-10.657734-9.93835-27.615964 0.718361-37.868469 10.643408-10.264784 27.591405-9.93835 37.854143 0.706081 37.280068 38.717813 57.809637 89.629343 57.809637 143.371338C958.7146 864.333534 866.018408 957.042006 752.062006 957.042006zM270.263865 953.223027c-113.944122 0-206.652594-92.708472-206.652594-206.652594 0-49.400107 17.691941-97.187483 49.819662-134.584208 9.636474-11.218506 26.53126-12.501732 37.776372-2.850931 11.206226 9.637498 12.488429 26.544563 2.850931 37.763069-23.784706 27.676339-36.887119 63.085804-36.887119 99.671047 0 84.418668 68.675102 153.09377 153.09377 153.09377 39.829124 0 77.553307-15.219633 106.229416-42.837644 10.644431-10.251481 27.603685-9.936303 37.867446 0.706081 10.264784 10.671037 9.937326 27.616988-0.719384 37.868469C374.936833 932.692435 324.019163 953.223027 270.263865 953.223027zM140.707161 432.256818c-7.021927 0-14.042831-2.745531-19.300578-8.212032-37.265742-38.70451-57.795311-89.62218-57.795311-143.365198 0-113.944122 92.708472-206.652594 206.652594-206.652594 56.945967 0 109.327988 21.48329 151.498436 62.137199 10.643408 10.264784 10.957563 27.210735 0.692778 37.855166-10.264784 10.656711-27.224038 10.983145-37.867446 0.692778-32.441876-31.265074-70.898747-47.125297-114.323768-47.125297-84.418668 0-153.09377 68.675102-153.09377 153.092747 0 39.816844 15.207353 77.541027 42.824341 106.229416 10.263761 10.644431 9.937326 27.604708-0.720408 37.85619C154.083819 429.773254 147.38935 432.256818 140.707161 432.256818zM874.334817 414.198533c-6.17156 0-12.383028-2.118244-17.428951-6.459109-11.220552-9.637498-12.500709-26.544563-2.863211-37.764092 23.783683-27.708062 36.885072-63.104223 36.885072-99.67821 0-84.418668-68.674079-153.107073-153.091724-153.107073-39.619346 0-78.56024 18.685571-104.163361 49.975205-9.375531 11.441587-26.257014 13.102413-37.685297 3.76679-11.453866-9.375531-13.127995-26.243711-3.76679-37.685297 35.672454-43.595914 90.107227-69.616544 145.615449-69.616544 113.944122 0 206.65157 92.708472 206.65157 206.665897 0 49.374524-17.691941 97.154737-49.818639 134.564765C889.372302 411.034471 881.879654 414.198533 874.334817 414.198533zM880.743784 447.280999 760.233106 447.280999c-7.399527 0-13.388938-5.988388-13.388938-13.389962 0-7.40055 5.989411-13.389962 13.388938-13.389962l120.510678 0c7.387247 0 13.388938 5.989411 13.388938 13.389962C894.132722 441.292612 888.130008 447.280999 880.743784 447.280999zM706.674283 447.280999l-53.558823 0c-7.40055 0-13.389962-5.988388-13.389962-13.389962 0-7.40055 5.989411-13.389962 13.389962-13.389962l53.558823 0c7.389294 0 13.389962 5.989411 13.389962 13.389962C720.064244 441.292612 714.063577 447.280999 706.674283 447.280999zM880.743784 621.349477 653.11546 621.349477c-7.40055 0-13.389962-5.990434-13.389962-13.389962 0-7.401574 5.989411-13.389962 13.389962-13.389962l227.627301 0c7.387247 0 13.388938 5.988388 13.388938 13.389962C894.132722 615.359043 888.130008 621.349477 880.743784 621.349477zM371.929336 447.280999 144.304082 447.280999c-7.401574 0-13.389962-5.988388-13.389962-13.389962 0-7.40055 5.989411-13.389962 13.389962-13.389962l227.626277 0c7.388271 0 13.389962 5.989411 13.389962 13.389962C385.319298 441.292612 379.317607 447.280999 371.929336 447.280999zM371.929336 621.349477 144.304082 621.349477c-7.401574 0-13.389962-5.990434-13.389962-13.389962 0-7.401574 5.989411-13.389962 13.389962-13.389962l227.626277 0c7.388271 0 13.389962 5.988388 13.389962 13.389962C385.319298 615.359043 379.317607 621.349477 371.929336 621.349477zM618.046756 902.541741c-7.401574 0-13.390985-5.989411-13.390985-13.389962L604.655771 661.517315c0-7.399527 5.989411-13.388938 13.390985-13.388938 7.387247 0 13.388938 5.989411 13.388938 13.388938l0 227.633441C631.435695 896.55233 625.43298 902.541741 618.046756 902.541741zM443.978279 915.930679c-7.40055 0-13.388938-5.988388-13.388938-13.388938l0-66.948785c0-7.401574 5.989411-13.389962 13.388938-13.389962 7.388271 0 13.389962 5.988388 13.389962 13.389962l0 66.948785C457.36824 909.942291 451.366549 915.930679 443.978279 915.930679zM443.978279 795.423071c-7.40055 0-13.388938-5.989411-13.388938-13.389962L430.58934 674.915463c0-7.401574 5.989411-13.398148 13.388938-13.398148 7.388271 0 13.389962 5.995551 13.389962 13.398148l0 107.117646C457.36824 789.43366 451.366549 795.423071 443.978279 795.423071zM618.046756 407.112138c-7.401574 0-13.390985-5.988388-13.390985-13.389962L604.655771 152.704914c0-7.40055 5.989411-13.389962 13.390985-13.389962 7.387247 0 13.388938 5.989411 13.388938 13.389962l0 241.016239C631.435695 401.12375 625.43298 407.112138 618.046756 407.112138zM443.978279 393.722176c-7.40055 0-13.388938-5.988388-13.388938-13.389962L430.58934 152.704914c0-7.40055 5.989411-13.389962 13.388938-13.389962 7.388271 0 13.389962 5.989411 13.389962 13.389962l0 227.626277C457.36824 387.733788 451.366549 393.722176 443.978279 393.722176z" fill="#000000"></path></svg>
