<?xml version="1.0" standalone="no"?><!DOCTYPE svg PUBLIC "-//W3C//DTD SVG 1.1//EN" "http://www.w3.org/Graphics/SVG/1.1/DTD/svg11.dtd">
<svg class="icon" style="" viewBox="0 0 1024 1024" version="1.1" xmlns="http://www.w3.org/2000/svg" p-id="5554"
     width="200" height="200"><defs><style type="text/css"></style></defs><path d="M457.48899 533.980617c0.727571 0.971118 1.782599 1.782599 2.589988 2.594081 10.409071 12.95915 26.201755 21.461801 44.146453 21.461801 31.386848 0 56.861032-25.431206 56.861032-56.861032 0-16.685008-7.330966-31.586392-18.671245-41.955554-1.539053-1.61887-2.914376-3.321652-5.14416-4.940522L307.398624 279.400454c-6.643304-5.104251-16.280802-5.344728-23.328311 0-8.385994 6.479575-9.964956 18.467607-3.485381 26.810622L457.48899 533.980617zM510.581186 62.811558c-15.185864 0-27.497261 12.311397-27.497261 27.457352l0 177.547719c0 15.229866 12.311397 27.541263 27.497261 27.541263 15.189957 0 27.501354-12.311397 27.501354-27.541263L538.08254 118.78129c200.228277 14.657838 364.452549 187.593516 364.452549 390.739239 0 215.941144-175.685301 391.710356-391.626445 391.710356-216.065987 0-391.794267-175.84903-391.794267-391.953903 0-110.401436 46.77635-216.269625 128.34511-290.303782 11.256368-10.205433 12.06785-27.616988 1.862417-38.877449-10.209526-11.260461-27.581172-12.06785-38.841633-1.862417-93.024673 84.483136-146.404418 205.169823-146.404418 331.043648 0 246.480694 200.431915 446.952518 446.832791 446.952518 246.277056 0 446.62506-200.392006 446.62506-446.708971C957.534727 267.332604 752.853022 62.811558 510.581186 62.811558zM606.807784 842.019319c1.299599 0 2.63399-0.159636 3.969405-0.567935C755.971036 797.793048 857.381703 661.309584 857.381703 509.436618c0-7.611352-6.15621-13.766538-13.730723-13.766538-7.614421 0-13.770632 6.15621-13.770632 13.766538 0 139.805116-93.353155 265.516236-227.037876 305.692261-7.251148 2.106987-11.380188 9.801227-9.193383 17.08819C595.427596 838.129732 600.896144 842.019319 606.807784 842.019319zM510.784824 829.707922c-7.570419 0.404206-13.447267 6.80294-13.122879 14.418384 0.327458 7.370875 6.439666 13.122879 13.730723 13.122879 0.203638 0 0.448208 0 0.647753 0 15.150048-0.731664 30.335912-2.430352 45.157479-5.104251 7.450692-1.295506 12.435217-8.42181 11.096732-15.957437-1.335415-7.450692-8.381901-12.391215-15.957437-11.096732C538.730293 827.521117 524.760117 829.060169 510.784824 829.707922z" fill="#000000"></path></svg>
