<?xml version="1.0" standalone="no"?><!DOCTYPE svg PUBLIC "-//W3C//DTD SVG 1.1//EN" "http://www.w3.org/Graphics/SVG/1.1/DTD/svg11.dtd">
<svg class="icon" style="" viewBox="0 0 1024 1024" version="1.1" xmlns="http://www.w3.org/2000/svg" p-id="5554"
     width="200" height="200"><defs><style type="text/css"></style></defs><path d="M602.71149 870.944092 274.248619 870.944092c-115.910916 0-210.216769-95.53689-210.216769-212.968439 0-73.468269 38.428218-142.856615 99.077529-181.040263 5.529947-60.380182 52.785204-108.87978 112.588241-116.334565C333.654614 233.07743 459.356524 151.603837 600.530824 151.603837c196.808388 0 356.921016 160.112628 356.921016 356.921016 0 192.367239-152.61998 351.48726-342.229408 359.286899C610.191858 870.481558 605.380272 870.944092 602.71149 870.944092zM290.684964 412.140665c-41.172725 0.025583-75.558883 34.411741-75.558883 76.67531l0.166799 2.63092c0.320295 10.072403-5.131881 19.451004-14.062274 24.133653-51.42523 26.945699-84.642772 82.84687-84.642772 142.394081 0 88.460728 70.721715 160.41348 157.661809 160.41348l318.685179 0c4.824889-2.436492 9.404184-2.847861 11.983939-2.847861 165.257811-2.180666 299.979142-139.898237 299.979142-307.015396 0-167.824263-136.543839-304.367079-304.368102-304.367079-125.239376 0-236.19749 75.199703-282.683221 191.573153-4.079922 10.187013-14.305821 16.923438-25.007557 16.513092C292.378535 412.244019 291.146475 412.167271 290.684964 412.140665zM837.023026 503.05835c-7.249101 0-13.124925-7.737218-13.137205-14.986319-0.013303-6.903224-0.385786-14.729469-1.090844-21.427008-0.756223-7.210215 4.477988-14.139022 11.689227-14.908548 7.300266-0.821715 13.68979 4.246721 14.447037 11.456936 0.808412 7.582699 1.218758 17.141402 1.232061 24.943089 0.01228 7.262404-5.863545 14.922874-13.113669 14.922874C837.036329 503.05835 837.023026 503.05835 837.023026 503.05835zM811.709501 400.207891c-4.643764 0-9.148357-2.463098-11.534707-6.813173-33.974789-61.920258-98.898451-100.374058-169.441087-100.374058-7.261381 0-13.137205-5.875824-13.137205-13.138228 0-7.262404 5.875824-13.139252 13.137205-13.139252 80.127945 0 153.890926 43.688012 192.47264 114.000404 3.502777 6.363941 1.167592 14.356986-5.196349 17.847483C816.007387 399.682935 813.839001 400.207891 811.709501 400.207891z" fill="#000000"></path></svg>
