<?xml version="1.0" standalone="no"?><!DOCTYPE svg PUBLIC "-//W3C//DTD SVG 1.1//EN" "http://www.w3.org/Graphics/SVG/1.1/DTD/svg11.dtd">
<svg class="icon" style="" viewBox="0 0 1024 1024" version="1.1" xmlns="http://www.w3.org/2000/svg" p-id="5554"
     width="200" height="200"><defs><style type="text/css"></style></defs><path d="M498.473427 676.630525c-18.49319-0.026606-36.46961-9.482979-49.322335-25.920346L344.966241 512.069585c-13.423731-17.163915-16.767895-39.431058-8.568143-56.205093 7.493671-15.337313 22.898523-25.168216 42.291199-25.128307l40.868803 0.066515 0.053212-27.558659c0.080841-45.582151 34.294061-84.046185 76.290547-83.966367 34.729989 0.054235 60.314691 16.398482 71.355141 44.816718 2.75167 7.091512-1.088798 15.054881-8.18031 17.808598-7.090489 2.780323-15.21554-0.765433-17.969257-7.829316-8.743128-22.508643-28.807093-27.262924-45.178969-27.28953-26.618241-0.054235-48.758494 26.363438-48.811706 56.514131l-0.080841 43.406602c-0.013303 7.601118-8.884344 11.644201-16.485463 11.630898l-51.90823-0.094144c-8.581446-0.013303-14.806217 4.109598-17.546631 9.710153-3.478218 7.118118-1.242294 17.969257 5.700839 26.860764l104.184851 138.895397c14.121626 18.09103 37.383422 20.199041 51.122331 2.712785l104.271832-141.67572c7.212262-9.172917 9.494235-19.863397 6.218632-26.619264-2.631944-5.425569-8.903787-9.442046-17.661242-9.454326l-60.610426-0.107447c-7.587815-0.013303-13.738909-6.178723-13.725606-13.779841 0.014326-7.601118 6.1777-13.738909 13.779841-13.725606l60.597123 0.107447c19.581987 0.040932 35.026748 9.8176 42.358737 24.993231 7.910157 16.317641 4.432962 37.631062-9.064446 54.781674l-104.285135 142.011364C531.974425 668.223041 515.912611 676.65713 498.473427 676.630525zM556.014958 434.805874c-3.719718-0.013303-7.278777-1.530866-9.749038-4.002151-2.619664-2.631944-3.975545-6.204305-3.975545-9.776667 0-3.720741 1.530866-7.29208 4.001127-9.750061 5.104251-5.089925 14.45113-5.076622 19.528775 0.026606 2.470261 2.605338 3.975545 6.056949 3.975545 9.776667 0 3.572362-1.531889 7.144724-4.137227 9.750061C563.159682 433.301614 559.588343 434.805874 556.014958 434.805874zM495.95507 918.41322c-246.309802-0.443092-446.352861-201.197348-445.909769-447.50715C50.495556 224.569662 251.264139 24.553209 497.573941 24.996301 743.877603 25.440415 943.905312 226.194672 943.463244 472.517777 943.020152 718.827579 742.264872 918.857335 495.95507 918.41322zM497.472634 80.007195C281.488511 79.617315 105.452215 255.016091 105.056196 471.000214c-0.38988 215.984123 175.016059 392.014278 391.000182 392.404158 215.990263 0.388856 392.007115-174.996616 392.396995-390.980739S713.45778 80.397075 497.472634 80.007195zM828.835553 486.069421c-7.573489-0.013303-13.738909-6.1777-13.724583-13.778818 0.268106-143.125745-95.811136-269.584901-233.632061-307.538305-7.319709-2.01489-11.630898-9.575076-9.616008-16.908088s9.562796-11.603269 16.908088-9.616008c149.733233 41.244356 254.126838 178.621167 253.844405 334.116637C842.602092 479.944933 836.438719 486.082724 828.835553 486.069421zM515.886005 153.886833c-0.255827 0-0.51063 0-0.765433-0.026606-5.89629-0.335644-11.818163-0.497327-17.781992-0.51063-7.587815-0.013303-13.738909-6.1777-13.725606-13.778818 0.013303-7.602142 6.191003-13.738909 13.778818-13.725606 6.459109 0.013303 12.893658 0.214894 19.286252 0.577145 7.587815 0.403183 13.389962 6.903224 12.960173 14.491039C529.221732 148.232043 523.138176 153.900136 515.886005 153.886833z" fill="#000000"></path></svg>
