<?xml version="1.0" standalone="no"?><!DOCTYPE svg PUBLIC "-//W3C//DTD SVG 1.1//EN" "http://www.w3.org/Graphics/SVG/1.1/DTD/svg11.dtd">
<svg class="icon" style="" viewBox="0 0 1024 1024" version="1.1" xmlns="http://www.w3.org/2000/svg" p-id="5554"
     width="200" height="200"><defs><style type="text/css"></style></defs><path d="M772.952802 957.48305 240.562403 957.48305c-54.298673 0-91.515297-46.732347-91.515297-98.998735L149.047106 158.599158c0-56.043411 41.415248-94.541213 91.515297-94.541213l280.788058 0c7.471159 0 14.613836 3.408633 19.862373 8.724709l319.572386 317.583079c5.167696 5.221932 14.164604 12.487406 14.164604 19.834744l0 448.28384C874.949824 915.413909 824.142671 957.48305 772.952802 957.48305zM240.562403 119.896694c-22.617114 0-35.676547 17.040095-35.676547 38.702464l0 699.885158c0 21.811772 11.955286 43.161009 35.676547 43.161009l532.389376 0c22.288632 0 46.159296-21.293979 46.159296-43.161009l0-436.818717L509.6817 119.896694 240.562403 119.896694zM841.79675 427.009304 590.195431 427.009304c-46.473451 0-78.195943-41.183981-78.195943-85.652775L511.999488 89.75521c0-5.630231-2.727111-10.715039 2.467191-12.882402 5.207605-2.139733 8.132214-1.007957 12.146645 2.958378L853.139076 403.983891c4.021593 3.967358 4.485151 9.556657 2.330068 14.791891C853.316108 424.009993 847.453586 427.009304 841.79675 427.009304zM539.918351 123.168204l0 218.188324c0 29.569456 18.7439 57.732889 50.27708 57.732889l217.615273 0L539.918351 123.168204zM402.053424 552.645722 290.375925 552.645722c-7.702426 0-13.959943-6.243191-13.959943-13.95892 0-7.716752 6.257517-13.959943 13.959943-13.959943l111.677499 0c7.715729 0 13.959943 6.243191 13.959943 13.959943C416.013367 546.402531 409.769153 552.645722 402.053424 552.645722zM597.502861 552.645722 457.905476 552.645722c-7.715729 0-13.973246-6.243191-13.973246-13.95892 0-7.716752 6.257517-13.959943 13.973246-13.959943l139.596362 0c7.715729 0 13.959943 6.243191 13.959943 13.959943C611.461781 546.402531 605.21859 552.645722 597.502861 552.645722zM709.179336 552.645722l-55.838749 0c-7.715729 0-13.959943-6.243191-13.959943-13.95892 0-7.716752 6.244214-13.959943 13.959943-13.959943l55.838749 0c7.715729 0 13.959943 6.243191 13.959943 13.959943C723.13928 546.402531 716.895065 552.645722 709.179336 552.645722zM346.214674 622.444415l-55.838749 0c-7.702426 0-13.959943-6.244214-13.959943-13.959943s6.257517-13.959943 13.959943-13.959943l55.838749 0c7.715729 0 13.959943 6.244214 13.959943 13.959943S353.930403 622.444415 346.214674 622.444415zM513.744225 622.444415 402.053424 622.444415c-7.702426 0-13.959943-6.244214-13.959943-13.959943s6.257517-13.959943 13.959943-13.959943L513.744225 594.524528c7.715729 0 13.959943 6.244214 13.959943 13.959943S521.459954 622.444415 513.744225 622.444415zM709.179336 622.444415 569.582975 622.444415c-7.716752 0-13.960966-6.244214-13.960966-13.959943s6.244214-13.959943 13.960966-13.959943l139.596362 0c7.715729 0 13.959943 6.244214 13.959943 13.959943S716.895065 622.444415 709.179336 622.444415zM429.972287 706.202027 290.375925 706.202027c-7.702426 0-13.959943-6.243191-13.959943-13.959943 0-7.715729 6.257517-13.959943 13.959943-13.959943l139.596362 0c7.716752 0 13.959943 6.244214 13.959943 13.959943C443.93223 699.959859 437.689039 706.202027 429.972287 706.202027zM625.421724 706.202027 485.824339 706.202027c-7.715729 0-13.959943-6.243191-13.959943-13.959943 0-7.715729 6.244214-13.959943 13.959943-13.959943l139.596362 0c7.716752 0 13.959943 6.244214 13.959943 13.959943C639.380644 699.959859 633.138476 706.202027 625.421724 706.202027zM709.179336 706.202027 681.25945 706.202027c-7.714705 0-13.95892-6.243191-13.95892-13.959943 0-7.715729 6.244214-13.959943 13.95892-13.959943l27.919886 0c7.715729 0 13.959943 6.244214 13.959943 13.959943C723.13928 699.959859 716.895065 706.202027 709.179336 706.202027zM346.214674 776.007883l-55.838749 0c-7.702426 0-13.959943-6.244214-13.959943-13.960966 0-7.714705 6.257517-13.95892 13.959943-13.95892l55.838749 0c7.715729 0 13.959943 6.244214 13.959943 13.95892C360.174618 769.764692 353.930403 776.007883 346.214674 776.007883zM499.784282 776.007883l-97.730858 0c-7.702426 0-13.959943-6.244214-13.959943-13.960966 0-7.714705 6.257517-13.95892 13.959943-13.95892l97.730858 0c7.702426 0 13.959943 6.244214 13.959943 13.95892C513.744225 769.764692 507.487731 776.007883 499.784282 776.007883z" fill="#000000"></path></svg>
