<?xml version="1.0" standalone="no"?><!DOCTYPE svg PUBLIC "-//W3C//DTD SVG 1.1//EN" "http://www.w3.org/Graphics/SVG/1.1/DTD/svg11.dtd">
<svg class="icon" style="" viewBox="0 0 1024 1024" version="1.1" xmlns="http://www.w3.org/2000/svg" p-id="5554"
     width="200" height="200"><defs><style type="text/css"></style></defs><path d="M506.695692 747.005338c-72.449056 0-140.125411-27.776623-190.56315-78.213339l-8.91095-8.91095c-51.137681-51.150984-78.914304-119.792317-78.200036-193.287191 0.714268-72.991408 29.377074-141.448546 80.685647-192.758142l139.134851-139.148154c10.153244-10.153244 28.133757-10.153244 38.288025 0l354.195951 354.195951c5.076622 5.076622 7.931646 11.964496 7.931646 19.144012 0 7.178493-2.855024 14.066367-7.931646 19.144012L702.191178 666.306388C650.155035 718.343555 580.719616 747.005338 506.695692 747.005338zM467.986065 192.119599 347.995227 312.12374c-41.221844 41.221844-64.23907 96.27367-64.821331 155.00019-0.567935 58.83192 21.563108 113.684202 62.349023 154.471141l8.91095 8.909927c40.204677 40.204677 94.2772 62.350047 152.261822 62.350047 59.559491 0 115.391077-23.030529 157.207461-64.833611l119.991862-119.991862L467.986065 192.119599zM393.051399 357.180935c-3.463891 0-6.941086-1.322112-9.585309-3.966335-5.275143-5.288446-5.275143-13.868869 0.013303-19.144012l9.572006-9.572006c5.288446-5.288446 13.868869-5.288446 19.156292 0 5.275143 5.288446 5.275143 13.868869-0.013303 19.144012l-9.572006 9.572006C399.979182 355.858824 396.515291 357.180935 393.051399 357.180935zM349.885274 528.758686c-6.028297 0-11.528568-4.046153-13.101389-10.153244-13.048177-50.54314-5.447059-105.236809 20.862143-150.027945 3.781116-6.438643 12.069897-8.620331 18.521842-4.825912 6.451946 3.781116 8.607028 12.084223 4.825912 18.521842-22.700001 38.684044-29.257348 85.895299-17.992793 129.562844 1.876744 7.245008-2.485611 14.622022-9.717316 16.486486C352.14678 528.626679 351.009887 528.758686 349.885274 528.758686zM101.402993 950.84998c-1.387603 0-2.816139-0.106424-4.243651-0.343831-14.740726-2.325975-24.828478-16.129352-22.528086-30.883381 0.859577-5.525853 22.25077-136.219451 119.964232-184.158277 68.707848-33.686217 90.720188-112.535029 90.932012-113.328092 3.886517-14.396895 18.720364-22.99062 33.130561-19.129686 14.423501 3.834328 23.017226 18.574031 19.222807 32.998555-1.110287 4.203742-28.107151 103.305831-119.436206 148.08571-72.224951 35.430954-90.152253 142.828986-90.324168 143.913691C125.993041 941.330162 114.491079 950.84998 101.402993 950.84998zM563.717384 276.639574c-6.927783 0-13.854543-2.6432-19.142989-7.931646-10.576893-10.576893-10.576893-27.711132 0-38.287001L709.634708 65.35959c10.562567-10.576893 27.723412-10.576893 38.287001 0 10.576893 10.57587 10.576893 27.711132 0 38.287001L582.861396 268.707928C577.586253 273.996374 570.644143 276.639574 563.717384 276.639574zM726.450698 439.372889c-6.927783 0-13.854543-2.644223-19.142989-7.931646-10.576893-10.576893-10.576893-27.711132 0-38.287001l165.060313-165.060313c10.562567-10.576893 27.723412-10.576893 38.287001 0 10.576893 10.57587 10.576893 27.710109 0 38.287001L745.594711 431.441243C740.319567 436.728666 733.378481 439.372889 726.450698 439.372889z" fill="#000000"></path></svg>
