<?xml version="1.0" standalone="no"?><!DOCTYPE svg PUBLIC "-//W3C//DTD SVG 1.1//EN" "http://www.w3.org/Graphics/SVG/1.1/DTD/svg11.dtd">
<svg class="icon" style="" viewBox="0 0 1024 1024" version="1.1" xmlns="http://www.w3.org/2000/svg" p-id="5554"
     width="200" height="200"><defs><style type="text/css"></style></defs><path d="M496.141312 950.482613c-246.323105 0-446.723298-200.407356-446.736601-446.716134C49.418015 257.456676 249.818207 57.057507 496.141312 57.057507c119.315456 0 231.479025 46.476521 315.848575 130.833791 84.383876 84.382852 130.84607 196.560748 130.833791 315.876204 0.013303 119.315456-46.449915 231.493352-130.833791 315.849598C727.620337 904.005069 615.455745 950.482613 496.141312 950.482613zM496.141312 112.428605c-215.784578 0-391.351176 175.553295-391.364479 391.33685 0.013303 215.784578 175.579901 391.344013 391.364479 391.344013 104.526635 0 202.792683-40.718377 276.697903-114.645087 73.919547-73.919547 114.612341-172.173314 114.612341-276.698926s-40.692794-202.805986-114.612341-276.725532C698.933995 153.146982 600.666924 112.428605 496.141312 112.428605zM496.141312 936.639327c-147.474796 0-267.466658-194.188724-267.466658-432.872848S348.666516 70.89977 496.141312 70.89977c147.461493 0 267.424702 194.181561 267.424702 432.865685S643.601782 936.639327 496.141312 936.639327zM496.141312 98.586342c-132.212184 0-239.780085 181.770903-239.780085 405.180136 0 223.409233 107.567901 405.187299 239.780085 405.187299 132.198881 0 239.739153-181.77909 239.739153-405.187299C735.880465 280.357246 628.33917 98.586342 496.141312 98.586342zM496.128009 403.187759c-190.247972 0-339.263867-68.458161-339.263867-155.842371 0-7.65126 6.191003-13.843286 13.843286-13.843286 7.65126 0 13.843286 6.192026 13.843286 13.843286 0 69.458955 142.688793 128.156822 311.577295 128.156822 168.888502 0 311.563992-58.697867 311.563992-128.156822 0-7.65126 6.191003-13.843286 13.842263-13.843286 7.65126 0 13.842263 6.192026 13.842263 13.843286C835.37755 334.729597 686.361655 403.187759 496.128009 403.187759zM821.520961 790.821263c-7.65126 0-13.842263-6.192026-13.842263-13.843286 0-69.484537-142.688793-128.183428-311.577295-128.183428-168.888502 0-311.563992 58.697867-311.563992 128.183428 0 7.652284-6.192026 13.843286-13.843286 13.843286-7.652284 0-13.843286-6.192026-13.843286-13.843286 0-87.410815 149.015895-155.868977 339.249541-155.868977 190.247972 0 339.262844 68.458161 339.262844 155.868977C835.363224 784.629237 829.172221 790.821263 821.520961 790.821263zM498.953358 936.937109c-7.652284 0-13.843286-6.192026-13.843286-13.842263L485.110071 78.659501c0-7.652284 6.192026-13.843286 13.843286-13.843286 7.65126 0 13.842263 6.191003 13.842263 13.843286l0 844.434322C512.795621 930.745083 506.603595 936.937109 498.953358 936.937109zM915.840116 527.396665 362.117876 527.396665c-7.652284 0-13.843286-6.192026-13.843286-13.843286 0-7.652284 6.191003-13.843286 13.843286-13.843286l553.723264 0c7.65126 0 13.842263 6.191003 13.842263 13.843286C929.683403 521.205663 923.491377 527.396665 915.840116 527.396665zM292.901445 527.396665 85.255221 527.396665c-7.65126 0-13.842263-6.192026-13.842263-13.843286 0-7.652284 6.191003-13.843286 13.842263-13.843286l207.646224 0c7.652284 0 13.843286 6.191003 13.843286 13.843286C306.744731 521.205663 300.553729 527.396665 292.901445 527.396665z" fill="#000000"></path></svg>
