<?xml version="1.0" standalone="no"?><!DOCTYPE svg PUBLIC "-//W3C//DTD SVG 1.1//EN" "http://www.w3.org/Graphics/SVG/1.1/DTD/svg11.dtd">
<svg class="icon" style="" viewBox="0 0 1024 1024" version="1.1" xmlns="http://www.w3.org/2000/svg" p-id="5554"
     width="200" height="200"><defs><style type="text/css"></style></defs><path d="M737.480916 958.053032c-14.948457 0-29.818119-3.725858-43.017746-10.800997l-183.710069-98.893334L327.108524 947.226452c-29.780257 15.875572-67.100234 13.728676-94.506421-5.064342-28.16241-19.400862-42.686195-53.356208-37.068244-86.538959l35.981493-214.919884L76.258313 485.662145c-23.855314-23.741727-31.927153-58.1944-21.046339-89.881077 10.828626-31.408337 38.234813-53.978379 71.54036-58.920948l211.18277-31.396057L429.659155 115.027803c14.776542-30.621415 46.609551-50.39476 81.093946-50.39476 34.511002 0 66.329684 19.781532 81.06734 50.39476l91.74861 190.43626 211.157187 31.402197c33.278941 4.929266 60.699454 27.487028 71.552639 58.868759 10.866489 31.753191 2.809999 66.191538-21.018709 89.940428L789.963221 640.702244l36.020378 214.959793c5.579065 33.171494-8.960069 67.124793-37.029358 86.473467C773.686513 952.564018 755.915777 958.053032 737.480916 958.053032zM510.752078 790.390451c4.426823 0 8.852622 1.086751 12.868075 3.233648l196.512652 105.798605c11.80793 6.333242 27.021423 5.525853 38.101783-2.054799 10.866489-7.475252 16.341177-20.038382 14.20656-32.722262l-38.325887-228.782613c-1.445932-8.654101 1.378393-17.494443 7.592932-23.695678L906.918933 447.249277c9.024537-8.998955 12.098549-21.967314 8.017604-33.861202-4.175089-12.092409-14.988366-20.872377-28.17469-22.826891l-225.390353-33.523511c-8.893554-1.319042-16.566304-6.965645-20.462031-15.061021l-97.991802-203.391317c-5.753027-11.954263-18.382673-19.665899-32.165584-19.665899-13.783934 0-26.425859 7.725962-32.204469 19.679202l-97.951893 203.369827c-3.897773 8.103562-11.5695 13.750165-20.462031 15.069207l-225.40468 33.515325c-13.002129 1.935072-24.054859 10.914584-28.187993 22.88829-4.069689 11.840676-0.981351 24.795732 8.043187 33.782408l165.184133 164.957982c6.214539 6.202259 9.038864 15.028275 7.592932 23.682375l-38.300304 228.771357c-2.146896 12.695137 3.326768 25.244964 14.286378 32.787754 10.906397 7.486508 26.094308 8.374738 38.115086 1.960655l196.420555-105.758696C501.900479 791.477202 506.326279 790.390451 510.752078 790.390451zM213.346551 458.660164c-6.53381 0-12.299117-4.730745-13.385868-11.397584-1.192152-7.395434 3.830235-14.366196 11.225669-15.566534l9.011234-1.463328c7.43432-1.272993 14.366196 3.822049 15.572674 11.217483 1.192152 7.395434-3.830235 14.366196-11.225669 15.566534l-9.011234 1.463328C214.803739 458.606952 214.061842 458.660164 213.346551 458.660164zM263.17747 450.576045c-6.375198 0-12.060687-4.50664-13.307074-11.000542-1.431605-7.361665 3.39226-14.477736 10.747785-15.896038l146.881278-28.341488L462.89614 268.283256c3.00852-6.851035 11.013845-10.019191 17.863856-7.010671 6.878664 2.996241 10.019191 10.993378 7.024997 17.86488L429.526125 412.739299c-1.789763 4.094248-5.486968 7.05058-9.873882 7.897877l-153.889903 29.693276C264.886391 450.495204 264.024767 450.576045 263.17747 450.576045z" fill="#000000"></path></svg>
