<?xml version="1.0" standalone="no"?><!DOCTYPE svg PUBLIC "-//W3C//DTD SVG 1.1//EN" "http://www.w3.org/Graphics/SVG/1.1/DTD/svg11.dtd">
<svg class="icon" style="" viewBox="0 0 1024 1024" version="1.1" xmlns="http://www.w3.org/2000/svg" p-id="5554"
     width="200" height="200"><defs><style type="text/css"></style></defs><path d="M368.910583 911.366733c-0.427742 0-0.843204 0-1.270946 0-30.18651 0-56.103786-20.573571-90.647533-55.130621L107.915313 687.198208c-67.687612-67.699891-83.421968-108.548228-5.578042-186.380898l384.124588-370.82877c10.558473-10.169617 27.382651-9.897418 37.554314 0.674359 10.1952 10.546194 9.897418 27.371394-0.661056 37.554314L139.566174 538.720571c-49.047066 49.048089-48.683792 56.32482 5.915733 110.936625L314.557674 818.720683c19.47147 19.470447 41.12156 39.408545 54.028521 39.641859 12.401448 0.038886 34.07712-19.171642 53.094242-38.188764l384.124588-370.82877c10.547217-10.18292 27.383674-9.897418 37.554314 0.661056 10.1952 10.546194 9.897418 27.370371-0.661056 37.553291L458.909339 858.000292C425.260985 891.661949 399.472646 911.366733 368.910583 911.366733zM481.558176 824.440965c-6.952342 0-13.905708-2.709715-19.107173-8.120958-10.196223-10.546194-9.897418-27.370371 0.661056-37.553291l383.78792-370.504382c49.033763-49.059346 48.670489-56.337099-5.928013-110.936625L671.908478 128.250966c-52.743248-52.744271-55.741535-52.834322-107.135042-1.453095L180.648848 497.626641c-10.532891 10.209526-27.370371 9.924024-37.553291-0.661056-10.196223-10.546194-9.897418-27.370371 0.661056-37.553291L527.54351 88.906889c71.488171-71.501474 108.963691-71.189366 181.931562 1.777483l169.063487 169.07679c34.739199 34.725896 55.234999 60.82532 57.205886 91.478458 2.179642 33.752732-19.054985 62.356187-51.614541 94.915743L500.004293 816.982086C494.855016 821.963541 488.200456 824.440965 481.558176 824.440965zM861.817736 288.389176c-6.797823 0-13.594623-2.594081-18.782785-7.783267-10.378371-10.377348-10.378371-27.189246 0-37.566594l5.875824-5.876847c54.28844-54.275137 54.806233-64.950268 5.591345-114.179482-51.330062-51.316759-65.689095-51.161217-118.303406 1.466398l-5.876847 5.875824c-10.378371 10.378371-27.188222 10.378371-37.566594 0-10.378371-10.377348-10.378371-27.189246 0-37.566594l5.875824-5.876847C771.494591 14.019295 820.30732 13.643742 892.068713 85.417415c78.117149 78.130452 60.436464 123.298164-5.591345 189.311647l-5.875824 5.876847C875.412358 285.795095 868.615559 288.389176 861.817736 288.389176zM271.024182 506.694157c-3.3984 0-6.797823-1.297552-9.391904-3.891633-5.189186-5.189186-5.189186-13.594623 0-18.782785l9.391904-9.391904c5.188162-5.189186 13.594623-5.189186 18.782785 0 5.189186 5.188162 5.189186 13.594623 0 18.782785l-9.391904 9.391904C277.822005 505.396605 274.422581 506.694157 271.024182 506.694157zM327.373561 450.343755c-3.52836 0-7.043417-1.400906-9.650801-4.163833-5.045923-5.331425-4.799306-13.736862 0.532119-18.770506l88.754417-83.825151c5.331425-5.045923 13.750165-4.799306 18.770506 0.532119 5.045923 5.331425 4.799306 13.737886-0.532119 18.770506l-88.754417 83.825151C333.924767 449.137277 330.643024 450.343755 327.373561 450.343755zM633.148709 351.990726c-3.527336 0-7.043417-1.400906-9.66308-4.163833-5.03262-5.331425-4.787026-13.736862 0.544399-18.782785l82.46313-77.870532c5.344728-5.02034 13.736862-4.773723 18.782785 0.545422 5.03262 5.331425 4.787026 13.736862-0.545422 18.782785l-82.462107 77.870532C639.699915 350.784248 636.418172 351.990726 633.148709 351.990726zM713.31554 354.287025c-3.529383 0-7.04444-1.400906-9.651824-4.163833l-77.882811-82.462107c-5.046946-5.331425-4.800329-13.736862 0.532119-18.770506 5.344728-5.045923 13.750165-4.787026 18.770506 0.532119l77.882811 82.462107c5.045923 5.331425 4.799306 13.736862-0.532119 18.770506C719.865723 353.080547 716.58398 354.287025 713.31554 354.287025zM325.635987 741.953276c-3.52836 0-7.043417-1.400906-9.650801-4.163833l-77.870532-82.448804c-5.045923-5.332449-4.799306-13.737886 0.532119-18.771529 5.344728-5.045923 13.750165-4.787026 18.770506 0.532119l77.870532 82.449827c5.045923 5.331425 4.799306 13.736862-0.532119 18.770506C332.187193 740.745774 328.90545 741.953276 325.635987 741.953276z" fill="#000000"></path></svg>
