<?xml version="1.0" standalone="no"?><!DOCTYPE svg PUBLIC "-//W3C//DTD SVG 1.1//EN" "http://www.w3.org/Graphics/SVG/1.1/DTD/svg11.dtd">
<svg class="icon" style="" viewBox="0 0 1024 1024" version="1.1" xmlns="http://www.w3.org/2000/svg" p-id="5554"
     width="200" height="200"><defs><style type="text/css"></style></defs><path d="M943.033455 371.94929c0 53.439096-43.323715 96.763834-96.763834 96.763834L146.3773 468.713125c-53.439096 0-96.763834-43.323715-96.763834-96.763834L49.613466 132.725884c0-53.439096 43.323715-96.763834 96.763834-96.763834l699.892321 0c53.44012 0 96.763834 43.323715 96.763834 96.763834L943.033455 371.94929zM887.193683 132.725884c0-22.602787-18.321274-40.925085-40.924061-40.925085L146.3773 91.800799c-22.602787 0-40.925085 18.322297-40.925085 40.925085l0 239.223407c0 22.602787 18.322297 40.925085 40.925085 40.925085l699.892321 0c22.602787 0 40.924061-18.322297 40.924061-40.925085L887.193683 132.725884zM943.033455 846.578148c0 53.439096-43.323715 96.762811-96.763834 96.762811L146.3773 943.340959c-53.439096 0-96.763834-43.323715-96.763834-96.762811L49.613466 607.354741c0-53.44012 43.323715-96.763834 96.763834-96.763834l699.892321 0c53.44012 0 96.763834 43.323715 96.763834 96.763834L943.033455 846.578148zM887.193683 607.354741c0-22.602787-18.321274-40.924061-40.924061-40.924061L146.3773 566.43068c-22.602787 0-40.925085 18.321274-40.925085 40.924061l0 239.223407c0 22.602787 18.322297 40.924061 40.925085 40.924061l699.892321 0c22.602787 0 40.924061-18.321274 40.924061-40.924061L887.193683 607.354741zM161.291988 259.317047c-7.715729 0-13.959943-6.244214-13.959943-13.959943l0-25.151843c0-38.661531 32.772404-72.565712 68.24429-72.565712l86.97591 0c7.715729 0 13.959943 6.244214 13.959943 13.959943 0 7.715729-6.244214 13.959943-13.959943 13.959943l-86.97591 0c-21.770839 0-40.324404 24.006763-40.324404 44.645826l0 25.151843C175.251931 253.073856 169.007717 259.317047 161.291988 259.317047zM162.954861 307.194474c-3.625574 0-7.266497-1.540076-9.910721-4.049223-2.65855-2.794649-4.049223-6.285147-4.049223-9.910721 0-3.626597 1.390673-7.252171 4.049223-9.910721 5.438872-5.166673 14.518668-5.166673 19.821441 0 2.508123 2.65855 4.049223 6.284123 4.049223 9.910721 0 3.625574-1.540076 7.266497-4.049223 9.774621C170.208055 305.654398 166.581458 307.194474 162.954861 307.194474z" fill="#000000"></path></svg>
