<?xml version="1.0" standalone="no"?><!DOCTYPE svg PUBLIC "-//W3C//DTD SVG 1.1//EN" "http://www.w3.org/Graphics/SVG/1.1/DTD/svg11.dtd">
<svg class="icon" style="" viewBox="0 0 1024 1024" version="1.1" xmlns="http://www.w3.org/2000/svg" p-id="5554"
     width="200" height="200"><defs><style type="text/css"></style></defs><path d="M93.595166 370.285395c-15.914458 0-28.819372-12.904914-28.819372-28.820396L64.775794 176.790472c0-63.228043 51.462069-109.117187 122.358769-109.117187l165.842119 0c15.916505 0 28.821419 12.903891 28.821419 28.821419 0 15.914458-12.904914 28.819372-28.821419 28.819372L187.134563 125.314077c-29.862121 0-64.719001 13.482059-64.719001 51.476395l0 164.674527C122.415562 357.38048 109.511671 370.285395 93.595166 370.285395zM352.976682 961.092251 187.134563 961.092251c-67.462484 0-122.358769-54.882981-122.358769-122.358769L64.775794 672.889317c0-15.901155 12.904914-28.820396 28.819372-28.820396 15.916505 0 28.820396 12.919241 28.820396 28.820396l0 165.843142c0 35.07996 29.635971 64.717977 64.719001 64.717977l165.842119 0c15.916505 0 28.821419 12.917194 28.821419 28.820396C381.798101 948.20064 368.893186 961.092251 352.976682 961.092251zM849.09804 961.092251 669.997965 961.092251c-15.914458 0-28.818349-12.891611-28.818349-28.820396 0-15.903202 12.903891-28.820396 28.818349-28.820396l179.100074 0c37.981033 0 51.462069-34.855856 51.462069-64.705698L900.560108 672.889317c0-15.901155 12.903891-28.820396 28.820396-28.820396 15.915481 0 28.820396 12.919241 28.820396 28.820396l0 165.855422C958.2009 909.643486 912.310733 961.092251 849.09804 961.092251zM929.380504 370.285395c-15.916505 0-28.820396-12.904914-28.820396-28.820396L900.560108 176.790472c0-35.117822-16.352433-51.476395-51.462069-51.476395L669.997965 125.314077c-15.914458 0-28.818349-12.904914-28.818349-28.819372 0-15.917528 12.903891-28.821419 28.818349-28.821419l179.100074 0c67.294662 0 109.10286 41.809221 109.10286 109.117187l0 164.674527C958.2009 357.38048 945.295985 370.285395 929.380504 370.285395zM785.280572 528.795525 79.185992 528.795525c-7.965415 0-14.410198-6.451946-14.410198-14.409175 0-7.958252 6.444782-14.410198 14.410198-14.410198l706.09458 0c7.963369 0 14.409175 6.451946 14.409175 14.410198C799.689746 522.343579 793.243941 528.795525 785.280572 528.795525zM943.789679 528.795525l-100.870362 0c-7.963369 0-14.409175-6.451946-14.409175-14.409175 0-7.958252 6.445806-14.410198 14.409175-14.410198l100.870362 0c7.965415 0 14.411221 6.451946 14.411221 14.410198C958.2009 522.343579 951.756117 528.795525 943.789679 528.795525z" fill="#000000"></path></svg>
