<?xml version="1.0" standalone="no"?><!DOCTYPE svg PUBLIC "-//W3C//DTD SVG 1.1//EN" "http://www.w3.org/Graphics/SVG/1.1/DTD/svg11.dtd">
<svg class="icon" style="" viewBox="0 0 1024 1024" version="1.1" xmlns="http://www.w3.org/2000/svg" p-id="5554"
     width="200" height="200"><defs><style type="text/css"></style></defs><path d="M505.576195 959.917496c-2.564405 0-1.497097-0.364297-3.996011-1.119497-14.931061-4.453429-362.163413-111.844298-362.163413-337.581552L139.416771 239.867066c0-14.722306 8.29185-26.659173 23.014156-26.659173 66.334801 0 119.28271-54.033637 120.258944-120.395044 0.221034-14.579043 10.263761-26.320459 24.842805-26.320459l395.668505 0c14.56574 0 26.438139 11.741415 26.660196 26.320459 0.975211 66.361407 59.371202 120.369462 125.707027 120.369462 14.722306 0 30.303166 11.962449 30.303166 26.685779l0 381.493667c0 197.735503-352.426655 331.266729-367.265618 336.837608C515.573897 959.343421 508.752538 959.917496 505.576195 959.917496zM192.736141 264.482697l0 356.734774c0 169.424714 267.880073 266.688945 319.297117 283.767925 96.925516-38.296211 320.522014-154.019863 320.522014-283.623639l0-356.878037c-79.977519-11.520381-141.184533-64.695464-153.62896-144.67196L331.810616 119.81176C319.35391 199.787232 259.384074 252.962316 192.736141 264.482697zM374.559233 796.213064c-2.01796 0-4.048199-0.443092-5.975085-1.406023-51.248198-25.748431-90.911546-62.299905-114.694205-105.73209-3.540639-6.456039-1.171686-14.552437 5.285377-18.0941 6.457062-3.565199 14.56574-1.171686 18.0941 5.285377 21.178345 38.666648 56.897871 71.418586 103.278201 94.719268 6.587022 3.306302 9.242502 11.299347 5.936199 17.886369C384.139425 793.532001 379.440403 796.213064 374.559233 796.213064zM242.382864 639.584794c-5.818519 0-11.169387-3.840468-12.822027-9.723455-2.39556-8.526187-3.332908-13.602809-3.332908-13.602809-1.327228-7.237845 3.449565-14.176884 10.674107-15.529695 7.198959-1.289366 14.162558 3.396353 15.529695 10.620895 0.052189 0.299829 0.871857 4.464685 2.785439 11.299347 2.004657 7.081279-2.134617 14.449084-9.215896 16.440437C244.790704 639.428228 243.581156 639.584794 242.382864 639.584794zM512.645195 932.99738c-7.367805 0-13.329587-5.961782-13.329587-13.329587L499.315608 93.241614c0-7.367805 5.961782-13.329587 13.329587-13.329587 7.355525 0 13.329587 5.961782 13.329587 13.329587l0 826.426179C525.974781 927.035598 519.999696 932.99738 512.645195 932.99738zM851.936691 526.530948 158.812517 526.530948c-7.367805 0-13.329587-5.961782-13.329587-13.329587 0-7.367805 5.961782-13.329587 13.329587-13.329587L851.936691 499.871775c7.355525 0 13.329587 5.961782 13.329587 13.329587C865.267301 520.569166 859.292216 526.530948 851.936691 526.530948z" fill="#000000"></path></svg>
