<?xml version="1.0" standalone="no"?><!DOCTYPE svg PUBLIC "-//W3C//DTD SVG 1.1//EN" "http://www.w3.org/Graphics/SVG/1.1/DTD/svg11.dtd">
<svg class="icon" style="" viewBox="0 0 1024 1024" version="1.1" xmlns="http://www.w3.org/2000/svg" p-id="5554"
     width="200" height="200"><defs><style type="text/css"></style></defs><path d="M712.226742 957.48305 329.333192 957.48305c-15.662725 0-28.361955-12.713556-28.361955-28.360931 0-15.677051 12.69923-28.362978 28.361955-28.362978l382.89355 0c15.663748 0 28.362978 12.684904 28.362978 28.362978C740.58972 944.769494 727.889467 957.48305 712.226742 957.48305zM979.980949 689.00332c0 54.293557-44.0124 98.304933-98.299817 98.304933L142.317845 787.308253c-54.287417 0-98.299817-44.0124-98.299817-98.304933L44.018028 162.357761c0-54.287417 44.011376-98.299817 98.299817-98.299817l739.364311 0c54.287417 0 98.299817 44.011376 98.299817 98.299817L979.981972 689.00332zM923.256016 162.357761c0-22.960944-18.612916-41.573861-41.573861-41.573861L142.317845 120.783901c-22.960944 0-41.573861 18.612916-41.573861 41.573861l0 526.645558c0 22.960944 18.612916 41.580001 41.573861 41.580001l739.364311 0c22.960944 0 41.573861-18.619056 41.573861-41.580001L923.256016 162.357761zM953.30745 631.308293 74.070484 631.308293c-7.838525 0-14.180977-6.343475-14.180977-14.179954 0-7.838525 6.342452-14.182001 14.180977-14.182001l879.236965 0c7.824199 0 14.182001 6.343475 14.182001 14.182001C967.48945 624.964818 961.131649 631.308293 953.30745 631.308293zM953.30745 220.051765 74.070484 220.051765c-7.838525 0-14.180977-6.342452-14.180977-14.180977 0-7.838525 6.342452-14.180977 14.180977-14.180977l879.236965 0c7.824199 0 14.182001 6.342452 14.182001 14.180977C967.48945 213.709313 961.131649 220.051765 953.30745 220.051765zM462.420303 426.88446c-1.703805 0-3.448542-0.303922-5.13802-0.969071-7.29822-2.838651-10.912537-11.06501-8.05956-18.36323l3.849678-9.873882c2.838651-7.29822 11.079336-10.912537 18.364253-8.05956 7.29822 2.838651 10.898211 11.06501 8.05956 18.36323l-3.850701 9.873882C473.457684 423.464571 468.098629 426.88446 462.420303 426.88446zM408.354943 565.760414c-1.703805 0-3.448542-0.303922-5.13802-0.969071-7.29822-2.837628-10.913561-11.063987-8.05956-18.36323l40.216957-103.284341c2.838651-7.284917 11.037381-10.940167 18.349927-8.05956 7.29822 2.838651 10.913561 11.06501 8.073886 18.36323L421.580153 556.732807C419.392324 562.327222 414.032246 565.760414 408.354943 565.760414zM350.881974 469.317898c-1.703805 0-3.448542-0.304945-5.13802-0.969071-7.29822-2.838651-10.912537-11.051707-8.073886-18.349927l58.802244-151.063531c2.852978-7.29822 11.051707-10.940167 18.36323-8.073886 7.29822 2.838651 10.913561 11.050684 8.073886 18.349927l-58.802244 151.063531C361.919355 465.883683 356.559277 469.317898 350.881974 469.317898zM323.267033 540.181853c-1.703805 0-3.448542-0.303922-5.13802-0.969071-7.29822-2.837628-10.912537-11.063987-8.05956-18.36323l8.641821-22.199605c2.852978-7.29822 11.106965-10.913561 18.36323-8.05956 7.29822 2.838651 10.912537 11.06501 8.05956 18.36323l-8.641821 22.198581C334.304414 536.761963 328.945359 540.181853 323.267033 540.181853z" fill="#000000"></path></svg>
