<?xml version="1.0" standalone="no"?><!DOCTYPE svg PUBLIC "-//W3C//DTD SVG 1.1//EN" "http://www.w3.org/Graphics/SVG/1.1/DTD/svg11.dtd">
<svg class="icon" style="" viewBox="0 0 1024 1024" version="1.1" xmlns="http://www.w3.org/2000/svg" p-id="5554"
     width="200" height="200"><defs><style type="text/css"></style></defs><path d="M842.214259 995.188814 842.214259 995.188814c-19.521612 0-42.230824-5.763261-70.324672-14.394848l-5.14109-2.113127c-132.190695-69.832462-348.580047-182.270277-382.366547-195.101513L263.009647 783.579325c-85.400019 0-154.001443-59.404971-154.001443-135.232984L109.008204 404.267347c0-80.896448 74.29203-154.551982 154.001443-154.551982l119.880321 0c35.06154-16.219403 250.668063-132.538619 384.105145-205.179033l1.332345-0.695848c24.806989-11.904121 46.13883-17.72571 65.22656-17.72571 20.794605 0 38.869263 7.18361 52.236712 20.766976 26.748201 27.167756 25.196869 70.816882 24.909319 89.468684l-0.899486 3.447519 0 767.457136c0 28.122501-4.054339 48.049343-14.611789 62.705134C886.90511 981.459115 871.699804 995.188814 842.214259 995.188814zM791.975041 924.922471c18.219967 5.53097 37.9708 10.948353 50.239218 10.948353l0 0c4.228301 0 5.777587-0.63752 5.951549-0.724501-0.102331-0.027629 4.025687-5.41636 4.025687-27.891234l0.042979-771.859399c0.145309-9.239432 0.594541-37.421284-8.717546-46.893007-0.898463-0.927115-3.012613-3.069919-9.962909-3.069919-6.706749 0-18.856463 2.028193-38.869263 11.55722C405.250232 309.034379 398.226259 309.034379 388.465964 309.034379L263.009647 309.034379c-46.921659 0-94.683453 47.15395-94.683453 95.232968l0 244.076948c0 47.501874 48.977481 75.916017 94.683453 75.916017l125.456317 0C397.28584 724.260312 412.085918 724.260312 791.975041 924.922471zM525.88473 343.733669c-8.196683 0-14.82873-6.632047-14.82873-14.829753 0-7.008624 4.865821-12.888542 11.410887-14.423501 13.685697-5.329379 126.570697-64.995293 195.491393-101.866039 20.261463-9.731642 47.935756-20.825304 68.355831-7.994068 13.814634 8.688893 19.680225 25.604144 19.680225 51.700499l0 52.714596c0 8.197706-6.647397 14.829753-14.829753 14.829753-8.196683 0-14.82873-6.632047-14.82873-14.829753l0-52.714596c0-20.216437-3.809769-25.344225-5.807263-26.588565-2.071172-1.27504-10.752902-4.51892-39.5866 9.326413C535.290961 343.733669 530.490631 343.733669 525.88473 343.733669zM791.164582 398.010853c-8.196683 0-14.82873-6.632047-14.82873-14.82873L776.335852 368.352369c0-8.196683 6.632047-14.829753 14.82873-14.829753 8.182356 0 14.829753 6.633071 14.829753 14.829753l0 14.82873C805.995359 391.378805 799.347962 398.010853 791.164582 398.010853zM390.769426 753.919818c-8.197706 0-14.829753-6.632047-14.829753-14.830777L375.939673 294.204625c0-8.196683 6.632047-14.82873 14.829753-14.82873 8.181333 0 14.82873 6.632047 14.82873 14.82873l0 444.884416C405.598156 747.287771 398.950759 753.919818 390.769426 753.919818z" fill="#000000"></path></svg>
