<?xml version="1.0" standalone="no"?><!DOCTYPE svg PUBLIC "-//W3C//DTD SVG 1.1//EN" "http://www.w3.org/Graphics/SVG/1.1/DTD/svg11.dtd">
<svg class="icon" style="" viewBox="0 0 1024 1024" version="1.1" xmlns="http://www.w3.org/2000/svg" p-id="5554"
     width="200" height="200"><defs><style type="text/css"></style></defs><path d="M588.937788 830.003658 260.474918 830.003658c-115.910916 0-210.216769-95.03547-210.216769-211.845872 0-72.838935 38.428218-141.815913 99.077529-179.948395 5.54325-60.367903 52.785204-108.8675 112.601544-116.322285C319.880913 194.363709 445.5818 112.890117 586.758146 112.890117c196.807365 0 356.919992 160.112628 356.919992 356.921016 0 192.650695-154.031119 351.85258-344.860329 358.280989C594.916966 829.65778 591.350744 830.003658 588.937788 830.003658zM276.911262 373.426945c-41.172725 0.025583-75.558883 34.411741-75.558883 76.676333l0.166799 2.629897c0.333598 10.07138-5.132904 19.451004-14.062274 24.133653-51.424206 26.944676-84.642772 82.410941-84.642772 141.289933 0 87.838557 70.721715 159.291936 157.661809 159.291936l321.239352 0c3.733021-1.411139 7.106862-1.731434 9.429767-1.731434 165.257811-2.168386 299.978119-139.3917 299.978119-305.906132 0-167.824263-136.542816-304.367079-304.366056-304.367079-125.240399 0-236.198513 75.199703-282.684244 191.573153-3.989871 9.994632-13.677511 16.525372-24.403806 16.525372C279.028483 373.555881 277.566178 373.46583 276.911262 373.426945zM823.250348 462.125079c-7.250124 0-13.125949-6.620791-13.138228-13.882172-0.014326-6.903224-0.372483-14.164604-1.078565-20.862143-0.77055-7.211239 4.464685-13.869892 11.689227-14.627139 7.121188-0.820692 13.676487 4.387937 14.433734 11.599176 0.807389 7.569396 1.218758 16.089443 1.231037 23.890107 0.013303 7.262404-5.863545 13.882172-13.112646 13.882172C823.274908 462.125079 823.263651 462.125079 823.250348 462.125079zM797.9358 361.494171c-4.644787 0-9.135054-2.463098-11.534707-6.813173-33.974789-61.920258-98.897428-100.373035-169.440064-100.373035-7.262404 0-13.138228-5.876847-13.138228-13.138228s5.875824-13.138228 13.138228-13.138228c80.139202 0 153.889903 43.688012 192.484919 113.99938 3.489474 6.363941 1.155313 14.356986-5.196349 17.847483C802.233686 360.969215 800.0653 361.494171 797.9358 361.494171zM514.764462 697.065949l-0.013303 0c-17.283642 0-33.988092-8.673543-45.856397-23.800056l-99.667977-128.819924c-12.651135-16.115026-15.999392-33.526581-9.109472-47.691185 6.633071-13.651928 21.542642-21.491477 41.019229-21.491477l0.063445 0 48.075949 0 0-41.712007c0-43.187615 29.343305-77.022211 69.914326-77.022211 30.818913 0 54.722322 17.20587 65.986877 46.035476 2.6432 6.762007-1.295506 14.383592-8.04421 17.026792-6.78759 2.6432-14.703887-0.692778-17.347087-7.454786-7.390317-18.912745-20.284999-29.331026-40.454364-29.331026-25.828248 0-43.778062 22.286586-43.778062 50.744731l0 54.851259c0 7.262404-10.738575 13.138228-18.000979 13.138228L401.20101 501.539764c-8.891508 0-15.409968 2.501984-17.449417 6.697539-2.258437 4.631484 0.127913 12.304234 6.197142 20.041452l99.68128 128.83118c6.889921 8.80248 15.833617 13.678534 25.134447 13.678534l0 0c8.852622 0 17.308201-4.554736 23.813359-12.831236l99.526761-129.986493c6.119371-7.813966 8.520047-15.371082 6.337335-19.84907-2.000564-4.118807-8.544607-6.581905-17.500583-6.581905l-51.14382 0c-7.261381 0-13.138228-5.876847-13.138228-13.138228s5.876847-13.138228 13.138228-13.138228l51.14382 0c19.528775 0 34.526351 7.788383 41.133839 21.350261 6.813173 14.011108 3.464915 31.30703-9.198499 47.459918l-99.539041 129.987516C547.64943 688.943968 531.854699 697.065949 514.764462 697.065949zM570.538743 463.433888c-3.412726 0-6.825452-1.436722-9.327436-3.810792-2.360767-2.489704-3.810792-5.91471-3.810792-9.327436 0-3.412726 1.450025-6.825452 3.810792-9.328459 4.862751-4.862751 13.665231-4.862751 18.654872 0 2.501984 2.501984 3.811816 5.91471 3.811816 9.328459 0 3.412726-1.308809 6.838755-3.811816 9.327436C577.378521 461.997166 573.952492 463.433888 570.538743 463.433888z" fill="#000000"></path></svg>
