<?xml version="1.0" standalone="no"?><!DOCTYPE svg PUBLIC "-//W3C//DTD SVG 1.1//EN" "http://www.w3.org/Graphics/SVG/1.1/DTD/svg11.dtd">
<svg class="icon" style="" viewBox="0 0 1024 1024" version="1.1" xmlns="http://www.w3.org/2000/svg" p-id="5554"
     width="200" height="200"><defs><style type="text/css"></style></defs><path d="M194.939319 253.228375c-15.054881 0-27.2619-12.20702-27.2619-27.262924L167.677419 48.762587c0-15.054881 12.20702-27.2619 27.2619-27.2619 15.055904 0 27.2619 12.20702 27.2619 27.2619l0 177.202864C222.20122 241.021356 209.9942 253.228375 194.939319 253.228375zM194.939319 921.149541c-15.054881 0-27.2619-12.208043-27.2619-27.262924L167.677419 471.325625c0-15.055904 12.20702-27.262924 27.2619-27.262924 15.055904 0 27.2619 12.20702 27.2619 27.262924l0 422.562015C222.20122 908.941498 209.9942 921.149541 194.939319 921.149541zM189.747063 497.322719c-77.207429 0-140.010801-62.804395-140.010801-140.010801s62.804395-140.010801 140.010801-140.010801 140.010801 62.804395 140.010801 140.010801S266.954493 497.322719 189.747063 497.322719zM189.747063 271.824919c-47.13553 0-85.487 38.350446-85.487 85.487 0 47.13553 38.350446 85.487 85.487 85.487 47.136553 0 85.487-38.35147 85.487-85.487C275.234063 310.175365 236.883617 271.824919 189.747063 271.824919zM215.106638 325.33667c-0.865717 0-1.757017-0.079818-2.636037-0.252757l-3.794419-0.74599c-7.388271-1.451048-12.20702-8.626471-10.755971-16.000416 1.451048-7.388271 8.598842-12.220323 16.000416-10.755971l3.793396 0.74599c7.388271 1.451048 12.20702 8.625448 10.755971 16.000416C227.192907 320.838216 221.495138 325.33667 215.106638 325.33667zM143.010623 384.573819c-7.534604 0-13.630439-6.096858-13.630439-13.631462 0-26.436092 14.270005-51.062979 37.231973-64.241117 6.535857-3.740184 14.868639-1.50426 18.609847 5.031597 3.753487 6.535857 1.490957 14.869662-5.031597 18.609847-14.522762 8.332782-23.548322 23.8942-23.548322 40.599673C156.642085 378.476961 150.545226 384.573819 143.010623 384.573819zM494.822271 498.587526c-15.054881 0-27.2619-12.20702-27.2619-27.2619L467.56037 48.762587c0-15.054881 12.20702-27.2619 27.2619-27.2619 15.055904 0 27.2619 12.20702 27.2619 27.2619l0 422.562015C522.083148 486.380506 509.878175 498.587526 494.822271 498.587526zM494.822271 921.149541c-15.054881 0-27.2619-12.208043-27.2619-27.262924L467.56037 716.684776c0-15.055904 12.20702-27.262924 27.2619-27.262924 15.055904 0 27.2619 12.20702 27.2619 27.262924l0 177.202864C522.083148 908.941498 509.878175 921.149541 494.822271 921.149541zM489.630015 742.680846c-77.207429 0-140.010801-62.803371-140.010801-140.010801 0-77.206406 62.804395-140.010801 140.010801-140.010801 77.206406 0 140.010801 62.804395 140.010801 140.010801C629.641839 679.877475 566.837444 742.680846 489.630015 742.680846zM489.630015 517.183046c-47.136553 0-85.487 38.350446-85.487 85.487s38.350446 85.488023 85.487 85.488023c47.13553 0 85.487-38.352493 85.487-85.488023S536.766568 517.183046 489.630015 517.183046zM514.988566 570.69582c-0.865717 0-1.757017-0.079818-2.635013-0.251733l-3.794419-0.74599c-7.387247-1.451048-12.205996-8.626471-10.754948-16.001439 1.451048-7.40055 8.612145-12.246929 16.000416-10.755971l3.794419 0.74599c7.387247 1.451048 12.205996 8.625448 10.754948 16.000416C527.075859 566.196343 521.37809 570.69582 514.988566 570.69582zM442.893574 629.931946c-7.534604 0-13.631462-6.096858-13.631462-13.630439 0-26.437116 14.270005-51.062979 37.231973-64.241117 6.54916-3.75451 14.869662-1.505283 18.609847 5.031597 3.753487 6.535857 1.490957 14.868639-5.031597 18.609847-14.522762 8.333806-23.548322 23.895223-23.548322 40.600697C456.524013 623.835088 450.427154 629.931946 442.893574 629.931946zM808.33566 157.811212c-15.054881 0-27.2619-12.20702-27.2619-27.262924L781.07376 48.762587c0-15.054881 12.20702-27.2619 27.2619-27.2619 15.055904 0 27.262924 12.20702 27.262924 27.2619l0 81.785701C835.597561 145.604192 823.391565 157.811212 808.33566 157.811212zM808.33566 921.149541c-15.054881 0-27.2619-12.208043-27.2619-27.262924L781.07376 375.907439c0-15.055904 12.20702-27.262924 27.2619-27.262924 15.055904 0 27.262924 12.20702 27.262924 27.262924l0 517.979178C835.597561 908.941498 823.391565 921.149541 808.33566 921.149541zM803.145451 401.905556c-77.207429 0-140.010801-62.804395-140.010801-140.010801S725.936999 121.882931 803.145451 121.882931c77.206406 0 140.010801 62.804395 140.010801 140.010801S880.351857 401.905556 803.145451 401.905556zM803.145451 176.406732c-47.136553 0-85.488023 38.35147-85.488023 85.487s38.35147 85.487 85.488023 85.487c47.13553 0 85.485977-38.35147 85.485977-85.487S850.280981 176.406732 803.145451 176.406732zM828.502979 229.919507c-0.865717 0-1.75804-0.079818-2.635013-0.252757l-3.794419-0.74599c-7.388271-1.451048-12.20702-8.626471-10.755971-16.000416 1.451048-7.388271 8.612145-12.220323 16.001439-10.755971l3.793396 0.74599c7.388271 1.451048 12.20702 8.625448 10.755971 16.000416C840.589248 225.420029 834.892503 229.919507 828.502979 229.919507zM756.407987 289.156656c-7.53358 0-13.631462-6.096858-13.631462-13.631462 0-26.436092 14.270005-51.062979 37.232996-64.241117 6.535857-3.726881 14.856359-1.490957 18.609847 5.031597 3.753487 6.535857 1.490957 14.868639-5.031597 18.609847-14.522762 8.332782-23.548322 23.8942-23.548322 40.599673C770.038426 283.059797 763.941568 289.156656 756.407987 289.156656z" fill="#000000"></path></svg>
