<?xml version="1.0" standalone="no"?><!DOCTYPE svg PUBLIC "-//W3C//DTD SVG 1.1//EN" "http://www.w3.org/Graphics/SVG/1.1/DTD/svg11.dtd">
<svg class="icon" style="" viewBox="0 0 1024 1024" version="1.1" xmlns="http://www.w3.org/2000/svg" p-id="5554"
     width="200" height="200"><defs><style type="text/css"></style></defs><path d="M502.342548 975.426725c-119.315456 0-231.493352-46.478568-315.862901-130.840954C12.320095 670.411893 12.320095 387.008264 186.493973 212.834386 270.863523 128.47814 383.040395 82.000596 502.370177 82.000596c119.315456 0 231.493352 46.476521 315.848575 130.833791 84.369549 84.382852 130.833791 196.560748 130.833791 315.876204S902.588301 760.202918 818.218752 844.559165C733.850226 928.948157 621.658004 975.426725 502.342548 975.426725zM502.370177 137.372717c-104.539938 0-202.807009 40.718377-276.726555 114.611318C73.072761 404.581502 73.059458 652.837632 225.630319 805.436122c73.906244 73.900104 172.186617 114.618481 276.713252 114.618481s202.807009-40.718377 276.726555-114.64611c73.906244-73.891917 114.610294-172.173314 114.610294-276.697903 0-104.525612-40.704051-202.805986-114.610294-276.725532C705.163883 178.091094 606.895789 137.372717 502.370177 137.372717zM116.737236 487.883743c-0.729617 0-1.473561-0.054235-2.217505-0.189312-11.044544-1.784646-22.278399-3.217275-33.404808-4.272303-7.611352-0.703011-13.207813-7.461949-12.491499-15.059997 0.716314-7.624654 7.407714-13.545504 15.086603-12.491499 11.734252 1.108241 23.576975 2.622734 35.21606 4.488221 7.543813 1.216711 12.68081 8.327666 11.464099 15.871479C129.296273 483.044528 123.415332 487.883743 116.737236 487.883743zM540.181341 855.942423c-5.907547 0-11.382235-3.813862-13.221116-9.761318-7.02909-22.846334-15.749706-45.421492-25.888624-67.052139-3.243881-6.947226-0.270153-15.167444 6.65149-18.411325 6.948249-3.243881 15.167444-0.270153 18.412348 6.65149 10.69355 22.818705 19.871583 46.583968 27.28032 70.673619 2.257413 7.30129-1.838881 15.033391-9.151427 17.304108C542.912545 855.752088 541.533129 855.942423 540.181341 855.942423zM477.671659 722.619952c-4.514827 0-8.949836-2.216481-11.599176-6.271844-13.018501-19.954471-27.619034-39.231513-43.408649-57.347103-5.02955-5.758144-4.420683-14.518668 1.338485-19.547195 5.758144-5.028527 14.505365-4.40738 19.533892 1.350764 16.627702 19.061125 32.012088 39.393195 45.720298 60.400648 4.177136 6.407943 2.365884 14.980179-4.028757 19.168572C482.89052 721.890334 480.266763 722.619952 477.671659 722.619952zM380.878149 611.525738c-3.230578 0-6.461155-1.109264-9.083889-3.40761-18.128893-15.763009-37.419238-30.335912-57.359382-43.341111-6.407943-4.16281-8.205892-12.734022-4.042059-19.141966 4.177136-6.407943 12.774955-8.192589 19.155269-4.056386 21.008476 13.70821 41.339524 29.065989 60.414975 45.667086 5.77247 5.028527 6.380314 13.760398 1.36509 19.520589C388.583644 609.928357 384.744199 611.525738 380.878149 611.525738zM257.479701 531.142989c-1.973958 0-3.961218-0.432859-5.866614-1.324158-21.670555-10.138918-44.233434-18.818601-67.079768-25.847691-7.300266-2.24411-11.409864-9.977235-9.165754-17.304108 2.258437-7.272637 10.018168-11.383258 17.290805-9.165754 24.076348 7.407714 47.855938 16.573467 70.688969 27.253714 6.934946 3.243881 9.909697 11.490705 6.678096 18.412348C267.672854 528.195867 262.684236 531.142989 257.479701 531.142989zM561.392432 962.501344c-7.05672 0-13.087063-5.380544-13.776771-12.545734-1.052982-11.138688-2.486634-22.38687-4.257977-33.417087-1.215688-7.54279 3.920286-14.653745 11.464099-15.871479 7.516184-1.297552 14.653745 3.921309 15.870456 11.464099 1.865487 11.625782 3.366677 23.468504 4.489244 35.201733 0.715291 7.624654-4.866844 14.384615-12.477172 15.087627C562.257126 962.475761 561.824267 962.501344 561.392432 962.501344zM440.251398 164.328649c-6.678096 0-12.558014-4.839215-13.653975-11.653411-1.865487-11.625782-3.37998-23.468504-4.488221-35.201733-0.729617-7.598049 4.853541-14.356986 12.463869-15.086603 7.746428-0.946558 14.370289 4.866844 15.099906 12.463869 1.055029 11.166317 2.487657 22.413476 4.259 33.418111 1.216711 7.570419-3.920286 14.654768-11.464099 15.871479C441.725982 164.274414 440.981015 164.328649 440.251398 164.328649zM808.349987 587.786057c-1.338485 0-2.716878-0.190335-4.069689-0.593518-24.076348-7.408737-47.856961-16.601096-70.688969-27.307949-6.921643-3.245927-9.895371-11.464099-6.65149-18.413372 3.245927-6.892991 11.437493-9.895371 18.413372-6.650467 21.656229 10.166547 44.219107 18.871813 67.065442 25.901926 7.313569 2.24411 11.408841 10.002818 9.16473 17.304108C819.746548 583.974241 814.27186 587.786057 808.349987 587.786057zM674.989653 525.276375c-2.596128 0-5.218862-0.729617-7.557116-2.24411-21.036106-13.733792-41.35385-29.119201-60.401672-45.719274-5.759167-5.02955-6.353708-13.789051-1.338485-19.548218 5.042853-5.759167 13.789051-6.327102 19.534915-1.325182 18.08796 15.763009 37.378306 30.362518 57.345056 43.395346 6.39464 4.163833 8.206916 12.761652 4.02978 19.168572C683.937442 523.059893 679.50448 525.276375 674.989653 525.276375zM563.919998 428.482865c-3.852748 0-7.705496-1.595334-10.435677-4.758374-16.587793-19.034519-31.94455-39.366589-45.667086-60.401672-4.16281-6.407943-2.364861-14.978133 4.043083-19.168572 6.407943-4.163833 14.978133-2.352581 19.155269 4.055362 13.019525 19.953448 27.605731 39.258119 43.341111 57.346079 5.02955 5.759167 4.420683 14.518668-1.350764 19.520589C570.382177 427.374624 567.150576 428.482865 563.919998 428.482865zM483.53725 305.084417c-5.204535 0-10.178827-2.947122-12.544711-7.975649-10.665921-22.792099-19.831674-46.584991-27.240411-70.674643-2.24411-7.327896 1.865487-15.059997 9.179057-17.304108 7.313569-2.24411 15.045671 1.865487 17.289782 9.165754 7.02909 22.873963 15.721053 45.450145 25.847691 67.079768 3.244904 6.921643 0.25685 15.140839-6.664793 18.385742C487.512794 304.652582 485.512231 305.084417 483.53725 305.084417zM914.891512 609.011474c-0.433882 0-0.865717-0.027629-1.310855-0.081864-11.721973-1.081635-23.576975-2.596128-35.21606-4.489244-7.543813-1.215688-12.681834-8.326643-11.464099-15.869433 1.216711-7.544837 8.300037-12.709463 15.871479-11.464099 11.044544 1.784646 22.278399 3.218298 33.403784 4.27128 7.611352 0.729617 13.207813 7.462972 12.477172 15.087627C927.989831 603.628884 921.947208 609.011474 914.891512 609.011474z" fill="#000000"></path></svg>
