<?xml version="1.0" standalone="no"?><!DOCTYPE svg PUBLIC "-//W3C//DTD SVG 1.1//EN" "http://www.w3.org/Graphics/SVG/1.1/DTD/svg11.dtd">
<svg class="icon" style="" viewBox="0 0 1024 1024" version="1.1" xmlns="http://www.w3.org/2000/svg" p-id="5554"
     width="200" height="200"><defs><style type="text/css"></style></defs><path d="M511.245312 939.232384c-20.50808 0-40.075741-10.344602-53.634548-28.423353L83.065346 411.510308c-24.439622-32.577976-25.654286-84.488253-2.77009-118.189819l107.59553-155.599847c20.468171-30.122041 65.898873-52.955072 105.570407-52.955072l435.32469 0c39.682791 0 85.140099 22.806425 105.72595 53.05945L941.83414 294.131971c23.224957 34.092469 22.050202 84.566024-2.638083 117.509321L564.617893 910.964574C551.163463 928.938947 531.700179 939.232384 511.245312 939.232384zM293.461193 138.27118c-21.971407 0-50.682309 13.871939-61.445444 29.703509L124.420219 323.574536c-9.992585 14.734586-9.365298 41.433668 1.436722 55.828516l374.572024 499.298723c6.687306 8.933463 14.70798 9.06547 21.395286 0.182149l374.578164-499.349889c10.842952-14.47262 11.44261-40.257889 1.280156-55.20123L790.336728 168.001295c-10.816347-15.883759-39.527249-29.730115-61.549821-29.730115L293.461193 138.27118zM935.799704 365.661074 119.874693 365.661074c-7.380084 0-13.375635-5.983271-13.375635-13.375635s5.995551-13.375635 13.375635-13.375635l815.925011 0c7.393387 0 13.374612 5.983271 13.374612 13.375635S943.193091 365.661074 935.799704 365.661074zM489.926774 360.567056c-3.213181 0-6.426363-1.149173-9.013281-3.500731L233.765603 131.452891c-5.447059-4.964058-5.838985-13.428847-0.861624-18.888186s13.441127-5.852288 18.901489-0.862647l247.160169 225.614457c5.460362 4.989641 5.825682 13.45443 0.862647 18.888186C497.188154 359.103728 493.557464 360.567056 489.926774 360.567056zM523.679505 360.567056c-3.63069 0-7.235798-1.463328-9.873882-4.362354-4.990664-5.433756-4.597715-13.898545 0.862647-18.888186l131.433448-119.965256c5.459339-4.989641 13.923104-4.597715 18.888186 0.861624 4.988618 5.459339 4.596691 13.924127-0.862647 18.888186l-131.433448 119.965256C530.133497 359.417883 526.89371 360.567056 523.679505 360.567056zM689.493995 209.226209c-3.631714 0-7.236821-1.463328-9.874905-4.336772-4.989641-5.460362-4.597715-13.924127 0.86367-18.913768l9.299807-8.491395c5.460362-4.963035 13.924127-4.597715 18.888186 0.836041 4.989641 5.460362 4.597715 13.924127-0.836041 18.913768l-9.325389 8.490372C695.946964 208.076012 692.733782 209.226209 689.493995 209.226209zM730.980875 171.344436c-3.631714 0-7.236821-1.462305-9.874905-4.362354-4.989641-5.433756-4.597715-13.898545 0.861624-18.888186l39.841404-36.391838c5.485945-4.989641 13.924127-4.597715 18.914792 0.862647 4.963035 5.460362 4.596691 13.924127-0.862647 18.888186l-39.866986 36.390815C737.433844 170.195264 734.194056 171.344436 730.980875 171.344436zM315.988256 405.919986c-5.348821 0-10.390651-3.213181-12.45466-8.490372l-16.080234-40.257889c-2.690272-6.871501 0.705058-14.630209 7.576559-17.347087 6.909363-2.690272 14.655791 0.731664 17.327644 7.602142l16.092513 40.257889c2.690272 6.871501-0.705058 14.630209-7.576559 17.320481C319.252603 405.632437 317.607126 405.919986 315.988256 405.919986zM333.700663 451.167516c-5.355985 0-10.398838-3.213181-12.462846-8.490372l-4.702092-11.965519c-2.691295-6.871501 0.705058-14.629185 7.575536-17.320481 6.897084-2.716878 14.656815 0.705058 17.347087 7.549953l4.676509 11.964496c2.716878 6.897084-0.679475 14.655791-7.576559 17.347087C336.966033 450.880991 335.319533 451.167516 333.700663 451.167516zM511.114328 904.510582c-5.329379 0-10.397814-3.212158-12.461823-8.490372L339.265402 488.76174c-2.690272-6.870478 0.705058-14.629185 7.575536-17.320481 6.870478-2.716878 14.655791 0.705058 17.347087 7.576559l159.388127 407.259494c2.690272 6.869455-0.705058 14.629185-7.575536 17.321504C514.378675 904.224056 512.734222 904.510582 511.114328 904.510582zM511.114328 904.510582c-1.594311 0-3.239787-0.286526-4.833075-0.887206-6.871501-2.663666-10.29446-10.423397-7.628748-17.320481l206.595288-532.972661c2.664689-6.89606 10.425444-10.31902 17.294898-7.65433 6.89606 2.664689 10.31902 10.42442 7.653307 17.320481L523.601734 895.969045C521.537725 901.272841 516.470313 904.510582 511.114328 904.510582z" fill="#000000"></path></svg>
