<?xml version="1.0" standalone="no"?><!DOCTYPE svg PUBLIC "-//W3C//DTD SVG 1.1//EN" "http://www.w3.org/Graphics/SVG/1.1/DTD/svg11.dtd">
<svg class="icon" style="" viewBox="0 0 1024 1024" version="1.1" xmlns="http://www.w3.org/2000/svg" p-id="5554"
     width="200" height="200"><defs><style type="text/css"></style></defs><path d="M772.223185 950.124456c-0.065492 0-0.171915 0-0.265036 0L245.653351 950.124456c-8.393157 0-16.311501-3.906983-21.432125-10.55745-5.107321-6.65149-6.848988-15.309684-4.684696-23.438828 7.430226-27.89942 182.306092-684.876326 213.252919-772.782422 13.09218-37.190017 35.131125-86.640266 75.157747-86.640266 39.73805 0 61.511959 48.606021 74.433246 85.174891 32.504298 91.931782 198.881606 711.586664 214.718293 770.605849 1.385557 3.244904 2.15099 6.836709 2.15099 10.609639C799.249725 938.00851 787.161409 950.124456 772.223185 950.124456zM280.836665 896.067282l455.871655 0c-37.256532-138.511657-176.87029-655.763265-205.296713-736.173642-10.649548-30.15581-19.227923-42.402739-23.476691-47.061852-4.341888 4.724605-13.171997 17.262152-24.15105 48.459688C457.481827 236.015342 317.947887 757.055229 280.836665 896.067282zM863.361905 950.124456 160.637072 950.124456c-14.925944 0-27.028587-12.115945-27.028587-27.028587 0-14.939247 12.101619-27.027563 27.028587-27.027563l702.725856 0c14.925944 0 27.028587 12.088316 27.028587 27.027563C890.390491 938.00851 878.287849 950.124456 863.361905 950.124456zM714.709283 774.435061 282.26213 774.435061c-7.469112 0-13.513782-6.043646-13.513782-13.513782 0-7.469112 6.04467-13.513782 13.513782-13.513782l432.447153 0c7.469112 0 13.512758 6.04467 13.512758 13.513782C728.222041 768.391415 722.177372 774.435061 714.709283 774.435061zM674.166915 571.72629l-94.598518 0c-7.469112 0-13.512758-6.04467-13.512758-13.514805s6.043646-13.513782 13.512758-13.513782l94.598518 0c7.469112 0 13.512758 6.043646 13.512758 13.513782S681.636027 571.72629 674.166915 571.72629zM525.499967 571.72629 336.304977 571.72629c-7.470135 0-13.514805-6.04467-13.514805-13.514805s6.04467-13.513782 13.514805-13.513782l189.19499 0c7.469112 0 13.513782 6.043646 13.513782 13.513782S532.969079 571.72629 525.499967 571.72629zM620.110765 369.017518 403.887188 369.017518c-7.469112 0-13.513782-6.04467-13.513782-13.514805 0-7.469112 6.04467-13.513782 13.513782-13.513782l216.223576 0c7.470135 0 13.514805 6.04467 13.514805 13.513782C633.62557 362.972848 627.5809 369.017518 620.110765 369.017518z" fill="#000000"></path></svg>
