<?xml version="1.0" standalone="no"?><!DOCTYPE svg PUBLIC "-//W3C//DTD SVG 1.1//EN" "http://www.w3.org/Graphics/SVG/1.1/DTD/svg11.dtd">
<svg class="icon" style="" viewBox="0 0 1024 1024" version="1.1" xmlns="http://www.w3.org/2000/svg" p-id="5554"
     width="200" height="200"><defs><style type="text/css"></style></defs><path d="M943.546132 861.780385c0 52.617381-42.658565 95.274924-95.274924 95.274924L145.401066 957.055309c-52.616358 0-95.2739-42.658565-95.2739-95.274924L50.127166 145.159054c0-52.617381 42.657542-95.274924 95.2739-95.274924l702.869119 0c52.617381 0 95.274924 42.657542 95.274924 95.274924L943.545108 861.780385zM888.564913 145.159054c0-22.254863-18.039865-40.294728-40.294728-40.294728L145.401066 104.864326c-22.254863 0-40.294728 18.039865-40.294728 40.294728L105.106338 861.780385c0 22.254863 18.039865 40.294728 40.294728 40.294728l702.869119 0c22.254863 0 40.294728-18.039865 40.294728-40.294728L888.564913 145.159054zM237.883387 677.962869c-4.630461 0-9.141194-2.336208-11.731182-6.577812-9.073656-14.817474-16.939811-30.496571-23.36822-46.563502-2.819209-7.04751 0.603751-15.046694 7.65126-17.865903 7.074116-2.819209 15.059997 0.604774 17.865903 7.664563 5.865591 14.631232 13.032828 28.912493 21.301142 42.429345 3.960195 6.469342 1.919722 14.925944-4.549619 18.886139C242.809583 677.318186 240.327042 677.962869 237.883387 677.962869zM491.68072 820.309878c-75.677587 0-148.616806-27.489074-205.381647-77.409021-5.691629-5.019317-6.255471-13.70514-1.235131-19.395746 5.007037-5.691629 13.70514-6.26775 19.395746-1.248434 51.731198 45.503357 118.227682 70.563102 187.221032 70.563102 156.36221 0 283.582707-127.220497 283.582707-283.582707 0-156.361187-127.220497-283.582707-283.582707-283.582707-156.37449 0-283.59601 127.220497-283.59601 283.582707 0 7.597025-6.148024 13.745049-13.745049 13.745049-7.583722 0-13.745049-6.148024-13.745049-13.745049 0-171.529655 139.556453-311.071781 311.085084-311.071781 171.529655 0 311.071781 139.54315 311.071781 311.071781C802.753525 680.767751 663.210375 820.309878 491.68072 820.309878zM381.709073 589.453023c-44.228317 0-80.201623-35.986609-80.201623-80.214926 0-44.227294 35.973306-80.213903 80.201623-80.213903s80.214926 35.986609 80.214926 80.213903C461.922976 553.466414 425.936367 589.453023 381.709073 589.453023zM381.709073 456.513268c-29.059849 0-52.711526 23.650653-52.711526 52.723805s23.650653 52.724829 52.711526 52.724829c29.074176 0 52.724829-23.651676 52.724829-52.724829S410.782226 456.513268 381.709073 456.513268zM601.640088 589.453023c-44.228317 0-80.214926-35.986609-80.214926-80.214926 0-44.227294 35.986609-80.213903 80.214926-80.213903s80.2006 35.986609 80.2006 80.213903C681.840688 553.466414 645.868405 589.453023 601.640088 589.453023zM601.640088 456.513268c-29.073152 0-52.724829 23.650653-52.724829 52.723805s23.651676 52.724829 52.724829 52.724829c29.059849 0 52.711526-23.651676 52.711526-52.724829S630.700961 456.513268 601.640088 456.513268z" fill="#000000"></path></svg>
