<?xml version="1.0" standalone="no"?><!DOCTYPE svg PUBLIC "-//W3C//DTD SVG 1.1//EN" "http://www.w3.org/Graphics/SVG/1.1/DTD/svg11.dtd">
<svg class="icon" style="" viewBox="0 0 1024 1024" version="1.1" xmlns="http://www.w3.org/2000/svg" p-id="5554"
     width="200" height="200"><defs><style type="text/css"></style></defs><path d="M720.275046 956.335924 333.570703 956.335924c-95.126544 0-148.269905-20.939915-148.269905-131.341351L185.300798 502.951927c0-14.728446 13.530155-26.669406 28.257577-26.669406l600.057545 0c14.728446 0 25.080212 11.94096 25.080212 26.669406l0 322.042647C838.697155 920.316569 829.932538 956.335924 720.275046 956.335924zM238.63961 529.621333l0 295.373241c0 67.794036 13.803377 78.003562 94.931093 78.003562l386.704342 0c66.672492 0 65.084321 0 65.084321-78.003562L785.359366 529.621333 238.63961 529.621333zM305.313126 742.982722c-7.370875 0-13.334703-5.963829-13.334703-13.334703L291.978423 582.961168c0-7.370875 7.552-13.334703 14.922874-13.334703l66.673515 0c7.357572 0 13.334703 5.963829 13.334703 13.334703 0 7.368828-5.977132 13.332656-13.334703 13.332656l-54.926984 0 0 133.353171C318.647829 737.018893 312.670697 742.982722 305.313126 742.982722zM305.313126 809.655214c-7.370875 0-13.334703-5.963829-13.334703-13.334703L291.978423 782.985808c0-7.370875 5.963829-13.334703 13.334703-13.334703 7.357572 0 13.334703 5.963829 13.334703 13.334703l0 13.334703C318.647829 803.691385 312.670697 809.655214 305.313126 809.655214zM718.685851 516.28663c-14.728446 0-26.669406-11.94096-26.669406-26.669406L692.016445 293.883307c0-96.28595-75.240635-177.6347-166.186973-177.6347l-1.641383 0c-94.449115 0-178.870854 83.002412-178.870854 177.6347l0 195.73494c0 14.728446-11.94096 26.669406-26.669406 26.669406s-26.669406-11.94096-26.669406-26.669406L291.978423 293.883307c0-123.046431 109.346407-230.972489 232.209666-230.972489L525.829472 62.910818c121.924887 0 219.525786 103.616916 219.525786 230.972489l0 195.73494C745.355257 504.34567 733.414297 516.28663 718.685851 516.28663z" fill="#000000"></path></svg>
