<?xml version="1.0" standalone="no"?><!DOCTYPE svg PUBLIC "-//W3C//DTD SVG 1.1//EN" "http://www.w3.org/Graphics/SVG/1.1/DTD/svg11.dtd">
<svg class="icon" style="" viewBox="0 0 1024 1024" version="1.1" xmlns="http://www.w3.org/2000/svg" p-id="5554"
     width="200" height="200"><defs><style type="text/css"></style></defs><path d="M479.593428 917.941476c-15.180747 0-27.489074-12.30935-27.489074-27.489074L452.104353 52.018747c0-15.180747 12.308327-27.490098 27.489074-27.490098s27.490098 12.308327 27.490098 27.490098l0 838.433654C507.083525 905.632125 494.774175 917.941476 479.593428 917.941476zM173.582919 701.94405c-9.073656 0-17.945721-4.483104-23.194258-12.684904-8.17417-12.791327-4.429893-29.797653 8.362458-37.971823l606.354971-387.498428L465.029734 75.320453c-12.872169-8.040117-16.791431-25.006534-8.738012-37.878702 8.05342-12.858866 25.006534-16.791431 37.892005-8.724709L831.132876 240.231363c7.986905 4.992711 12.872169 13.745049 12.912078 23.167652 0.039909 9.422603-4.737908 18.21485-12.684904 23.301705L188.361507 697.621605C183.770955 700.54826 178.644191 701.94405 173.582919 701.94405zM664.65119 276.767488c-2.482541 0-5.007037-0.671289-7.274684-2.093684l-22.320355-13.959943c-6.429433-4.02671-8.389064-12.496615-4.363378-18.939351 4.013407-6.442736 12.497639-8.402367 18.939351-4.362354l22.322401 13.959943c6.429433 4.02671 8.388041 12.496615 4.362354 18.939351C673.711544 274.486538 669.228439 276.767488 664.65119 276.767488zM612.960924 244.446361c-2.483564 0-5.007037-0.671289-7.274684-2.093684l-67.703985-42.335201c-6.442736-4.02671-8.389064-12.496615-4.362354-18.939351 4.013407-6.429433 12.483312-8.402367 18.939351-4.362354l67.703985 42.335201c6.429433 4.02671 8.388041 12.496615 4.362354 18.939351C622.021278 242.164389 617.538173 244.446361 612.960924 244.446361zM479.593428 917.350005c-9.113565 0-18.026562-4.523013-23.260773-12.777001-8.120958-12.83226-4.309142-29.811979 8.523117-37.931914l303.499315-192.186114L161.771919 286.834774c-12.791327-8.17417-16.536628-25.180496-8.362458-37.972846 8.17417-12.778024 25.167193-16.510022 37.971823-8.362458l642.999566 410.895301c7.918343 5.060249 12.697183 13.824867 12.68388 23.219841-0.013303 9.4093-4.844332 18.147312-12.777001 23.168676L494.264569 913.082818C489.700623 915.980821 484.613768 917.350005 479.593428 917.350005z" fill="#000000"></path></svg>
