<?xml version="1.0" standalone="no"?><!DOCTYPE svg PUBLIC "-//W3C//DTD SVG 1.1//EN" "http://www.w3.org/Graphics/SVG/1.1/DTD/svg11.dtd">
<svg class="icon" style="" viewBox="0 0 1024 1024" version="1.1" xmlns="http://www.w3.org/2000/svg" p-id="5554"
     width="200" height="200"><defs><style type="text/css"></style></defs><path d="M680.531879 777.337157 311.695486 777.337157c-52.361555 0-79.538521-32.345686-79.538521-78.666664L232.156966 329.8341c0-46.839795 28.635177-99.215676 79.538521-99.215676l368.837416 0c50.903344 0 98.343819 52.374858 98.343819 99.215676l0 368.837416C778.875698 744.991472 732.894458 777.337157 680.531879 777.337157zM311.695486 283.956214c-17.306154 0-26.200732 23.583115-26.200732 45.876863l0 368.837416c0 22.032806 12.904914 25.328875 26.200732 25.328875l368.837416 0c13.295817 0 45.005007-3.296069 45.005007-25.328875L725.537909 329.8341c0-22.293749-27.697829-45.876863-45.005007-45.876863L311.695486 283.957237zM516.115226 350.629729l-13.33368 0c-7.370875 0-13.334703-5.964852-13.334703-13.334703s5.964852-13.334703 13.334703-13.334703l13.33368 0c7.370875 0 13.334703 5.963829 13.334703 13.334703S523.4861 350.629729 516.115226 350.629729zM325.498864 457.30633c-7.370875 0-13.334703-5.963829-13.334703-13.334703l0-31.005155c0-43.754526-9.402137-89.00615 64.771189-89.00615l72.506361 0c7.370875 0 13.334703 5.963829 13.334703 13.334703s-5.964852 13.334703-13.334703 13.334703l-72.506361 0c-47.50392 0-38.102806 15.70468-38.102806 62.336744l0 31.005155C338.833567 451.342502 332.869738 457.30633 325.498864 457.30633zM916.154271 337.295026l-66.672492 0c-14.728446 0-26.669406-11.94096-26.669406-26.669406s11.941983-26.669406 26.669406-26.669406l66.672492 0c14.728446 0 26.669406 11.94096 26.669406 26.669406S930.882718 337.295026 916.154271 337.295026zM916.154271 483.975736l-66.672492 0c-14.728446 0-26.669406-11.94096-26.669406-26.669406s11.941983-26.669406 26.669406-26.669406l66.672492 0c14.728446 0 26.669406 11.94096 26.669406 26.669406S930.882718 483.975736 916.154271 483.975736zM916.154271 617.321744l-66.672492 0c-14.728446 0-26.669406-11.94096-26.669406-26.669406s11.941983-26.669406 26.669406-26.669406l66.672492 0c14.728446 0 26.669406 11.94096 26.669406 26.669406S930.882718 617.321744 916.154271 617.321744zM916.154271 737.333048l-66.672492 0c-14.728446 0-26.669406-11.94096-26.669406-26.669406s11.941983-26.669406 26.669406-26.669406l66.672492 0c14.728446 0 26.669406 11.941983 26.669406 26.669406S930.882718 737.333048 916.154271 737.333048zM298.829458 190.614315c-14.728446 0-26.669406-11.94096-26.669406-26.669406L272.160051 97.272417c0-14.728446 11.94096-26.669406 26.669406-26.669406s26.669406 11.94096 26.669406 26.669406l0 66.672492C325.498864 178.673355 313.55688 190.614315 298.829458 190.614315zM432.175465 190.614315c-14.728446 0-26.669406-11.94096-26.669406-26.669406L405.506059 97.272417c0-14.728446 11.94096-26.669406 26.669406-26.669406s26.669406 11.94096 26.669406 26.669406l0 66.672492C458.844871 178.673355 446.903911 190.614315 432.175465 190.614315zM578.857199 190.614315c-14.728446 0-26.669406-11.94096-26.669406-26.669406L552.187793 97.272417c0-14.728446 11.941983-26.669406 26.669406-26.669406s26.668383 11.94096 26.668383 26.669406l0 66.672492C605.524558 178.673355 593.584622 190.614315 578.857199 190.614315zM698.86748 190.614315c-14.728446 0-26.669406-11.94096-26.669406-26.669406L672.198074 97.272417c0-14.728446 11.94096-26.669406 26.669406-26.669406s26.669406 11.94096 26.669406 26.669406l0 66.672492C725.537909 178.673355 713.595926 190.614315 698.86748 190.614315zM298.829458 937.358711c-14.728446 0-26.669406-11.954263-26.669406-26.669406l0-66.672492c0-14.734586 11.94096-26.675546 26.669406-26.675546s26.669406 11.94096 26.669406 26.675546l0 66.672492C325.498864 925.404448 313.55688 937.358711 298.829458 937.358711zM432.175465 937.358711c-14.728446 0-26.669406-11.954263-26.669406-26.669406l0-66.672492c0-14.734586 11.94096-26.675546 26.669406-26.675546s26.669406 11.94096 26.669406 26.675546l0 66.672492C458.844871 925.404448 446.903911 937.358711 432.175465 937.358711zM578.857199 937.358711c-14.728446 0-26.669406-11.954263-26.669406-26.669406l0-66.672492c0-14.734586 11.941983-26.675546 26.669406-26.675546s26.668383 11.94096 26.668383 26.675546l0 66.672492C605.524558 925.404448 593.584622 937.358711 578.857199 937.358711zM698.86748 937.358711c-14.728446 0-26.669406-11.954263-26.669406-26.669406l0-66.672492c0-14.734586 11.94096-26.675546 26.669406-26.675546s26.669406 11.94096 26.669406 26.675546l0 66.672492C725.537909 925.404448 713.595926 937.358711 698.86748 937.358711zM142.74661 337.295026 76.074118 337.295026c-14.728446 0-26.669406-11.94096-26.669406-26.669406s11.94096-26.669406 26.669406-26.669406l66.672492 0c14.728446 0 26.669406 11.94096 26.669406 26.669406S157.475056 337.295026 142.74661 337.295026zM142.74661 483.975736 76.074118 483.975736c-14.728446 0-26.669406-11.94096-26.669406-26.669406s11.94096-26.669406 26.669406-26.669406l66.672492 0c14.728446 0 26.669406 11.94096 26.669406 26.669406S157.475056 483.975736 142.74661 483.975736zM142.74661 617.321744 76.074118 617.321744c-14.728446 0-26.669406-11.94096-26.669406-26.669406s11.94096-26.669406 26.669406-26.669406l66.672492 0c14.728446 0 26.669406 11.94096 26.669406 26.669406S157.475056 617.321744 142.74661 617.321744zM142.74661 737.333048 76.074118 737.333048c-14.728446 0-26.669406-11.94096-26.669406-26.669406s11.94096-26.669406 26.669406-26.669406l66.672492 0c14.728446 0 26.669406 11.941983 26.669406 26.669406S157.475056 737.333048 142.74661 737.333048z" fill="#000000"></path></svg>
