<?xml version="1.0" standalone="no"?><!DOCTYPE svg PUBLIC "-//W3C//DTD SVG 1.1//EN" "http://www.w3.org/Graphics/SVG/1.1/DTD/svg11.dtd">
<svg class="icon" style="" viewBox="0 0 1024 1024" version="1.1" xmlns="http://www.w3.org/2000/svg" p-id="5554"
     width="200" height="200"><defs><style type="text/css"></style></defs><path d="M859.723028 809.80871l-68.609611 0c-14.950504 0-27.073612-12.135388-27.073612-27.073612 0-14.963807 12.123109-27.072589 27.073612-27.072589l68.609611 0c20.766976 0 44.839231-20.965497 44.839231-43.967374L904.562259 371.434567c0-23.252587-25.117051-35.414581-44.839231-35.414581L153.965116 336.019986c-19.723204 0-34.529421 12.161994-34.529421 35.414581l0 340.260567c0 23.001877 13.761422 43.967374 34.529421 43.967374l82.144882 0c14.950504 0 27.073612 12.108782 27.073612 27.072589 0 14.938224-12.122085 27.073612-27.073612 27.073612l-82.144882 0c-50.868551 0-88.675622-44.919049-88.675622-98.113575L65.289494 371.434567c0-51.05377 35.177174-89.560782 88.675622-89.560782l705.756889 0c53.486168 0 98.985432 38.508036 98.985432 89.560782l0 340.260567C958.70846 764.889661 910.577253 809.80871 859.723028 809.80871zM809.805128 864.882026c0 51.820226-42.010813 93.830015-93.831039 93.830015L308.023864 958.712041c-51.820226 0-93.831039-42.010813-93.831039-93.830015L214.192825 687.048805c0-51.821249 42.011836-93.832062 93.831039-93.832062l407.950226 0c51.821249 0 93.831039 42.011836 93.831039 93.832062L809.805128 864.882026zM755.658927 687.048805c0-21.919219-17.766642-39.684838-39.684838-39.684838L308.023864 647.363967c-21.917172 0-39.684838 17.765619-39.684838 39.684838l0 177.833221c0 21.917172 17.766642 39.683814 39.684838 39.683814l407.950226 0c21.918195 0 39.684838-17.766642 39.684838-39.683814L755.658927 687.048805zM782.732539 336.019986c-14.951527 0-27.073612-12.122085-27.073612-27.073612L755.658927 154.848741c0-23.25361-25.117051-35.414581-44.839231-35.414581l-407.951249 0c-19.723204 0-34.529421 12.161994-34.529421 35.414581l0 154.097634c0 14.951527-12.122085 27.073612-27.073612 27.073612-14.951527 0-27.073612-12.122085-27.073612-27.073612L214.191802 154.848741c0-51.05377 35.177174-89.560782 88.675622-89.560782l407.951249 0c53.485145 0 98.985432 38.508036 98.985432 89.560782l0 154.097634C809.805128 323.897901 797.683043 336.019986 782.732539 336.019986zM236.111021 417.240823l-40.609906 0c-7.482415 0-13.537318-6.054903-13.537318-13.537318 0-7.482415 6.054903-13.537318 13.537318-13.537318l40.609906 0c7.469112 0 13.536294 6.054903 13.536294 13.537318C249.647315 411.18592 243.580133 417.240823 236.111021 417.240823zM330.867128 417.240823l-40.609906 0c-7.482415 0-13.536294-6.054903-13.536294-13.537318 0-7.482415 6.054903-13.537318 13.536294-13.537318l40.609906 0c7.469112 0 13.537318 6.054903 13.537318 13.537318C344.404446 411.18592 338.33624 417.240823 330.867128 417.240823zM777.576099 539.069519 236.111021 539.069519c-7.482415 0-13.537318-6.054903-13.537318-13.536294 0-7.482415 6.054903-13.537318 13.537318-13.537318l541.465079 0c7.469112 0 13.537318 6.054903 13.537318 13.537318C791.113417 533.014616 785.045211 539.069519 777.576099 539.069519z" fill="#000000"></path></svg>
