<?xml version="1.0" standalone="no"?><!DOCTYPE svg PUBLIC "-//W3C//DTD SVG 1.1//EN" "http://www.w3.org/Graphics/SVG/1.1/DTD/svg11.dtd">
<svg class="icon" style="" viewBox="0 0 1024 1024" version="1.1" xmlns="http://www.w3.org/2000/svg" p-id="5554"
     width="200" height="200"><defs><style type="text/css"></style></defs><path d="M219.664444 959.052802l-0.013303 0c-10.434653 0-19.771299-4.857635-25.595958-13.293771-10.42135-15.096836-4.28356-33.719986-1.450025-41.320081L279.698748 582.192665c0.234337-0.88823 0.521886-1.750877 0.849344-2.599198 0.12996-0.326435 0.234337-0.64059 0.313132-0.927115-0.12996 0-0.260943 0-0.417509 0l-52.316529 0c-19.902282 0-36.304857-8.462742-44.989657-23.218818-8.762571-14.888082-8.148587-33.589003 1.671059-51.310619L401.346319 114.195855C416.65191 86.522586 451.886389 65.627696 483.281423 65.627696l314.848805 0c20.841677 0 37.074384 8.789177 44.518936 24.133653 7.483438 15.423271 4.284583 33.785477-8.774851 50.370201l-223.655849 285.164738 95.503121 0c31.447223 0 41.203424 17.486256 43.932582 24.995277 2.715855 7.483438 6.438643 26.968212-17.21201 47.15702l-480.037031 446.611757c-0.326435 0.314155-0.666172 0.626263-1.019213 0.913812C239.958652 954.561511 229.877039 959.052802 219.664444 959.052802zM331.021647 597.301781l-72.414263 267.932262L673.974533 478.787574l-79.492472 0c-20.843724 0-37.07643-8.789177-44.519959-24.108071-7.496741-15.423271-4.296863-33.797757 8.761548-50.409087l223.655849-285.151435L483.281423 119.118981c-11.872399 0-29.29214 10.408047-35.156708 20.999266L234.317165 525.174044l46.125527 0c19.131733 0 35.71748 8.149611 45.485961 22.358217C335.540567 561.506531 337.369216 579.565838 331.021647 597.301781zM384.551818 385.387347c-2.193968 0-4.41352-0.535189-6.477528-1.684362-6.450922-3.578502-8.789177-11.727089-5.197372-18.179035l11.988032-21.586644c3.578502-6.451946 11.727089-8.81476 18.179035-5.197372 6.464225 3.578502 8.789177 11.727089 5.197372 18.179035l-11.988032 21.586644C393.811716 382.90583 389.25391 385.387347 384.551818 385.387347zM422.3067 317.386604c-2.193968 0-4.41352-0.535189-6.477528-1.684362-6.451946-3.578502-8.789177-11.727089-5.198395-18.179035l56.625672-101.968369c11.597129-20.947078 39.269375-37.375236 63.012126-37.375236l34.973536 0c7.391341 0 13.372565 5.981225 13.372565 13.372565 0 7.392364-5.982248 13.372565-13.372565 13.372565l-34.973536 0c-14.156418 0-32.661887 11.022031-39.622416 23.598464l-56.625672 101.980649C431.565575 314.905086 427.008792 317.386604 422.3067 317.386604z" fill="#000000"></path></svg>
