<?xml version="1.0" standalone="no"?><!DOCTYPE svg PUBLIC "-//W3C//DTD SVG 1.1//EN" "http://www.w3.org/Graphics/SVG/1.1/DTD/svg11.dtd">
<svg class="icon" style="" viewBox="0 0 1024 1024" version="1.1" xmlns="http://www.w3.org/2000/svg" p-id="5554"
     width="200" height="200"><defs><style type="text/css"></style></defs><path d="M957.80795 846.311065c0 52.617381-42.659589 95.274924-95.274924 95.274924L159.663908 941.585989c-52.617381 0-95.274924-42.658565-95.274924-95.274924L64.388984 335.871607c0-52.617381 42.657542-95.2739 95.274924-95.2739l702.869119 0c52.616358 0 95.274924 42.657542 95.274924 95.2739L957.80795 846.311065zM902.827755 335.871607c0-22.254863-18.039865-40.294728-40.294728-40.294728L159.663908 295.576879c-22.255887 0-40.295751 18.039865-40.295751 40.294728l0 510.439458c0 22.255887 18.039865 40.295751 40.295751 40.295751l702.869119 0c22.254863 0 40.294728-18.039865 40.294728-40.295751L902.827755 335.871607zM627.929848 295.575856c-15.180747 0-27.490098-12.308327-27.490098-27.490098l0-120.750131c0-25.168216-32.631188-30.443359-49.972135-30.443359l-98.093109 0c-4.363378 0-30.617321 0.858554-30.617321 30.443359l0 120.750131c0 15.180747-12.308327 27.490098-27.489074 27.490098-15.180747 0-27.490098-12.308327-27.490098-27.490098l0-120.750131c0-49.503461 29.074176-85.422532 85.596494-85.422532l116.616998 0c54.750975 0 86.428442 35.128055 86.428442 85.422532l0 120.750131C655.418922 283.267529 643.110595 295.575856 627.929848 295.575856zM423.555134 597.964884 244.870522 597.964884c-7.597025 0-13.745049-6.148024-13.745049-13.746072 0-7.597025 6.147-13.745049 13.745049-13.745049l178.683589 0c7.597025 0 13.745049 6.148024 13.745049 13.745049C437.299159 591.81686 431.152159 597.964884 423.555134 597.964884zM162.387949 597.964884l-68.724221 0c-7.598049 0-13.745049-6.148024-13.745049-13.746072 0-7.597025 6.147-13.745049 13.745049-13.745049l68.724221 0c7.597025 0 13.745049 6.148024 13.745049 13.745049C176.132998 591.81686 169.984974 597.964884 162.387949 597.964884zM932.116825 597.964884 588.493673 597.964884c-7.597025 0-13.745049-6.148024-13.745049-13.746072 0-7.597025 6.148024-13.745049 13.745049-13.745049l343.623152 0c7.597025 0 13.745049 6.148024 13.745049 13.745049C945.86085 591.81686 939.71385 597.964884 932.116825 597.964884zM600.43975 624.487957c0 30.898731-25.046443 55.945173-55.945173 55.945173l-66.792219 0c-30.899754 0-55.946196-25.046443-55.946196-55.945173l0-66.791196c0-30.899754 25.046443-55.94722 55.946196-55.94722l66.792219 0c30.898731 0 55.945173 25.047466 55.945173 55.94722L600.43975 624.487957zM572.950675 557.696762c0-15.719007-12.739139-28.457122-28.457122-28.457122l-66.792219 0c-15.717983 0-28.456099 12.737092-28.456099 28.457122l0 66.791196c0 15.71696 12.738116 28.457122 28.456099 28.457122l66.792219 0c15.71696 0 28.457122-12.739139 28.457122-28.457122L572.950675 557.696762z" fill="#000000"></path></svg>
