<?xml version="1.0" standalone="no"?><!DOCTYPE svg PUBLIC "-//W3C//DTD SVG 1.1//EN" "http://www.w3.org/Graphics/SVG/1.1/DTD/svg11.dtd">
<svg class="icon" style="" viewBox="0 0 1024 1024" version="1.1" xmlns="http://www.w3.org/2000/svg" p-id="5554"
     width="200" height="200"><defs><style type="text/css"></style></defs><path d="M943.915545 864.882026c0 51.819203-42.011836 93.830015-93.831039 93.830015L171.40123 958.712041c-51.820226 0-93.831039-42.011836-93.831039-93.830015L77.570191 267.412422c0-51.820226 42.011836-93.831039 93.831039-93.831039L850.084507 173.581384c51.820226 0 93.831039 42.010813 93.831039 93.831039L943.915545 864.882026zM889.768321 267.412422c0-21.917172-17.765619-39.684838-39.683814-39.684838L171.40123 227.727585c-21.917172 0-39.684838 17.766642-39.684838 39.684838l0 597.469604c0 21.917172 17.766642 39.684838 39.684838 39.684838L850.084507 904.566864c21.918195 0 39.683814-17.767666 39.683814-39.684838L889.768321 267.412422zM796.426423 863.956957l-85.411275 0c-7.481392 0-13.537318-6.053879-13.537318-13.537318s6.055926-13.537318 13.537318-13.537318l85.411275 0c13.404288 0 22.88215-2.300392 22.88215-31.93841 0-7.481392 7.441483-13.537318 14.924921-13.537318 7.482415 0 14.924921 6.055926 14.924921 13.537318l0 4.864798c0 0.793062-1.454118 1.560542-1.586125 2.325975C845.57582 846.532099 827.478649 863.956957 796.426423 863.956957zM833.929572 761.215992c-3.66139 0-7.046486-1.50733-9.611915-3.939729-2.444679-2.566452-3.925403-5.949502-3.925403-9.597589 0-3.543709 1.480724-7.058766 3.925403-9.623171 5.010107-4.998851 14.07967-4.998851 19.22076 0 2.433422 2.564405 3.927449 6.079462 3.927449 9.623171 0 3.51608-1.494027 7.031137-3.927449 9.597589C840.962755 759.708662 837.445652 761.215992 833.929572 761.215992zM277.843494 552.615023l-13.536294 0c-7.482415 0-13.537318-6.054903-13.537318-13.537318 0-7.482415 6.054903-13.537318 13.537318-13.537318l13.536294 0c7.482415 0 13.537318 6.053879 13.537318 13.537318C291.379789 546.56012 285.325909 552.615023 277.843494 552.615023zM372.599601 552.615023l-13.537318 0c-7.482415 0-13.537318-6.054903-13.537318-13.537318 0-7.482415 6.054903-13.537318 13.537318-13.537318l13.537318 0c7.482415 0 13.536294 6.053879 13.536294 13.537318C386.135896 546.56012 380.082016 552.615023 372.599601 552.615023zM467.355709 552.615023 453.819414 552.615023c-7.482415 0-13.537318-6.054903-13.537318-13.537318 0-7.482415 6.054903-13.537318 13.537318-13.537318l13.536294 0c7.482415 0 13.537318 6.053879 13.537318 13.537318C480.893027 546.56012 474.838124 552.615023 467.355709 552.615023zM548.575522 552.615023 535.039227 552.615023c-7.482415 0-13.537318-6.054903-13.537318-13.537318 0-7.482415 6.054903-13.537318 13.537318-13.537318l13.536294 0c7.482415 0 13.537318 6.053879 13.537318 13.537318C562.112839 546.56012 556.05896 552.615023 548.575522 552.615023zM643.333676 552.615023l-13.537318 0c-7.482415 0-13.537318-6.054903-13.537318-13.537318 0-7.482415 6.053879-13.537318 13.537318-13.537318l13.537318 0c7.481392 0 13.537318 6.053879 13.537318 13.537318C656.86997 546.56012 650.814044 552.615023 643.333676 552.615023zM738.08876 552.615023l-13.537318 0c-7.482415 0-13.537318-6.054903-13.537318-13.537318 0-7.482415 6.054903-13.537318 13.537318-13.537318l13.537318 0c7.482415 0 13.537318 6.053879 13.537318 13.537318C751.626078 546.56012 745.572198 552.615023 738.08876 552.615023zM277.843494 633.832789l-13.536294 0c-7.482415 0-13.537318-6.053879-13.537318-13.537318 0-7.481392 6.054903-13.535271 13.537318-13.535271l13.536294 0c7.482415 0 13.537318 6.053879 13.537318 13.535271C291.379789 627.77891 285.325909 633.832789 277.843494 633.832789zM372.599601 633.832789l-13.537318 0c-7.482415 0-13.537318-6.053879-13.537318-13.537318 0-7.481392 6.054903-13.535271 13.537318-13.535271l13.537318 0c7.482415 0 13.536294 6.053879 13.536294 13.535271C386.135896 627.77891 380.082016 633.832789 372.599601 633.832789zM467.355709 633.832789 453.819414 633.832789c-7.482415 0-13.537318-6.053879-13.537318-13.537318 0-7.481392 6.054903-13.535271 13.537318-13.535271l13.536294 0c7.482415 0 13.537318 6.053879 13.537318 13.535271C480.893027 627.77891 474.838124 633.832789 467.355709 633.832789zM548.575522 633.832789 535.039227 633.832789c-7.482415 0-13.537318-6.053879-13.537318-13.537318 0-7.481392 6.054903-13.535271 13.537318-13.535271l13.536294 0c7.482415 0 13.537318 6.053879 13.537318 13.535271C562.112839 627.77891 556.05896 633.832789 548.575522 633.832789zM643.333676 633.832789l-13.537318 0c-7.482415 0-13.537318-6.053879-13.537318-13.537318 0-7.481392 6.053879-13.535271 13.537318-13.535271l13.537318 0c7.481392 0 13.537318 6.053879 13.537318 13.535271C656.86997 627.77891 650.814044 633.832789 643.333676 633.832789zM738.08876 633.832789l-13.537318 0c-7.482415 0-13.537318-6.053879-13.537318-13.537318 0-7.481392 6.054903-13.535271 13.537318-13.535271l13.537318 0c7.482415 0 13.537318 6.053879 13.537318 13.535271C751.626078 627.77891 745.572198 633.832789 738.08876 633.832789zM277.843494 796.272415l-13.536294 0c-7.482415 0-13.537318-6.053879-13.537318-13.537318 0-7.481392 6.054903-13.535271 13.537318-13.535271l13.536294 0c7.482415 0 13.537318 6.053879 13.537318 13.535271C291.379789 790.218536 285.325909 796.272415 277.843494 796.272415zM372.599601 796.272415l-13.537318 0c-7.482415 0-13.537318-6.053879-13.537318-13.537318 0-7.481392 6.054903-13.535271 13.537318-13.535271l13.537318 0c7.482415 0 13.536294 6.053879 13.536294 13.535271C386.135896 790.218536 380.082016 796.272415 372.599601 796.272415zM467.355709 796.272415 453.819414 796.272415c-7.482415 0-13.537318-6.053879-13.537318-13.537318 0-7.481392 6.054903-13.535271 13.537318-13.535271l13.536294 0c7.482415 0 13.537318 6.053879 13.537318 13.535271C480.893027 790.218536 474.838124 796.272415 467.355709 796.272415zM548.575522 796.272415 535.039227 796.272415c-7.482415 0-13.537318-6.053879-13.537318-13.537318 0-7.481392 6.054903-13.535271 13.537318-13.535271l13.536294 0c7.482415 0 13.537318 6.053879 13.537318 13.535271C562.112839 790.218536 556.05896 796.272415 548.575522 796.272415zM277.843494 715.053626l-13.536294 0c-7.482415 0-13.537318-6.053879-13.537318-13.537318s6.054903-13.537318 13.537318-13.537318l13.536294 0c7.482415 0 13.537318 6.053879 13.537318 13.537318S285.325909 715.053626 277.843494 715.053626zM372.599601 715.053626l-13.537318 0c-7.482415 0-13.537318-6.053879-13.537318-13.537318s6.054903-13.537318 13.537318-13.537318l13.537318 0c7.482415 0 13.536294 6.053879 13.536294 13.537318S380.082016 715.053626 372.599601 715.053626zM467.355709 715.053626 453.819414 715.053626c-7.482415 0-13.537318-6.053879-13.537318-13.537318s6.054903-13.537318 13.537318-13.537318l13.536294 0c7.482415 0 13.537318 6.053879 13.537318 13.537318S474.838124 715.053626 467.355709 715.053626zM548.575522 715.053626 535.039227 715.053626c-7.482415 0-13.537318-6.053879-13.537318-13.537318s6.054903-13.537318 13.537318-13.537318l13.536294 0c7.482415 0 13.537318 6.053879 13.537318 13.537318S556.05896 715.053626 548.575522 715.053626zM643.333676 715.053626l-13.537318 0c-7.482415 0-13.537318-6.053879-13.537318-13.537318s6.053879-13.537318 13.537318-13.537318l13.537318 0c7.481392 0 13.537318 6.053879 13.537318 13.537318S650.814044 715.053626 643.333676 715.053626zM738.08876 715.053626l-13.537318 0c-7.482415 0-13.537318-6.053879-13.537318-13.537318s6.054903-13.537318 13.537318-13.537318l13.537318 0c7.482415 0 13.537318 6.053879 13.537318 13.537318S745.572198 715.053626 738.08876 715.053626zM267.082406 322.484715c-14.950504 0-27.073612-12.122085-27.073612-27.073612L240.008794 92.361571c0-14.951527 12.122085-27.073612 27.073612-27.073612 14.951527 0 27.073612 12.122085 27.073612 27.073612L294.156018 295.411103C294.156018 310.36263 282.033933 322.484715 267.082406 322.484715zM740.86499 322.484715c-14.950504 0-27.073612-12.122085-27.073612-27.073612L713.791377 92.361571c0-14.951527 12.123109-27.073612 27.073612-27.073612 14.951527 0 27.073612 12.122085 27.073612 27.073612L767.938602 295.411103C767.938602 310.36263 755.81754 322.484715 740.86499 322.484715zM914.065703 430.77814 101.86655 430.77814c-7.482415 0-13.537318-6.054903-13.537318-13.537318 0-7.482415 6.054903-13.536294 13.537318-13.536294l812.199153 0c7.482415 0 13.537318 6.054903 13.537318 13.536294C927.603021 424.723238 921.548118 430.77814 914.065703 430.77814z" fill="#000000"></path></svg>
