<?xml version="1.0" standalone="no"?><!DOCTYPE svg PUBLIC "-//W3C//DTD SVG 1.1//EN" "http://www.w3.org/Graphics/SVG/1.1/DTD/svg11.dtd">
<svg class="icon" style="" viewBox="0 0 1024 1024" version="1.1" xmlns="http://www.w3.org/2000/svg" p-id="5554"
     width="200" height="200"><defs><style type="text/css"></style></defs><path d="M822.737672 958.712041 208.512453 958.712041c-106.851587 0-141.40966-40.460504-141.40966-149.249209L67.102792 205.716268c0-106.306164 30.454616-140.42831 141.40966-140.42831l474.628858 0c6.461155 0 12.70537 2.235924 17.709337 6.326079l246.870574 200.329585c6.461155 5.302773 12.800537 13.237489 12.800537 21.593807l0 515.927449C960.521758 910.591067 935.504992 958.712041 822.737672 958.712041zM208.512453 121.125685c-79.709413 0-85.571934 10.279111-85.571934 84.58956l0 603.747587c0 78.57866 9.242502 93.41046 85.571934 93.41046l614.225219 0c70.316485 0 81.944314-7.852852 81.944314-93.41046L904.681986 306.746266 673.162028 121.125685 208.512453 121.125685zM694.319907 414.279375 336.957847 414.279375c-34.081213 0-60.46-7.334036-60.46-60.5961L276.497846 107.166765c0-7.716752 6.244214-13.959943 13.959943-13.959943 7.716752 0 13.959943 6.243191 13.959943 13.959943l0 246.51651c0 25.710568-0.476861 32.677237 32.540114 32.677237l357.362061 0c23.721261 0 28.886911 0 28.886911-32.677237L723.206818 149.045571c0-7.716752 6.244214-13.959943 13.959943-13.959943s13.959943 6.244214 13.959943 13.959943l0 204.637704C751.126704 392.384715 743.560378 414.279375 694.319907 414.279375zM611.530342 302.601876c-15.418154 0-27.919886-12.500709-27.919886-27.919886l0-83.758636c0-15.418154 12.501732-27.918863 27.919886-27.918863s27.918863 12.500709 27.918863 27.918863l0 83.758636C639.449205 290.101167 626.948497 302.601876 611.530342 302.601876zM410.927535 609.714486 299.250036 609.714486c-7.715729 0-13.959943-6.244214-13.959943-13.960966 0-7.714705 6.244214-13.95892 13.959943-13.95892l111.677499 0c7.716752 0 13.959943 6.244214 13.959943 13.95892C424.887478 603.471294 418.643264 609.714486 410.927535 609.714486zM606.362646 609.714486 466.766284 609.714486c-7.715729 0-13.959943-6.244214-13.959943-13.960966 0-7.714705 6.244214-13.95892 13.959943-13.95892l139.596362 0c7.716752 0 13.960966 6.244214 13.960966 13.95892C620.322589 603.471294 614.079398 609.714486 606.362646 609.714486zM718.040145 609.714486l-55.838749 0c-7.715729 0-13.959943-6.244214-13.959943-13.960966 0-7.714705 6.244214-13.95892 13.959943-13.95892l55.838749 0c7.715729 0 13.959943 6.244214 13.959943 13.95892C732.000088 603.471294 725.756897 609.714486 718.040145 609.714486zM355.088786 679.513178l-55.838749 0c-7.715729 0-13.959943-6.244214-13.959943-13.960966s6.244214-13.960966 13.959943-13.960966l55.838749 0c7.716752 0 13.959943 6.244214 13.959943 13.960966S362.804515 679.513178 355.088786 679.513178zM522.605034 679.513178 410.927535 679.513178c-7.715729 0-13.959943-6.244214-13.959943-13.960966s6.244214-13.960966 13.959943-13.960966l111.677499 0c7.715729 0 13.959943 6.244214 13.959943 13.960966S530.320763 679.513178 522.605034 679.513178zM718.040145 679.513178 578.443783 679.513178c-7.715729 0-13.959943-6.244214-13.959943-13.960966s6.244214-13.960966 13.959943-13.960966l139.597385 0c7.715729 0 13.959943 6.244214 13.959943 13.960966S725.756897 679.513178 718.040145 679.513178zM438.847421 763.27693 299.250036 763.27693c-7.715729 0-13.959943-6.244214-13.959943-13.95892 0-7.716752 6.244214-13.960966 13.959943-13.960966l139.596362 0c7.715729 0 13.959943 6.244214 13.959943 13.960966C452.806341 757.032716 446.56315 763.27693 438.847421 763.27693zM536.564977 763.27693l-41.878806 0c-7.715729 0-13.959943-6.244214-13.959943-13.95892 0-7.716752 6.244214-13.960966 13.959943-13.960966l41.878806 0c7.715729 0 13.959943 6.244214 13.959943 13.960966C550.523897 757.032716 544.280706 763.27693 536.564977 763.27693z" fill="#000000"></path></svg>
