<?xml version="1.0" standalone="no"?><!DOCTYPE svg PUBLIC "-//W3C//DTD SVG 1.1//EN" "http://www.w3.org/Graphics/SVG/1.1/DTD/svg11.dtd">
<svg class="icon" style="" viewBox="0 0 1024 1024" version="1.1" xmlns="http://www.w3.org/2000/svg" p-id="5554"
     width="200" height="200"><defs><style type="text/css"></style></defs><path d="M972.656123 860.413248c0 54.289464-44.0124 98.299817-98.299817 98.299817L149.173996 958.713065c-54.287417 0-98.299817-44.010353-98.299817-98.299817L50.874179 163.586752c0-54.287417 44.011376-98.299817 98.299817-98.299817l725.18231 0c54.287417 0 98.299817 44.011376 98.299817 98.299817L972.656123 860.413248zM915.931191 163.586752c0-22.960944-18.612916-41.573861-41.574884-41.573861L149.173996 122.012891c-22.960944 0-41.573861 18.612916-41.573861 41.573861l0 696.826496c0 22.961968 18.612916 41.575908 41.573861 41.575908l725.18231 0c22.960944 0 41.574884-18.612916 41.574884-41.575908L915.931191 163.586752zM73.975317 761.920026c-2.797719 0-5.636371-0.829901-8.115841-2.574638-6.412037-4.487198-7.976672-13.323447-3.489474-19.748786l222.772736-318.66983c11.06501-15.857153 27.087938-25.468045 45.091988-27.047006 18.003026-1.551332 35.453467 5.068436 49.149397 18.765389l183.247534 183.247534c5.54018 5.54018 5.54018 14.514575 0 20.054755-5.539156 5.538133-14.513552 5.538133-20.053732 0L359.33039 432.697863c-7.644097-7.645121-17.006326-11.509125-26.603915-10.56666-9.500375 0.830925-18.142196 6.176676-24.332175 15.039531L85.608262 755.853867C82.851475 759.815085 78.448188 761.920026 73.975317 761.920026zM874.59269 757.848291c-3.489474 0-6.993275-1.300622-9.735735-3.877307l-16.951067-16.009625c-5.691629-5.374404-5.954619-14.347776-0.567935-20.046568 5.359055-5.678326 14.347776-5.942339 20.039405-0.567935l16.950044 16.016789c5.691629 5.372358 5.954619 14.346753 0.567935 20.024056C882.111944 756.353241 878.35948 757.848291 874.59269 757.848291zM307.079352 954.253496c-2.935865 0-5.913687-0.913812-8.447393-2.824325-6.288217-4.65502-7.589862-13.544481-2.908236-19.832697l286.089807-384.355855c11.467169-15.413038 27.863604-24.774243 46.186925-26.380834 18.279319-1.647523 36.103266 4.764514 50.063209 17.934464l155.121963 146.31232c5.691629 5.372358 5.953595 14.347776 0.581238 20.052708-5.387707 5.678326-14.362102 5.969968-20.053732 0.581238l-155.121963-146.31232c-7.976672-7.532557-17.863856-11.17655-28.113291-10.316973-10.151197 0.88516-19.346627 6.246261-25.924439 15.053857L318.46261 948.520935C315.679217 952.259072 311.414077 954.253496 307.079352 954.253496zM636.14188 422.020686c-67.567885 0-122.534777-54.980195-122.534777-122.54808S568.573995 176.936805 636.14188 176.936805s122.549104 54.965869 122.549104 122.534777S703.710788 422.020686 636.14188 422.020686zM636.14188 205.299783c-51.93279 0-94.1718 42.23901-94.1718 94.172823S584.20909 393.658731 636.14188 393.658731s94.186126-42.253336 94.186126-94.186126S688.074669 205.299783 636.14188 205.299783z" fill="#000000"></path></svg>
