<?xml version="1.0" standalone="no"?><!DOCTYPE svg PUBLIC "-//W3C//DTD SVG 1.1//EN" "http://www.w3.org/Graphics/SVG/1.1/DTD/svg11.dtd">
<svg class="icon" style="" viewBox="0 0 1024 1024" version="1.1" xmlns="http://www.w3.org/2000/svg" p-id="5554"
     width="200" height="200"><defs><style type="text/css"></style></defs><path d="M956.463326 860.848153c0 53.367465-43.266409 96.636944-96.634898 96.636944L160.861176 957.485097c-53.368488 0-96.635921-43.268456-96.635921-96.636944L64.225255 482.522642c0-53.368488 43.267433-96.635921 96.635921-96.635921l698.967252 0c53.367465 0 96.634898 43.266409 96.634898 96.635921L956.463326 860.848153zM900.699278 482.522642c0-22.573111-18.297738-40.87085-40.869826-40.87085L160.861176 441.651792c-22.573111 0-40.869826 18.297738-40.869826 40.87085l0 378.325511c0 22.573111 18.297738 40.869826 40.869826 40.869826l698.967252 0c22.573111 0 40.869826-18.297738 40.869826-40.869826L900.698255 482.522642zM270.484899 567.123458l-13.941524 0c-7.705496 0-13.941524-6.236028-13.941524-13.942547 0-7.704472 6.235005-13.9405 13.941524-13.9405l13.941524 0c7.705496 0 13.941524 6.236028 13.941524 13.9405C284.426423 560.888454 278.190395 567.123458 270.484899 567.123458zM368.073518 567.123458l-13.941524 0c-7.706519 0-13.941524-6.236028-13.941524-13.942547 0-7.704472 6.235005-13.9405 13.941524-13.9405l13.941524 0c7.705496 0 13.941524 6.236028 13.941524 13.9405C382.014018 560.888454 375.779014 567.123458 368.073518 567.123458zM465.662137 567.123458l-13.941524 0c-7.705496 0-13.941524-6.236028-13.941524-13.942547 0-7.704472 6.235005-13.9405 13.941524-13.9405l13.941524 0c7.705496 0 13.941524 6.236028 13.941524 13.9405C479.603661 560.888454 473.367633 567.123458 465.662137 567.123458zM549.309232 567.123458l-13.9405 0c-7.706519 0-13.941524-6.236028-13.941524-13.942547 0-7.704472 6.235005-13.9405 13.941524-13.9405l13.9405 0c7.705496 0 13.941524 6.236028 13.941524 13.9405C563.250756 560.888454 557.014728 567.123458 549.309232 567.123458zM646.897851 567.123458l-13.941524 0c-7.705496 0-13.9405-6.236028-13.9405-13.942547 0-7.704472 6.235005-13.9405 13.9405-13.9405l13.941524 0c7.705496 0 13.941524 6.236028 13.941524 13.9405C660.839375 560.888454 654.603347 567.123458 646.897851 567.123458zM744.48647 567.123458l-13.941524 0c-7.705496 0-13.941524-6.236028-13.941524-13.942547 0-7.704472 6.236028-13.9405 13.941524-13.9405l13.941524 0c7.704472 0 13.9405 6.236028 13.9405 13.9405C758.426971 560.888454 752.191966 567.123458 744.48647 567.123458zM270.484899 650.770554l-13.941524 0c-7.705496 0-13.941524-6.236028-13.941524-13.942547 0-7.704472 6.235005-13.9405 13.941524-13.9405l13.941524 0c7.705496 0 13.941524 6.236028 13.941524 13.9405C284.426423 644.535549 278.190395 650.770554 270.484899 650.770554zM368.073518 650.770554l-13.941524 0c-7.706519 0-13.941524-6.236028-13.941524-13.942547 0-7.704472 6.235005-13.9405 13.941524-13.9405l13.941524 0c7.705496 0 13.941524 6.236028 13.941524 13.9405C382.014018 644.535549 375.779014 650.770554 368.073518 650.770554zM465.662137 650.770554l-13.941524 0c-7.705496 0-13.941524-6.236028-13.941524-13.942547 0-7.704472 6.235005-13.9405 13.941524-13.9405l13.941524 0c7.705496 0 13.941524 6.236028 13.941524 13.9405C479.603661 644.535549 473.367633 650.770554 465.662137 650.770554zM549.309232 650.770554l-13.9405 0c-7.706519 0-13.941524-6.236028-13.941524-13.942547 0-7.704472 6.235005-13.9405 13.941524-13.9405l13.9405 0c7.705496 0 13.941524 6.236028 13.941524 13.9405C563.250756 644.535549 557.014728 650.770554 549.309232 650.770554zM646.897851 650.770554l-13.941524 0c-7.705496 0-13.9405-6.236028-13.9405-13.942547 0-7.704472 6.235005-13.9405 13.9405-13.9405l13.941524 0c7.705496 0 13.941524 6.236028 13.941524 13.9405C660.839375 644.535549 654.603347 650.770554 646.897851 650.770554zM744.48647 650.770554l-13.941524 0c-7.705496 0-13.941524-6.236028-13.941524-13.942547 0-7.704472 6.236028-13.9405 13.941524-13.9405l13.941524 0c7.704472 0 13.9405 6.236028 13.9405 13.9405C758.426971 644.535549 752.191966 650.770554 744.48647 650.770554zM270.484899 818.071907l-13.941524 0c-7.705496 0-13.941524-6.236028-13.941524-13.9405 0-7.706519 6.235005-13.942547 13.941524-13.942547l13.941524 0c7.705496 0 13.941524 6.236028 13.941524 13.942547C284.426423 811.835879 278.190395 818.071907 270.484899 818.071907zM660.839375 818.071907 354.131995 818.071907c-7.706519 0-13.941524-6.236028-13.941524-13.9405 0-7.706519 6.235005-13.942547 13.941524-13.942547l306.70738 0c7.704472 0 13.9405 6.236028 13.9405 13.942547C674.779875 811.835879 668.543847 818.071907 660.839375 818.071907zM744.48647 818.071907l-13.941524 0c-7.705496 0-13.941524-6.236028-13.941524-13.9405 0-7.706519 6.236028-13.942547 13.941524-13.942547l13.941524 0c7.704472 0 13.9405 6.236028 13.9405 13.942547C758.426971 811.835879 752.191966 818.071907 744.48647 818.071907zM270.484899 734.424812l-13.941524 0c-7.705496 0-13.941524-6.236028-13.941524-13.9405 0-7.706519 6.235005-13.948687 13.941524-13.948687l13.941524 0c7.705496 0 13.941524 6.242168 13.941524 13.948687C284.426423 728.188784 278.190395 734.424812 270.484899 734.424812zM368.073518 734.424812l-13.941524 0c-7.706519 0-13.941524-6.236028-13.941524-13.9405 0-7.706519 6.235005-13.948687 13.941524-13.948687l13.941524 0c7.705496 0 13.941524 6.242168 13.941524 13.948687C382.014018 728.188784 375.779014 734.424812 368.073518 734.424812zM465.662137 734.424812l-13.941524 0c-7.705496 0-13.941524-6.236028-13.941524-13.9405 0-7.706519 6.235005-13.948687 13.941524-13.948687l13.941524 0c7.705496 0 13.941524 6.242168 13.941524 13.948687C479.603661 728.188784 473.367633 734.424812 465.662137 734.424812zM549.309232 734.424812l-13.9405 0c-7.706519 0-13.941524-6.236028-13.941524-13.9405 0-7.706519 6.235005-13.948687 13.941524-13.948687l13.9405 0c7.705496 0 13.941524 6.242168 13.941524 13.948687C563.250756 728.188784 557.014728 734.424812 549.309232 734.424812zM646.897851 734.424812l-13.941524 0c-7.705496 0-13.9405-6.236028-13.9405-13.9405 0-7.706519 6.235005-13.948687 13.9405-13.948687l13.941524 0c7.705496 0 13.941524 6.242168 13.941524 13.948687C660.839375 728.188784 654.603347 734.424812 646.897851 734.424812zM744.48647 734.424812l-13.941524 0c-7.705496 0-13.941524-6.236028-13.941524-13.9405 0-7.706519 6.236028-13.948687 13.941524-13.948687l13.941524 0c7.704472 0 13.9405 6.242168 13.9405 13.948687C758.426971 728.188784 752.191966 734.424812 744.48647 734.424812zM504.980631 426.213171c-8.29185 0-16.500812-3.675716-21.98778-10.728342-9.475815-12.144598-7.324826-29.652344 4.819772-39.128159 28.822442-22.50455 47.759747-52.620451 48.27754-76.744895 0.285502-13.574157-5.337565-25.078165-17.195637-35.165918-39.495526-33.614585-113.013937-96.172363-41.401945-189.485609 9.407254-12.226462 26.90272-14.499226 39.10053-5.146207 12.213159 9.380648 14.514575 26.888394 5.146207 39.10053-31.244608 40.720424-24.409946 63.960731 33.287127 113.053845 24.724101 21.034059 37.45403 48.290843 36.81344 78.81402-0.871857 41.456181-26.941606 86.138846-69.718875 119.521141C517.029038 424.293449 510.985392 426.213171 504.980631 426.213171z" fill="#000000"></path></svg>
