<?xml version="1.0" standalone="no"?><!DOCTYPE svg PUBLIC "-//W3C//DTD SVG 1.1//EN" "http://www.w3.org/Graphics/SVG/1.1/DTD/svg11.dtd">
<svg class="icon" style="" viewBox="0 0 1024 1024" version="1.1" xmlns="http://www.w3.org/2000/svg" p-id="5554"
     width="200" height="200"><defs><style type="text/css"></style></defs><path d="M957.806927 751.430114c0 52.616358-42.657542 95.2739-95.2739 95.2739L159.662885 846.704015c-52.617381 0-95.274924-42.657542-95.274924-95.2739L64.387961 268.478707c0-52.617381 42.657542-95.274924 95.274924-95.274924l702.869119 0c52.617381 0 95.2739 42.657542 95.2739 95.274924L957.805904 751.430114zM902.828778 268.478707c0-22.254863-18.040888-40.294728-40.295751-40.294728L159.662885 228.183979c-22.254863 0-40.294728 18.039865-40.294728 40.294728l0 482.951407c0 22.254863 18.039865 40.294728 40.294728 40.294728l702.869119 0c22.254863 0 40.295751-18.039865 40.295751-40.294728L902.827755 268.478707zM938.826644 338.143347 100.388896 338.143347c-7.598049 0-13.745049-6.148024-13.745049-13.745049s6.147-13.745049 13.745049-13.745049l838.438771 0c7.584746 0 13.746072 6.147 13.746072 13.745049S946.411389 338.143347 938.826644 338.143347zM938.826644 489.336838 100.388896 489.336838c-7.598049 0-13.745049-6.147-13.745049-13.745049 0-7.597025 6.147-13.745049 13.745049-13.745049l838.438771 0c7.584746 0 13.746072 6.147 13.746072 13.745049C952.572716 483.189837 946.411389 489.336838 938.826644 489.336838zM210.348264 695.509501l-54.980195 0c-7.597025 0-13.745049-6.148024-13.745049-13.745049s6.147-13.747095 13.745049-13.747095l54.980195 0c7.583722 0 13.745049 6.15007 13.745049 13.747095S217.930963 695.509501 210.348264 695.509501zM361.541755 695.509501l-96.214319 0c-7.597025 0-13.745049-6.148024-13.745049-13.745049s6.148024-13.747095 13.745049-13.747095l96.214319 0c7.583722 0 13.745049 6.15007 13.745049 13.747095S369.125477 695.509501 361.541755 695.509501zM444.011025 695.509501l-27.490098 0c-7.598049 0-13.745049-6.148024-13.745049-13.745049s6.147-13.747095 13.745049-13.747095l27.490098 0c7.582699 0 13.745049 6.15007 13.745049 13.747095S451.594747 695.509501 444.011025 695.509501z" fill="#000000"></path></svg>
